<mxfile modified="2023-09-12T06:15:25.048Z" host="app.diagrams.net" agent="Mozilla/5.0 (Windows NT 10.0; Win64; x64) AppleWebKit/537.36 (KHTML, like Gecko) Chrome/116.0.0.0 Safari/537.36" etag="v207wF3Ofx4IKeYNKnEt" version="21.7.4" type="github">
  <diagram id="Ht1M8jgEwFfnCIfOTk4-" name="Page-1">
    <mxGraphModel dx="1687" dy="882" grid="1" gridSize="10" guides="1" tooltips="1" connect="1" arrows="1" fold="1" page="1" pageScale="1" pageWidth="827" pageHeight="1169" math="0" shadow="0">
      <root>
        <mxCell id="0" />
        <mxCell id="1" parent="0" />
        <mxCell id="jZVaUwOg5UY3L9NAnvdq-71" value="AWS Cloud" style="points=[[0,0],[0.25,0],[0.5,0],[0.75,0],[1,0],[1,0.25],[1,0.5],[1,0.75],[1,1],[0.75,1],[0.5,1],[0.25,1],[0,1],[0,0.75],[0,0.5],[0,0.25]];outlineConnect=0;gradientColor=none;html=1;whiteSpace=wrap;fontSize=12;fontStyle=0;shape=mxgraph.aws4.group;grIcon=mxgraph.aws4.group_aws_cloud_alt;strokeColor=#232F3E;fillColor=none;verticalAlign=top;align=left;spacingLeft=30;fontColor=#232F3E;dashed=0;labelBackgroundColor=none;container=1;pointerEvents=0;collapsible=0;recursiveResize=0;" parent="1" vertex="1">
          <mxGeometry x="200.44" y="147.5" width="767.13" height="532.5" as="geometry" />
        </mxCell>
        <mxCell id="-JkOilVpYJbZjcMI7v-V-58" style="edgeStyle=orthogonalEdgeStyle;rounded=0;orthogonalLoop=1;jettySize=auto;html=1;entryX=0;entryY=0.5;entryDx=0;entryDy=0;entryPerimeter=0;" parent="jZVaUwOg5UY3L9NAnvdq-71" source="-JkOilVpYJbZjcMI7v-V-55" target="-JkOilVpYJbZjcMI7v-V-57" edge="1">
          <mxGeometry relative="1" as="geometry" />
        </mxCell>
        <mxCell id="-JkOilVpYJbZjcMI7v-V-59" value="Auth" style="edgeLabel;html=1;align=center;verticalAlign=middle;resizable=0;points=[];" parent="-JkOilVpYJbZjcMI7v-V-58" vertex="1" connectable="0">
          <mxGeometry x="-0.069" y="2" relative="1" as="geometry">
            <mxPoint as="offset" />
          </mxGeometry>
        </mxCell>
        <mxCell id="-JkOilVpYJbZjcMI7v-V-73" style="edgeStyle=orthogonalEdgeStyle;rounded=0;orthogonalLoop=1;jettySize=auto;html=1;" parent="jZVaUwOg5UY3L9NAnvdq-71" source="-JkOilVpYJbZjcMI7v-V-55" target="-JkOilVpYJbZjcMI7v-V-61" edge="1">
          <mxGeometry relative="1" as="geometry" />
        </mxCell>
        <mxCell id="-JkOilVpYJbZjcMI7v-V-55" value="" style="sketch=0;points=[[0,0,0],[0.25,0,0],[0.5,0,0],[0.75,0,0],[1,0,0],[0,1,0],[0.25,1,0],[0.5,1,0],[0.75,1,0],[1,1,0],[0,0.25,0],[0,0.5,0],[0,0.75,0],[1,0.25,0],[1,0.5,0],[1,0.75,0]];outlineConnect=0;fontColor=#232F3E;fillColor=#DD344C;strokeColor=#ffffff;dashed=0;verticalLabelPosition=bottom;verticalAlign=top;align=center;html=1;fontSize=12;fontStyle=0;aspect=fixed;shape=mxgraph.aws4.resourceIcon;resIcon=mxgraph.aws4.amplify;" parent="jZVaUwOg5UY3L9NAnvdq-71" vertex="1">
          <mxGeometry x="80" y="175.75" width="44.5" height="44.5" as="geometry" />
        </mxCell>
        <mxCell id="-JkOilVpYJbZjcMI7v-V-56" value="AWS Amplify" style="text;strokeColor=none;align=center;fillColor=none;html=1;verticalAlign=middle;whiteSpace=wrap;rounded=0;" parent="jZVaUwOg5UY3L9NAnvdq-71" vertex="1">
          <mxGeometry x="57.25" y="236" width="90" height="30" as="geometry" />
        </mxCell>
        <mxCell id="-JkOilVpYJbZjcMI7v-V-57" value="" style="sketch=0;points=[[0,0,0],[0.25,0,0],[0.5,0,0],[0.75,0,0],[1,0,0],[0,1,0],[0.25,1,0],[0.5,1,0],[0.75,1,0],[1,1,0],[0,0.25,0],[0,0.5,0],[0,0.75,0],[1,0.25,0],[1,0.5,0],[1,0.75,0]];outlineConnect=0;fontColor=#232F3E;fillColor=#DD344C;strokeColor=#ffffff;dashed=0;verticalLabelPosition=bottom;verticalAlign=top;align=center;html=1;fontSize=12;fontStyle=0;aspect=fixed;shape=mxgraph.aws4.resourceIcon;resIcon=mxgraph.aws4.cognito;" parent="jZVaUwOg5UY3L9NAnvdq-71" vertex="1">
          <mxGeometry x="191.87" y="42.5" width="47.5" height="47.5" as="geometry" />
        </mxCell>
        <mxCell id="-JkOilVpYJbZjcMI7v-V-51" value="&lt;font style=&quot;font-size: 12px;&quot;&gt;Cognito&lt;/font&gt;" style="text;strokeColor=none;align=center;fillColor=none;html=1;verticalAlign=middle;whiteSpace=wrap;rounded=0;" parent="jZVaUwOg5UY3L9NAnvdq-71" vertex="1">
          <mxGeometry x="191.87" y="116" width="43.76" height="17.5" as="geometry" />
        </mxCell>
        <mxCell id="-JkOilVpYJbZjcMI7v-V-60" value="" style="shape=image;verticalLabelPosition=bottom;labelBackgroundColor=default;verticalAlign=top;aspect=fixed;imageAspect=0;image=data:image/png,iVBORw0KGgoAAAANSUhEUgAABLAAAASwCAYAAADrIbPPAAAAAXNSR0IArs4c6QAAIABJREFUeF7s3Qt4XGW1//Hf2jNJeoECpYVm0nKRIlKgbZIWAW/lqCiIAkkaQdC/HD0iRz0oosABpSAI3o634wVUUFSQNEnlgKh4lKogAk1SWopAi4U2mZRWCi30kmZmr/8zBY+oQHObzOy9v/M8PPo8fS9rfdZuM13d+90mPggggAACCCCAAAIIIIAAAggggAACCJSxgJVxbISGAAIIIIAAAggggAACCCCAAAIIIICAaGBxESCAAAIIIIAAAggggAACCCCAAAIIlLUADayyLg/BIYAAAggggAACCCCAAAIIIIAAAgjQwOIaQAABBBBAAAEEEEAAAQQQQAABBBAoawEaWGVdHoJDAAEEEEAAAQQQQAABBBBAAAEEEKCBxTWAAAIIIIAAAggggAACCCCAAAIIIFDWAjSwyro8BIcAAggggAACCCCAAAIIIIAAAgggQAOLawABBBBAAAEEEEAAAQQQQAABBBBAoKwFaGCVdXkIDgEEEEAAAQQQQAABBBBAAAEEEECABhbXAAIIIIAAAggggAACCCCAAAIIIIBAWQvQwCrr8hAcAggggAACCCCAAAIIIIAAAggggAANLK4BBBBAAAEEEEBgkAIt81tSRz8ydkratmTCioo9Qg8q0p7bzd2qPLCqwnIWep+Z97lXPhP6jv6U5zenbWzPHdP7nmhe2Jwf5JYMRwABBBBAAAEEEi1AAyvR5Sd5BBBAAAEEEHihgM+7I519dsNBgaem50PfL5BNM1kmDDxjrn0k7SlpD0kTJAVD1AslbZa0SdLTblpvoWclz4aytXJbY+n8qsxukx+1xcfmhrgH0xBAAAEEEEAAgVgJ0MCKVTlJBgEEEEAAAQQGIuBaEKyrnbF3zoLqlMKMK3WUyY4089e6a/eBrDEKY/ok3Rea35u24Hfy4M8e7lg3pevBJ00LCk0wPggggAACCCCAQGIEaGAlptQkigACCCCAAAK9R914QLij8r2Sn26yqZIqJKUiIlN47LDfpI0uWxiGue/XLG2+3ySPSPyEiQACCCCAAAIIDFmABtaQ6ZiIAAIIIIAAAuUs4HLrrVv0Kg/z7wyC4PXumiHTvuUc86Bjcz1hpgddujvnvujargc6F3B31qAZmYAAAggggAAC5S9AA6v8a0SECCCAAAIIIDBAgfUzWnbrq7Q5qVRwouQNcjtwgFPjMcx8tWTtQRj+fEvgSw7qaC6cs8UHAQQQQAABBBCIvAANrMiXkAQQQAABBBBItsDK6bdV7bnHtok73M812Uck7XwLIB/Pyez7HqQu2/pU5fqDV51QOFOLDwIIIIAAAgggEEkBGliRLBtBI4AAAggggMDq2Yv2rArCT5jU7FLhTquonGU1ysXzvEurLdQtYWVwxdR7G54c5QDYDgEEEEAAAQQQGLYADaxhE7IAAggggAACCIyWwNqjW8amtgcnyOwUyU+WbPxo7R2LfUzb5fqZ3G/s22Pvnx24+NjtsciLJBBAAAEEEEAg9gI0sGJfYhJEAAEEEEAg+gJPH3HrXs+m+94YmH9Rsv2jn1EZZGDqDsP8x1LSb6u7mjeUQUSEgAACCCCAAAIIvKQADSwuDgQQQAABBBAoW4El9VdXVId7X2YWnCX5XmUbaIQDM2mTu//gqenhJw5b2LwjwqkQOgIIIIAAAgjEWIAGVoyLS2oIIIAAAghEVWBN7c2ZtOU/6R6+28wmRjWPiMX9pJluqEzr83vf09gdsdgJFwEEEEAAAQRiLkADK+YFJj0EEEAAAQSiJLB21i01QdB/hln4n5JNiFLssYnV/Vk3+5JZxbWZjnesiU1eJIIAAggggAACkRaggRXp8hE8AggggAAC8RBwLQh6aw//sMy+Go+M4pGF5/0jmfsbv2myMB4ZkQUCCCCAAAIIRFWABlZUK0fcCCCAAAIIxEDA5bautr3RzS+VbEYMUophCv6wQruseunyn5gW0MiKYYVJCQEEEEAAgSgI0MCKQpWIEQEEEEAAgRgK9M5um+uBLpR0kqQghinGJiWTQpf/Uq5PZ7qalsQmMRJBAAEEEEAAgcgI0MCKTKkIFAEEEEAAgXgIrJt5/fgwPf4cM13mrlQ8skpKFl5oZH0mlZvwhSnL3rIlKVmTJwIIIIAAAgiUXoAGVulrQAQIIIAAAggkRmDN7La56UCtkqZJ4ntINCvvMvVIdlqmo+HOaKZA1AgggAACCCAQNQG+OEatYsSLAAIIIIBABAX8+Nuqsuu2ft5MH5BsTARTIOR/FuiT+7X5MeHHp93dvA0gBBBAAAEEEECgmAI0sIqpy9oIIIAAAggkXMAlW1vbWl9httClAxLOEdf011o+aJpy/yn3meRxTZK8EEAAAQQQQKC0AjSwSuvP7ggggAACCMRaoLd+4XnuwVUSZ13FutBSXqZPZToar4x5nqSHAAIIIIAAAiUSoIFVIni2RQABBBBAIM4Ca49umZjqS90k6V94w2CcK/3C3DyU7DeyvtMyHe/6S1KyJk8EEEAAAQQQGB0BGlij48wuCCCAAAIIJEYgW9v2epl+9PxB7YnJm0SfEzAp667TMl2Nv8MEAQQQQAABBBAYKQEaWCMlyToIIIAAAggkXMDllp2z6EwL/bu8YTDhF4Pk7jon09Xw3ybjXKzEXw4AIIAAAgggMHwBGljDN2QFBBBAAAEEEi+w9uiWsantwY1mdoJLFYkHAaAgkJP81r4Jz5x24OIzt0OCAAIIIIAAAggMR4AG1nD0mIsAAggggAACeqy+rbrC/RqTnQgHAv8s4D+v8Ir3T+46KYsOAggggAACCCAwVAEaWEOVYx4CCCCAAAIIqHtm21RL61aTZsGBwEsJuPQnpVJvqbnv5LUoIYAAAggggAACQxGggTUUNeYggAACCCCAgLL1ra9SaHfJNBEOBHYpYNro/fljapY1P7zLsQxAAAEEEEAAAQT+QYAGFpcEAggggAACCAxaIFvX+hZ3u9FMew16MhMSK+DS02Hop09b2nRbYhFIHAEEEEAAAQSGJEADa0hsTEIAAQQQQCCZAi5Zb13rcZJukmyPZCqQ9XAETL5ZgZ86Zcn8X5jEGwqHg8lcBBBAAAEEEiRAAytBxSZVBBBAAAEEhiNQaF49MbPt1fm0/9ZklcNZi7mJF9iRzqXeNHnZyXfSxEr8tQAAAggggAACAxKggTUgJgYhgAACCCCAwNra1saU6UbJKtBAYPgC3m/mp1d3zF84/LVYAQEEEEAAAQTiLkADK+4VJj8EEEAAAQRGQCBb13aKpB9LGjsCy7EEAn8V2CqF7850zm+HBAEEEEAAAQQQeDkBGlhcHwgggAACCCDwst8VnjiyfWa+3++UaTeoEBh5Ad+SDvS6yUualvI44cjrsiICCCCAAAJxEaCBFZdKkgcCCCCAAAJFENhQ31bX7/47ycYXYXmWRGCngElbQtPrazoaOyFBAAEEEEAAAQReTIAGFtcFAggggAACCLyoQM+s1togbT93174QIVB8Ad8Qhqnjpi49ZWnx92IHBBBAAAEEEIiaAA2sqFWMeBFAAAEEEBgFgWz9DZPkVXdIOnwUtmMLBHYKmLRMnn9TdVfzBkgQQAABBBBAAIEXCtDA4npAAAEEEEAAgb8TWDn9tqrxe2ztkNth0CAw2gImf3DK5nF1tuqEvtHem/0QQAABBBBAoHwFaGCVb22IDAEEEEAAgVEXWDGjpXKvMcFNkp303A0xfBAYdQGXfFHWnjx1TsdZ/aO+OxsigAACCCCAQFkK8MW0LMtCUAgggAACCJRGoKd24flmwVWl2Z1dEfibgHt4QU3X/M9hggACCCCAAAIIFARoYHEdIIAAAggggMBOgZ7atjeZ6Xa+H3BBlImAy8K3ZjrmF65JPggggAACCCCQcAEaWAm/AEgfAQQQQACBgkC2/upx5pNWuVSNCALlImDydZbbOn3KsvdsKZeYiAMBBBBAAAEESiNAA6s07uyKAAIIIIBA2Qg8NXvRntssvFMmDm0vm6oQyAsEHugLg9cduPSUp1FBAAEEEEAAgeQK0MBKbu3JHAEEEEAAAbnc1tW1f9qlBXAgUK4C7n5Zpqtxgcm8XGMkLgQQQAABBBAorgANrOL6sjoCCCCAAAJlLdBT2/YOky+SWVDWgRJcwgU8NLN3VHc0/izhEKSPAAIIIIBAYgVoYCW29CSOAAIIIJB0gXUzrx/v6XFLXTY96RbkHwmBR4PcllmchxWJWhEkAggggAACIy5AA2vESVkQAQQQQACB8hdYMaOlcuKY9E9dfnz5R0uECDwv4H5bdXDAydYxpx8TBBBAAAEEEEiWAA2sZNWbbBFAAAEEENgpsK6u5V9CpX4liUcHuSYiJFB4lDD/puqOd94RoaAJFQEEEEAAAQRGQIAG1gggsgQCCCCAAAJREthQe3Om33IPSNorSnETKwI7BUwbK3P5mZPub+5BBAEEEEAAAQSSI0ADKzm1JlMEEEAAAQR2CmTrWq+W7ANwIBBhgasznY0fjHD8hI4AAggggAACgxSggTVIMIYjgAACCCAQZYF1de3/Esp/HeUciB0ByTzM979x6v08SsjVgAACCCCAQFIEaGAlpdLkiQACCCCQeIEl9VdXZHzS/ZIOTTwGANEXMK3I6i+1czrO4kD36FeTDBBAAAEEENilAA2sXRIxAAEEEEAAgXgI9NS3/Xvg+rpzcHs8CkoWoaSzM52N10CBAAIIIIAAAvEXoIEV/xqTIQIIIIAAAsrWt+ynMFgtM946yPUQHwH30NPpA2ruO3ltfJIiEwQQQAABBBB4MQEaWFwXCCCAAAIIJECge/bC/wqC4GMJSJUUEybg8i/UdDZ9MmFpky4CCCCAAAKJE6CBlbiSkzACCCCAQNIEsnWL6qXwLklVScudfBMh0BeGwVFTl56yNBHZkiQCCCCAAAIJFaCBldDCkzYCCCCAQHIEsnWtbZI1JCdjMk2cgKs109U4P3F5kzACCCCAAAIJEqCBlaBikyoCCCCAQPIEnjj8hn1zFVWPm3H3VfKqn6iM+1IV6f33veekJxKVNckigAACCCCQIAEaWAkqNqkigAACCCRLoGV+S+q1q4K7ZTY3WZmTbRIFXH7PXQeFr2le2JxPYv7kjAACCCCAQNwFaGDFvcLkhwACCCCQWIGeOa21QWj3uFSRWAQST5CA94cezJ3a1XB/gpImVQQQQAABBBIjQAMrMaUmUQQQQACBJAm43Hrr21vkakpS3uSabAGXbsp0Np5mkidbguwRQAABBBCInwANrPjVlIwQQAABBBDQE7Xts/LmXZL4Wc/1kCQBDyw1a0rHycuTlDS5IoAAAgggkAQBvtQmocrkiAACCCCQOIFsbetXZfYfiUuchBGQfTXT2fBRIBBAAAEEEEAgXgI0sOJVT7JBAAEEEEBADx1y8+4Txvc/KtlkOBBInoCvrxhbMX3yXSc9k7zcyRgBBBBAAIH4CtDAim9tyQwBBBBAIKEC3bULPxtYcGFC0ydtBAoPzl6e6Wj8FBQIIIAAAgggEB8BGljxqSWZIIAAAgggoLVHt4xN9aUekPQKOBBIsMCj+ar8EdPubt6WYANSRwABBBBAIFYCNLBiVU6SQQABBBBIukB3bfuslPl9LlUk3YL8kytgUr9Zvn5KRzOHuSf3MiBzBBBAAIGYCdDAillBSQcBBBBAILkCLrfeuvZbJL0tuQpkjsDzAu43V3c1nmIyxwQBBBBAAAEEoi9AAyv6NSQDBBBAAAEEdgqsr2uZnlPqERVOAOKDAAKeSmn6vvc1/hkKBBBAAAEEEIi+AF9wo19DMkAAAQQQQGCnQHdt69mB2TfhQACB5wXcz850NX0bDwQQQAABBBCIvgANrOjXkAwQQAABBBDYKZCtbb1DZvPgQACB5wRc/uuazqY34YEAAggggAAC0ReggRX9GpIBAggggAACWjurpSaVSnVDgQACfy+QG7ujZr+7TsviggACCCCAAALRFqCBFe36ET0CCCCAAAI7BXpqWy81s0/DgQACfy9g7pdUdzVdhgsCCCCAAAIIRFuABla060f0CCCAAAIIPNfAqmv9o8leDQcCCPxDA0v6Y3Vn49G4IIAAAggggEC0BWhgRbt+RI8AAggggIB8fkuq99HUU5J2hwMBBP5RwDdXHxROtIXNeWwQQAABBBBAILoCNLCiWzsiRwABBBBAYKdAd21bU2BaCAcCCLy4QF5qmNbZuAgfBBBAAAEEEIiuAA2s6NaOyBFAAAEEENgpkK1tu1emuXAggMCLC7j8nprOpqPwQQABBBBAAIHoCtDAim7tiBwBBBBAAAH11rZMdkv1SkrBgQACLy5gspzb9upMx7v+ghECCCCAAAIIRFOABlY060bUCCCAAAII7BRYV9/66tDtbkn8TOeaQOClBdzy+aOq72++FyQEEEAAAQQQiKYAX3ajWTeiRgABBBBAYKdAd23ruYHZl+BAAIFdCJidk+lo+BpOCCCAAAIIIBBNARpY0awbUSOAAAIIILBTIFvbdrtMb4YDAQReXsBdv6zpanwrTggggAACCCAQTQEaWNGsG1EjgAACCCCgFTNaKieOCZ51WQUcCCCwKwHvr7YDxlvHnP5djeTXEUAAAQQQQKD8BGhglV9NiAgBBBBAAIEBCWTr218r998PaDCDEEBAngpfU3Pf/D9AgQACCCCAAALRE6CBFb2aETECCCCAAAI7BXrr289z9y/AgQACAxMw13nVXY2cGTcwLkYhgAACCCBQVgI0sMqqHASDAAIIIIDAwAWyda0/lOyMgc9gJAKJF/hhprPxPYlXAAABBBBAAIEICtDAimDRCBkBBBBAAIGCQE9t611mdgwaCCAwUAG7M9PZ8LqBjmYcAggggAACCJSPAA2s8qkFkSCAAAIIIDAogd66tqxL1YOaxGAEEizgUrams7EmwQSkjgACCCCAQGQFaGBFtnQEjgACCCCQZIHuI9v3DnK+QRI/y5N8IZD7YAU8X5WfNO3u5o2Dnch4BBBAAAEEECitAF96S+vP7ggggAACCAxJoHt2+/wg8JYhTWYSAgkWyMsap3U2tCeYgNQRQAABBBCIpAANrEiWjaARQAABBJIu0Fvf9jV3fSTpDuSPwBAEvpLpbPzYEOYxBQEEEEAAAQRKKEADq4T4bI0AAggggMBQBXrq2n5v0muHOp95CCRVwFy/re5qnJfU/MkbAQQQQACBqArQwIpq5YgbAQQQQCCxAj7vjnTv5o0rJR2QWAQSR2CIAmZa/dDuy1957OIFuSEuwTQEEEAAAQQQKIEADawSoLMlAggggAACwxF46JDv7T5h/B6PSDZlOOswF4EkCpjUm9qef+U+DzY/m8T8yRkBBBBAAIGoCtDAimrliBsBBBBAILECvbUtk0NLPWLSnolFIHEEhi7w1BbPH3JwV3PhLZ58EEAAAQQQQCAiAjSwIlIowkQAAQQQQOCvAj1zfzrN8vmHJY1FBQEEBivg2zzVf0jNfaetHexMxiOAAAIIIIBA6QRoYJXOnp0RQAABBBAYksCa+kUHVXj4kEvpIS3AJASSLZBLpXTIvvc1/jnZDGSPAAIIIIBAtARoYEWrXkSLAAIIIICA1tX/9IjQ88ugQACBoQnkgv4j9lty6gNDm80sBBBAAAEEECiFAA2sUqizJwIIIIAAAsMQyM5teavyqZ8PYwmmIpBsAQvfkumYf3uyEcgeAQQQQACBaAnQwIpWvYgWAQQQQAAB9dQvfL958B0oEEBgaAIu+9eazobrhjabWQgggAACCCBQCgEaWKVQZ08EEEAAAQSGIdAzp22BhbpkGEswFYFEC5jp09UdjZ9JNALJI4AAAgggEDEBGlgRKxjhIoAAAggg0FPb+lUz+w8kEEBgqAL25Uxnw7lDnc08BBBAAAEEEBh9ARpYo2/OjggggAACCAxLIFvXdrWkDwxrESYjkGQBt29nuhrOTjIBuSOAAAIIIBA1ARpYUasY8SKAAAIIJF4gW9t2vUzvTjwEAAgMVcDtB5muhvcOdTrzEEAAAQQQQGD0BWhgjb45OyKAAAIIIDAsgWx920K5moa1CJMRSLKAa2Gmq7E5yQTkjgACCCCAQNQEaGBFrWLEiwACCCCQeIFsXdutkt6WeAgAEBiiQCj9bGpn44lDnM40BBBAAAEEECiBAA2sEqCzJQIIIIAAAsMRyNa1/lKy44azBnMRSLaA357pbHpLsg3IHgEEEEAAgWgJ0MCKVr2IFgEEEEAAAfXUtt1spndAgQACQxNw95truppOHtpsZiGAAAIIIIBAKQRoYJVCnT0RQAABBBAYhkBPXetPTPbOYSzBVAQSLeBmN9Z0NLwr0QgkjwACCCCAQMQEaGBFrGCEiwACCCCAQG9d27UunYkEAggMTcDdr63panrf0GYzCwEEEEAAAQRKIUADqxTq7IkAAggggMAwBLK1rd+U2dnDWIKpCCRawGXfqOls+HCiEUgeAQQQQACBiAnQwIpYwQgXAQQQQACBnrrWL5jsPCQQQGBoAiZ9vrqz8fyhzWYWAggggAACCJRCgAZWKdTZEwEEEEAAgWEI9NQvPM88+MIwlmAqAgkXsHMznQ1fTjgC6SOAAAIIIBApARpYkSoXwSKAAAIIICCtq2t7Zyj9BAsEEBiaQBiGzVOXzl84tNnMQgABBBBAAIFSCNDAKoU6eyKAAAIIIDAMgZ45ba+xUHcOYwmmIpBogdDzx0ztar470QgkjwACCCCAQMQEaGBFrGCEiwACCCCAwIZZ7a/sT/lDkvg5zuWAwOAFwjBvh069v+GRwU9lBgIIIIAAAgiUSoAvvqWSZ18EEEAAAQSGKNA7e9EBHoQPS6oc4hJMQyCxAi7tCMLgkOqlpzyWWAQSRwABBBBAIIICNLAiWDRCRgABBBBItsCa2hszaassNLB2S7YE2SMwJIFnK0yvnNzR2Duk2UxCAAEEEEAAgZII0MAqCTubIoAAAgggMHSBp4+4da+tFTsekXzS0FdhJgKJFfhLf3/VK/dffuJTiRUgcQQQQAABBCIoQAMrgkUjZAQQQACBZAusPbplbNAXrDRZTbIlyB6BIQi4uvNj8q+cdnfztiHMZgoCCCCAAAIIlEiABlaJ4NkWAQQQQACBoQq43LK1bQ+b2cFDXYN5CCRVwN0fyXQ1vspknlQD8kYAAQQQQCCKAjSwolg1YkYAAQQQSLxAtr71p3I7KfEQACAwaAFvz3Q2NQ56GhMQQAABBBBAoKQCNLBKys/mCCCAAAIIDE2gu671okB2+dBmMwuBBAu4X5jparoqwQKkjgACCCCAQCQFaGBFsmwEjQACCCCQdIHu2pajA0v9IekO5I/AYAXyQfDqaUtOuXew8xiPAAIIIIAAAqUVoIFVWn92RwABBBBAYEgCPu+OdO/mjc9IGjOkBZiEQDIFtlVPmDjBFh+bS2b6ZI0AAggggEB0BWhgRbd2RI4AAgggkHCBbF37Q5IfknAG0kdgMAIPZTobDx3MBMYigAACCCCAQHkI0MAqjzoQBQIIIIAAAoMWyNa1/VzSWwc9kQkIJFTAXLdVdzW+LaHpkzYCCCCAAAKRFqCBFenyETwCCCCAQJIFeupav26yDyfZgNwRGIyAmb5e3dH4H4OZw1gEEEAAAQQQKA8BGljlUQeiQAABBBBAYNAC2dq2d8t0/aAnMgGBxArYGZnOhh8nNn0SRwABBBBAIMICNLAiXDxCRwABBBBItsD6upbpOaVWJluB7BEYuEDO+qfv13HqowOfwUgEEEAAAQQQKBcBGljlUgniQAABBBBAYAgCvXVtPS5lhjCVKQgkTWBtprNxv6QlTb4IIIAAAgjERYAGVlwqSR4IIIAAAokUyNa3fVeu9yUyeZJGYHACV2c6Gz84uCmMRgABBBBAAIFyEaCBVS6VIA4EEEAAAQSGINBd19ocyG4awlSmIJAsAfemTFdTW7KSJlsEEEAAAQTiI0ADKz61JBMEEEAAgQQKZOvaD5X8AUlBAtMnZQQGKhDK/LBMR9NDA53AOAQQQAABBBAoLwEaWOVVD6JBAAEEEEBgUAKr5103pmrz7k9JNmZQExmMQKIEfHv15nF72qoT+hKVNskigAACCCAQIwEaWDEqJqkggAACCCRToLuu9bpA9t5kZk/WCAxAwPzbmY6mswcwkiEIIIAAAgggUKYCNLDKtDCEhQACCCCAwK4EVk6/rWq3PbYdE7rfZLLJuxrPryOQWAHTnRamzprSddKfTOaJdSBxBBBAAAEEIixAAyvCxSN0BBBAAIHkCmys/9Ue233zrSYd7VIquRJkjsCABXZIuo43EQ7Yi4EIIIAAAgiUlQANrLIqB8EggAACCCDw8gLZ+hsmKay8zMze7dJueCGAwKAFHpf5l5/aFn7rsAebC00tPggggAACCCAQAQEaWBEoEiEigAACCCDgx99W1dO77bQg0OWSahBBAIHhCZh0t0wXTeloWMxjhcOzZDYCCCCAAAKjIUADazSU2QMBBBBAAIEhCrg8WDer7VBP6beS7T3EZZiGAAIvJeD6lSl/enVX818kcT4WVwoCCCCAAAJlKkADq0wLQ1gIIIAAAggUHhd0r7rWXMfJVIUIAggUScC10QL9eMrbl3/UFiwIi7QLyyKAAAIIIIDAMARoYA0Dj6kIIIAAAggUQyBbf8sk8x0fdukTksYVYw/WRACBFxFwX+2yKzLPjP2RrTqhDyMEEEAAAQQQKB8BGljlUwsiQQABBBBIuMDK6V+rGjchc5y5fUemfRPOQfoIlE7A/b5cPvev1y576MEF4o6s0hWCnRFAAAEEEPibAA0srgYEEEAAAQTKQGBt/U+PSHlukaQDJQvKICRCQCDRAi7tMIW/yff56dNWNG9MNAbJI4AAAgggUAYCNLDKoAiEgAACCCCQXIHumW1Tg5Rd7ha+02RjkitB5giUrcA6U3j1QxMmXX7s4mNzZRslgSGAAAKwo0HFAAAgAElEQVQIIBBzARpYMS8w6SGAAAIIlKdA95Htewf58HRzfdFlFeUZJVEhgMALBNYG8g/tu3nc7ZyPxXWBAAIIIIDA6AvQwBp9c3ZEAAEEEEi4QM/sttdYoJsl7Z1wCtJHIHICLr/f01veOPXe//dk5IInYAQQQAABBCIsQAMrwsUjdAQQQACBaAk8Nqu1tiqlr7rsGEmpaEVPtAgg8AKBLXK1B3k7b8qyhvXIIIAAAggggEDxBWhgFd+YHRBAAAEEEi6w85yrtJ/rbv9upqqEc5A+ArERMKlX8iue3TzuuwevOqEvNomRCAIIIIAAAmUoQAOrDItCSAgggAAC8RDI1t8yLgx3NAam6+OREVkggMCLC/iGQPaOfSdMXGIc9M5FggACCCCAQFEEaGAVhZVFEUAAAQSSLrB2zsJ5qdC+LdkrJfHzNukXBPknQWCH5HcFueBUHitMQrnJEQEEEEBgtAX4Qj3a4uyHAAIIIBBrge7a9llmfkkgvcM55yrWtSY5BF5CYKvLv9lv9l8HdDT2ooQAAggggAACIyNAA2tkHFkFAQQQQCDhAutmtu/jaT/b5RdJVpFwDtJHYPQFvLzudSycj5U3O6d/9023HLj4zO2jD8KOCCCAAAIIxEuABla86kk2CCCAAAIlEOiZ03qahXatpDEl2J4tEUCgfAXc5Oty0lundTYtK98wiQwBBBBAAIHyF6CBVf41IkIEEEAAgTIUcMnWzVn0BoXhZ106qrzu/ShDMEJCINECvl1ut1SG+Y9Nur+5J9EUJI8AAggggMAQBWhgDRGOaQgggAACyRXI1re+ytw+6dJ7aVwl9zogcwQGL+A7XPap1Bj7/pQ/NKwf/HxmIIAAAgggkFwBGljJrT2ZI4AAAggMUiBbf8s4D/s/YkF4hdxSg5zOcAQQQOB5Ad8QKjh15YS9fnfs4mNzsCCAAAIIIIDArgVoYO3aiBEIIIAAAggoO3vh6R4EV5i0H3ddcUEggMAICOQlLXXTB2o6GjtHYD2WQAABBBBAINYCNLBiXV6SQwABBBAYjoDLLTun/Ri5LjHXm4ezFnMRQACBFxUwbQ9dP1BOl09d1tiNEgIIIIAAAgi8uAANLK4MBBBAAAEEXkRgQ+3NmR3Wf6HJPgwQAgggMAoCbuYfqlJ4w8SO5k2jsB9bIIAAAgggECkBGliRKhfBIoAAAggUW8Dn3ZHu2fT0BYGFn5S0e7H3Y30EEEDgBQLurh4P9MGpHY0/QwYBBBBAAAEE/iZAA4urAQEEEEAAgecF1tW2nxoGOl+uWZLzM5IrAwEESiWQl/x2C+2S6qWN95UqCPZFAAEEEECgnAT4cl5O1SAWBBBAAIFRF3AtCLKzDp9lKV0h2fGjHgAbIoAAAi8tsEOmr+fC9H/t13VSFigEEEAAAQSSLEADK8nVJ3cEEEAg4QIrZrRUThyb+oq7zk44BekjgECZC5h05pTO5debFoRlHirhIYAAAgggUBQBGlhFYWVRBBBAAIFyFig0rvYck/qopHNMypRzrMSGAAIIPC/gLl+Wkl+8b+f8n5nkyCCAAAIIIJAkARpYSao2uSKAAAIIqLe+7W2h62KTjoIDAQQQiJqASaFLN6bcvrBvV8P9UYufeBFAAAEEEBiqAA2socoxDwEEEEAgMgILtCD4t7mzayyX+47M3hKZwAkUAQQQeAkBk3J56fP5/u1f3H/56U8BhQACCCCAQNwFaGDFvcLkhwACCCRcwOuXVPTqsS9KdqZcuyecg/QRQCBeAoXHCDeY7ILqzobr4pUa2SCAAAIIIPD3AjSwuCIQQAABBGIpsPqA68aM2XP393lg50p6RSyTJCkEEEDgbwK/kwVXVHec/CuTcT4WVwYCCCCAQOwEaGDFrqQkhAACCCRbwOXWU7vwqECpL8j0mmRrkD0CCCRNwKXrUrmKz0xZ9o7VScudfBFAAAEE4i1AAyve9SU7BBBAIFEC62ZeP95T425207GSBYlKnmQRQACB5wVcvsOlL9QcFF5iC5vzwCCAAAIIIBAHARpYcagiOSCAAAIJF1h7dMvYVF9wkWRnSZqUcA7SRwABBAoChccIHzYPr6zumn89JAgggAACCERdgAZW1CtI/AgggECCBVbPu2PMmE0bTnRLXSXpoARTkDoCCCDwMgJ+u4d+aWbpij+aFoRQIYAAAgggEEUBGlhRrBoxI4AAAgkXKJxztX5u+4G5vH5s0lEJ5yhO+oV7N/iWUBxbVkWgVAKu71Y9s+3je686Y3OpQmBfBBBAAAEEhirAV9OhyjEPAQQQQKAkAhvrf7XHdt/0PcneKml8SYJgUwQQQCC6Autd+mbG9v+sdczpj24aRI4AAgggkDQBGlhJqzj5IoAAAhEVuH/m9eP3qRj/QYX6hJv2jWgahI0AAgiUiYB1yMMrM11NbWUSEGEggAACCCDwsgI0sLhAEEAAAQTKWsBntFT2jtWR8uDHku1X1sESHAIIIBA9gV94kP5oZknXSs7Hil7xiBgBBBBIkgANrCRVm1wRQACBiAmsec2NmfTWyhYzHeVSKmLhEy4CCCAQCQGX+kz+g+oJe3/IFh+bi0TQBIkAAgggkDgBGliJKzkJI4AAAuUv8HD9DZN2V+Vn5HqXZBPKP+JYR1g4zn2xmb7k0oVyvSbW2ZLcqAq49Ed5/ruBpS5zKTOqm7PZiwmskflXqzeN+4atOqEPIgQQQAABBMpJgAZWOVWDWBBAAIGEC2Trbxnn4Y7TzPxKySYnnKPk6bu00hR+6ZrOFd9ZoAVhz+E/nRZU5m91aWbJgyOA6AuYVnjfjuNrHjht7crpt1WN32PrZ+X2HkmTop9c1DOwjsDz5+/b1fQbkxWa2HwQQAABBBAouQANrJKXgAAQQAABBBZoQfCBupmHSOFiyfZBpOQCO9z05bs68hc1qzn/wmhWzGip3GtMeqnkh5Y8SgKIroDpkae25Y847MHmHS9MYu1hLRODqtRCk+ZJCqKbYEwid93Vn6t6+/7LT3xaEo2smJSVNBBAAIGoCtDAimrliBsBBBCIicATc9tekc/ra5IfJ1lFTNKKcho/DtN2Wc29p6x8sTsvXG69dW2tkjVEOUliL7nAb6s7G/7FZOE/RnLHvAXpgzfNmGsWfMNktSWPlACekvsPq6eM+6T9nMcKuRwQQAABBEonQAOrdPbsjAACCCRaYNXM9n3GpvP/brKPcc5VyS8Fd+mewHR5dUfjz14umtWzbzygKqhcJmn3kkdNAJEVcN95aPhrM11NS14qidXz7hhTufnJ95vsAkk1kU02JoGbabXCcMGUPSa12OJjt8ckLdJAAAEEEIiQAA2sCBWLUBFAAIE4CBTOuhkzYdsJKfPvym1iHHKKdg6+IbTg01M7Gr69qzyW1F9dkfFJf5RUt6ux/DoCuxIw13oPKg/MdLx96y7GWra+7RpJ75TTON2V6yj8eldK/t59OhuXcz7WKGizBQIIIIDA/wnQwOJiQAABBBAYNYE1c9oPT7m3mesgSalR25iN/knApJybrurfUfVf+y8/8amBEPXUtb7dZP8zkLGMQWAgAh7o/TVLGr+3q7GFR1fXz20/MJe3b9nOx435lFhgu2S/6+/fdur+y08f0J8fJY6X7RFAAAEEYiBAAysGRSQFBBBAoNwF1tT/5KB0mP6Umb3LJc65KnnBvM3NPpvpaOyyAR7MXHhDpHxHh6RXlTx8AoiTwLrUjr7Z+z7wricGkpTPb0k98WhwQl52qUmcjzUQtOKOWe/St8wqPz+AO+mKGwmrI4AAAgjEXoAGVuxLTIIIIIBA6QTWHt0yMdgWnGaBfU7S+NJFws6SQskfknRuprPpl4MV6alrW2DSJYOdx3gEBiBwTaaz8awBjPu/IYXHWat9748+d4aeqgczl7HFEPA1eQVn5SZsWnzg4jM5H6sYxKyJAAIIICAaWFwECCCAAAJFEXiitu1NedNCSXsWZQMWHbCASfm8+4druh64xrTgn976tquFXAuC3rojCnfITNrVWH4dgcEL+PZtFk45qKN502DnFu7Iyj5qPzAFpw92LuNHWsDcFC7P57a/beqyM7pHenXWQwABBBBAgAYW1wACCCCAwIgK9MxqrbWUfcWko3lccERph7LYDpd/zSz8eqajec1QFig0r9bVHf5Tl719KPOZg8AABTqrt+ePtgebdwxw/P8NK5yP1VvbVu+mK0zG+ViDBRzx8f6s5Dfv7uM/tnvXCRtGfHkWRAABBBBIrAANrMSWnsQRQACBkRVYPfvGAyqCynMC84/IjQPaR5Z3kKuZy8JfhWGwYGpXw92DnPx3w9fM/sncdFDxB0np4azDXAReTqBwl6DL3zaUx1v/uu5zdwoe/i5JF0o2A/GSC6w3+Wcst/W6Kcves6Xk0RAAAggggEDkBWhgRb6EJIAAAgiUVmDt0S1jbbuaAksVXnM/prTRJH53l2l9GIanT+2a/+vhatwxb0H6kGeOuEuuI4e7FvMR2KWAq7tvj4kHH7j42GGdodSiltRr64ILJDtf0u673JcBxRVwPSHLv616wuT7bfGxueJuxuoIIIAAAnEWoIEV5+qSGwIIIFBkgezc9rcq9K/K9coib8XyuxYoPHp1fl8YfP/Apac8vevhux7RW9d+psuv3fVIRiAwUgJ+caaz6YrhrlZ4rLB71sJMOp36rLveM9z1mD9sgZzkvw9y4fumLGtePezVWAABBBBAIJECNLASWXaSRgABBIYnUDjnKkgFF7i8gUfLhmc53Nnu6pP8R6GFV03rbF413PX+On/l8bdVjX9i+/2SHzJSa7IOArsW8HXm4czqruYROzupd86ieZ73S2T+BokXGO26BkUcYXrG3L8dVFR8ad97Tiq8GIIPAggggAACAxaggTVgKgYigAACCKyb2b5PPhV+yKSLZRYgUlIBl9SRCsNz9l06v3BG1Yh9dh6KXb/oi3I/d8QWZSEEBipgWlTdsbxpKG/MfLktempb/9Vkl8o0daChMK5oAk/K9B/5yvyiaXc3byvaLiyMAAIIIBArARpYsSonySCAAALFE+ipXXSaWfgtSXsUbxdWHqDAllRgp+zj+y22jjn9A5wz4GHZ+hsmmVetcmo9YDMGjqhA345c/tADivCoWbb+lnGhdpwbuBZI4mUTI1q2QS8WSt7Tn9fx+9/ftGLQs5mAAAIIIJA4ARpYiSs5CSOAAAIDFyjcibN2VuubK1LBpS4dNfCZjCyOgG932VWpnH1ryrKG9cXYY4EWBB+oPbxdZicVY33WRGBgAt7VN+GZYw5cfOawDnR/sb0Kf66tm9U2w9O6SG6nDSweRhVLwOT9UrAoF4YXT1vatLJY+7AuAggggED0BWhgRb+GZIAAAggURSBb95ND3So+bq73cqdCUYgHvKhr5zlXt4cKzx3Jc65eLIBs/cLj5MEvBxwcAxEokkBe4RnTOuf/uEjL71z2+ev9sybVusRj0cXE3vXaW83CyxT6tSN5Btqut2UEAggggEBUBGhgRaVSxIkAAgiMksCKGS2Ve1WlLpbpU6O0Jdu8hIDJ3D1cY6lUc/WSU+4tNlTh7qt/qzviDya9uth7sT4CAxBYWz1h4its8bG5AYwd1pCe2rb3mfnXJRs7rIWYPBICz0rh/7uz029uVnN+JBZkDQQQQACBeAjQwIpHHckCAQQQGBGBnrr2M83DT8nsAN7WNSKkw1jEnjaFZ6W3VPx88sMnPTOMhQY8NTu79RwF9pUBT2AgAkUX8C9nOptG5WUCG+rbqvtDnS3zCySrKHpqbPByAoWm5f0Vyp81ubO5AyoEEEAAAQQKAjSwuA4QQACBhAsU7rp535xZr0+H+Ytd9saEc5RD+lvd/bs7+sIrD3ywed1oBeTz7kj3bt64StL+o7Un+yAwAIEN/eO2H7L/nac/NYCxIzIkW9s6x80+ZdI7RmRBFhmOQE7y6/Kq+Py0zpMKfz7xQQABBBBIsAANrAQXn9QRQACBDbU3Z3YEuUvN9a/i/JeSXhAm9buHXVLQnOlqfHw0gykcap2ta/+aSR8ezX3ZC4GBCfjt1QeFJ9jC0X2c7InZ7W/OB36NSftxPtbAKlXEUdvl9rEtlVtvOPieMzYXcR+WRgABBBAoYwEaWGVcHEJDAAEEiimQrWu7wqQPubRHMfdh7YEI+FrJT394woq7j128oOjn/fxjRL2zWg/zlJZJxiHWAykXY0ZdwMPwNTVL5/9htDdeN/P68WFq3LvN9DXnscLR5v/n/UzdebdzpnU2tJc+GCJAAAEEEBhtARpYoy3OfggggEAJBXYe0j3n8HcqtAtMmlnCUNj6OYEnTb6gysIfTuxo3lQKFJest66tTdIppdifPREYoMB91dvzr7UHm3cMcPyIDsvWtu3v5p8wt/fLVDWii7PYYAVyLv260vSfkzsaOwc7mfEIIIAAAtEVoIEV3doROQIIIDBgAdeCoKd25hGBwitldvyAJzKwWAJbzdSaq8x/bNrdzRuLtclA1s3WtRUaV9zNMBAsxpRUwE0fqulo/GYpg+ipb6sz969I9lrOki1lJSS5hwqCr4Rp//LUexq7SxwN2yOAAAIIjIIADaxRQGYLBBBAoJQCqw+4bkzlXhO+bqb38ReuUlbiub1NetTG2DFT/tCwvvTRSD11rZ0mqy2HWIgBgV0IrM10Nu5XBkqWrW17nUw/lzSuDOJJegg7XOEHazrnX5d0CPJHAAEE4i5AAyvuFSY/BBBIrECLWlKvnW3nKwg+KGlaYiHKJHGT/pzL58+bmn7FrdYxp78cwuqpXXi+WXBlzBubYeHLTtwP4TYp9OcuqnifY+b6bnVXwwdM9ny6pfudtPawlolBVfA+ky6TbEzpImHn5/51wJcqr0urlzbdbDt/y/NBAAEEEIibAA2suFWUfBBAIPECLfNbUq/7c+qtoWuBSXMSD1J6gCcl//aWiu2fL6e3Z/358Bv2raqsesikPUtPVMQIPLwyP8a/WNmXPj5vfpxcR0g6JAZ3zmx16WGTP5CX3TnGd9yaDypPCF3XxLwhuSWt/Ox9OptXFfGqGdTSq2cvOmCMhVe56SRJNLIGpTfSgz3vUluqP7x8yvLm5SO9OushgAACCJRWgAZWaf3ZHQEEEBgxAZfbEzMXTc6nwx+a7LgRW5iFhijg/S77xXbLv/ugEh3Q/lKBF66VbF3b10z24SEmF5Vpf8p0Ns74x2B9gQdP/M/CeaGn3iXTcS7tLmmsqUwP5zZtd9d2Sc+Y9DtJbVn7y61zOs76pzv5snXtv5P8dVEp0BDj/NmdB+VPal7YnB/i/KJM665tnxWY/+T5BinfsYuiPOBF3V2f31q57bPl9A8HA46egQgggAACLyrAD1cuDAQQQCAGAoVXvefT468y6b2SdotBSpFOwaQHcvLTp07Y+0FbfGyu3JLpmf3TYyzIFxohqXKLbWTj8XdnOpt+9HJrrpjRUrnX2LETUsGOCbn+cIos9Toznyf3I2U2cWTjGeBq7hvd7F5Jd7jnf1+RTj2RDys3V6t6064eP+2pbXuTmX41wJ0iOywI7eQpSxtuLrcEsvW3jPOg742W1w8l26Pc4ktYPIXHCNeF0qVTOxuvTljupIsAAgjEUoAGVizLSlIIIJAUgSX1V1fUhHu/380+LumgpORdxnk+7mF4eW9q4w9e7O6Ycom7t67tVpfeVi7xFCmO/62eMPH44TQQn5q9aM/tZpnQwxpXmLHA9pVpornvJbO9zG2iy/eSVGnyMe5WISkte/4xsufumsqZeX8obTNZv8mfcrON8p3/+5RcGz30J8ysJ1Aqu909e+DSU54eqolLlq1rvdZkhWZ2nD8d1RMmHjWc+hYTZ2Vty+TxlvqopMJ/HPReTOyBrf1bya6q7jzll+VwftrAQmYUAggggMA/CtDA4ppAAAEEIijg81tSPat0ZKDgmzKbHcEUYhaybzLXDR5UnZfpePvWck6ut6612WU3lXOMIxBbPuVWv29Xw/0jsFbkllhTv+igtIcrVK6PRI6QqEvn13Q2fn6ElivKMt0z26YGKf+hmx1dto+oFiXzclzUQ1nwo6A/vWDKsnesLscIiQkBBBBA4OUFaGBxhSCAAAIREyjcdZXxSbdIeuPOuz34lFjAb5ftOD3T8a6/lDiQXW7v9Usqsv74gyZN3+XgCA9w+U2ZzsbTknynRU9dW+ElDpdEuIwDCN3XVW8ed4CtOqFvAINLNsS1IFg3+4h6N7XLNLVkgbDxXwX6ZP7lTEfThZAggAACCERLgAZWtOpFtAggkGCBla/+0YTx/WPPl/Tvivub46JQZ/OlbsEnM75hsb3IYdrlmEJP7cLzzYIrY/2WOld3kN/yqinL3rOlHGswWjEV7tLMPhqsMFnhjYvx/bj/INPVFInHJTe85ubd8335+WHon5M0Kb5FKf/MCs3tUOEjkn8u09n0/SQ3u8u/WkSIAAII/E2ABhZXAwIIIFDmAj6jpbJ3TPpEV3iVyQ4u83BjH55LPYHZV37fkftys8rrLWgvh7+m/icHpb1iZaybVzsB/OJMZ9MVsb8QB5Bgb33r/3O36+Je81yoI/db2njfAEjKYkj2lTdM0m6VV0h2BudjlUVJfhl6/tKargfvMS0IyyIigkAAAQQQeFEBGlhcGAgggECZCrjcuusWHpT24KdudliZhpmYsEzql/wnz24e928Hl/kjSy9WlGxdW+EtXB+Ic8FM+tOUzobDuJvib1XuqWv7lUlvinPd5X5bdVfjiVGre29ty2S3YLGZHeIe9zeClv0V6HK/fkwQnjOxo3lT2UdLgAgggEBCBWhgJbTwpI0AAuUtsH5Gy265qtR1Mr1V0m7lHW0iovuFpfy86vuaCgdjR+7TO+vmY5XK/dKlwlvyYvsJZG+f0tlwa2wTHEJiPXMXHmP54K4hTI3SFJfCd2c65/84SkEXYvX6qyt6ffIbJf+WpAOiFn8M413vCr+V6VxxGXdjxbC6pIQAApEXoIEV+RKSAAIIxElgY33LHn2e/oDL/5NzrkpfWZcvl+vK3uDJ1jkROefqxdSydW2/lfT60osWMQL3xdXBk8dF5TyyIkr83dKFOzmzdW3XmiwS50QN2cW1orpr+cyoNh0K52P1b8t9RPKPSjZ5yA5MHBkB1wpLacGUE5e32wIeKxwZVFZBAAEEhi9AA2v4hqyAAAIIDFug8GbBfXziUSkPrjfjX+GHDTrcBVwbzfS1KZ0Nl0XtsaR/TD07+6aTFaQXDZekvOf7s9srdkx/xT3veqK84yxNdM83Rx6VFPPGSHhRdWfTlVH+Pbt69qI9K4Pw2yadJGlMaa4Ydv2rgJktVt7OnLL0/jVRbY5STQQQQCBOAjSw4lRNckEAgUgKrKlfdFDawxaTZrk4B6XURQykH7vnPzalq/kvJnmp4xnO/tn6WyZ5uOMRM+01nHXKfa5J103pbHhflBsXxTburm37VGC6rNj7lHj9LZ5KHVpz38lrSxzHsLYvvEFy/Z/DA3Jh+n/MbMawFmPySAhsk9Qqq/xgpuPtW0diQdZAAAEEEBiaAA2sobkxCwEEEBi2wNqjWyamtgeXy3S6ZBOGvSALDEPAXPJfp80u3aej4c5hLFRWU7O1bRfruaZFnH/eP7bN8rMP4uDll732vH5JRa8ev0eu2rK6SEc4GJNfW93Z9L4RXrYky+2sma9ullKfkvyQkgTBpi8UeDx0/1rNHnt/zRYfm4MGAQQQQGD0BeL8hXb0NdkRAQQQGIDAylf/aMLuO8Y1heZfkbT7AKYwpLgCK0Pps3/ozP+wWc354m41eqtn69oPlcLlkqVGb9fR38nlH67pbPrG6O8cvR27a1uaAkstjF7kg4vY3OZVdzUUzn2LxWfdzF+Oz6WfuSKQnS5pUiySinASZr4iDO2jmen5O2xhfH5mRLgkhI4AAgkSoIGVoGKTKgIIlF5g7aGtBwdjbbFJmdJHk/gIPPTwkqld8z8TR4meurYbTTo1jrn9X07uq6u7HpjO2TQDr3JvXduvXfqXgc+I3kiXflPT2fjG6EX+8hGvmNey216bgpvMguMLh/PHLb/o5eN/qJ6w9xu4Gyt6lSNiBBCIrgA//KJbOyJHAIEICXQf2f7KIBd+xcyOc+ecq9KWbufjgjfkQ7906tLGVXE8N6l77sI3Bnn7uWQVpbUu3u4m9YdhOK9m6fw/FG+X+K3cW9sywy3VEfMDwsNQet/Uzsbvx62CPu+OdM+mDXMDBd+U2ey45Re9fHyTSz+qHFtx4eS7TnomevETMQIIIBAtARpY0aoX0SKAQMQECodo58O+j6RMhVejc85VaetXOJD97sDDT0/pmv/r0oZSvN1Xz7tuzJjNu3e4Yn74s+tX2eAvb5vTcVZ/8TTjt3Lhzp1sXfv3TDozftn9LSN3dVf05Q/d58HmZ+OYZ4taUq+rDz7gbh+XdFAcc4xUTu6rTcGCKX25n9iDzTsiFTvBIoAAAhESoIEVoWIRKgIIREdg5fTbqsbv0Xe8lL9BbmOjE3lcI/UNbvafmY6G78XxjqsXVq23tq3JTS1xPrjdpE0bt+enHhbT5kSxfxcWmli99e1r5Jpa7L1KvP5Fmc7GKxXxt4m+nOHqeXeMGfP0xm96oGZJ40vszfbSQ6HbqTVdy5bzaDOXAwIIIDDyAjSwRt6UFRFAIOECaw9vnZmqtOslHS7xuGCpLweXLvW0fX3qvQ1PljqWYu/f/eq2qUG/HpY0rth7lXR9D7+U6Zp/XkljiPjm3bWt5wZmX4p4GrsKP9ef99n739+0YlcDo/7rj89te0U671812YlRzyUG8W+T+R35ykzTtLuP2RaDfEgBAQQQKBsBGlhlUwoCQQCBqAvsPOeqP/xPmb0nzne/RKNOHkq2KAzzl09d2rw0GjEPP8qeutbPm+wTw1+pjFdwPZbfka+ftqJ5YxlHWfah7bxLdMLWOyWbU7r1L8EAACAASURBVPbBDitA/1Gms+ndw1oiIpN3no/1zMa3BKGukGlWRMKOc5hPm9mXtyr31YM6mjfFOVFyQwABBEZLgAbWaEmzDwIIxFbg8SN+vFe6oup0c7tSpt1im2gEEjMpdBXuQLJzM50Nv4hAyCMW4uOvbplR0R8sjfPB7QUsl06t6Wy8acTgErxQ96y2Y4OUfhN3Ane9uaar8X/jnudf83vunLO28wLZR5033pZB2f3xlPkH9tnmizkfqwzKQQgIIBBpARpYkS4fwSOAQKkF1tYuPD4V2E1y273UsbC/b3ezj/TqLz9I4sHevXXt/+vyN8b5OjBXdkqw/wHWMYeD20eg0DvPwqprv0PSG0ZguXJeoiPT2RjzO83+mX/FjJbd9qpKfUOmwl3BfEorUHiJyEM563/7fh2nPlraUNgdAQQQiK4ADazo1o7IEUCghALZukX1rvznAtkbXEqXMBS2lkKTf8ndvpHpanw8iSDZ2rbXy/QrSZUxzn9rPvTZ05Y2rYxxjqOeWm9ty+RQwUNmNnHUNx+tDd3D0PWvU5c2/WC0tiynfQo/r2T5y+R2QjnFldBYnpF7e3+u72P7Lz/9qYQakDYCCCAwZAEaWEOmYyICCCRRYN3MlgPDdPARyT6WxPzLKWcz5cNQvzELLsx0ntJRTrGNZiyrZy/asyoIC02dSaO572jv5bKWTOcpp8b9LZKj7VrYL1vX/hXJzynF3qO4Z98O04EHdDT2juKeZbOVz29JZVfZfDP7tGSHlk1giQ3EN7t00XYLf8j5WIm9CEgcAQSGIEADawhoTEEAgeQJFA48HrvH9lMD929JGps8gbLK2CXb5EGuuWZJc+Guo0R/eurb3m+u78Qawf3Z/tyY/fZffiJ3LBSh0IXmRu+jwZ8l268Iy5fPkh5+JtM1/9PlE1BpIsnObrvQA33K+FlWmgK8YFeXsqH8+KkHhStsYXO+5AERAAIIIFDmAjSwyrxAhIcAAqUX6K5ve5u5vmzSwaWPJukR+Ja86aIdCr/Pv1pLPXNvnGb5yhWSYn0Gm3t4QU3X/M8l/eovZv69dW3vdem6Yu5R+rWtz82Pqelo7Cx9LKWLoPAvAL31LdNCT10aSO8tXSTs/LxAXq47ZXZ2prPhT6gggAACCLy0AA0srg4EEEDgJQS6Z7fMDlKpi+Q6RVIKqNIJmJRz8x/k8/ocZyD9rQ7ZutZrJPu30lVmFHY2dee352dNW9G8cRR2S+wWqw+4bkzVxAl3SaqLM4K731zT1XRynHMcTG69sxfOU5D6lMuPlcTfCwaDN8JjTXom7/6dlMKrqruaN4zw8iyHAAIIxEKAH1SxKCNJIIDASArsPNTYgk+Y7BMjuS5rDV7ApLxLXUFgZ05Z0vDA4FeI74y1dS3TU0oVTKrim6XyYS5/3NRlzb+JcY5lk1q27ieHShVdMb+m3NyOre5q+G3ZwJc4ENeCoKd25hmB+eWSppU4nMRv7+bbLbQPpPvyi/Z5sPnZxIMAgAACCLxAgAYWlwMCCCDwvMDzr5Qv3M3yWUl7A1NqAc+FFp68bdNu/3vwqhP6Sh1NOe2/YkZL5cQxQYfLDi+nuEY6Fpcv77Un6+d0nNU/0muz3j8LFBoZvbWH3yKL/dvqHg9yux02ZdlbtnAd/E1g/YyW3frHBuea26W4lFrAQ5f+HHj6pOqukx8sdTTsjwACCJSLAA2scqkEcSCAQEkFeutb3hZ66mKTjippIGxeEHjG3b84fnzf1/e8k9eMv9gl0Tu79QQP7GZJ6fheMr4lTAd1U+9teCS+OZZfZtn6WybJdxTOVdun/KIbsYhCSWdnOhuvGbEVY7RQtq79UHe/2Eyn8VhhqQvrodzaZfZpzscqdS3YHwEEykGABlY5VIEYEECgZALZ+tZXye1iyU+TLChZIGxcEOg391/kK4LzaFq89AWx9rCWianK1J9ksW4wSObfznQ0nc1vjdEX6K1beIkrWDD6O4/qjn2y/CszHc1rRnXXCG32xOz2N+eC8HOBbJZL/Hwsae18i8yu2C1l10y4t+HJkobC5ggggEAJBWhglRCfrRFAoHQCLfNbUq9ZaZ+1IPhk6aJg54KAyVzmj+Vz9tap93O3za6uimx924XynY+5xvjjO7Z4OPVgDjIuSY2X1F9dUeN7r3HZlJIEMFqbun8t09V0zmhtF8V9dr6xsLbtDDe/2mRjo5hDnGI2eb/L3nlN5/KbF2hB4U5CPggggECiBGhgJarcJIsAAjsbV39OnWmuCyQdhEipBXyLFJxVMTb1P5PvOumZUkdT7vtvqL0502+5wuNde5Z7rMOJz13vr+lq/N5w1mDu8ATW1bWfGMr/J86PkLl8u8xeU9PR2Dk8rfjPXj+3ZUoun/qISRdwN1Zp6114K28oLZHpQ1y7pa0FuyOAwOgL0MAafXN2RACBEgn0zlk4LwztYpO9sUQhsO3/Cfhmya6tGJv+NI2rgV0Wz79kYKGkxoHNiOoo7x1j4aETO5o3RTWDOMS9+oDrxlROnHCPSTPjkM9L5+C/r+5snGcy7mYZQKF7a1tmuAVXSPZ2SakBTGFI8QRc8u+G+eCL3L1cPGRWRgCB8hKggVVe9SCaAQgU/hKnGQsresc+ld787JTUPruNC1KV+dTW7ZtTW/Lpv7umx6dynq9Ih/07LL/b+CDfvz3Ib9mUyk9fdW+/cev1ALTjMWRDfVt1n6twjscZKlw/fEopkDNXp0vNma7Gx0sZSNT2fuzIlgMrc6k/SaqKWuyDiDfX358/av/lzR2DmMPQIglsPrJ972dzXjgjalyRtiiHZcNUoNfvu6TxrnIIJiox9Mxte5Py/v1AVs0dWaWtWuFOQgvswqe25r972IPNz5Y2GnYfLYHCW2NXTT+yYvwe+VTFmDD17JYwVVHpqVT/mGBLfvs//X0oN0b58TuUz21TPjf2qfCpbXvlZjw4v3/nMQ58EIiQAH+Ri1Cxkhjq2qNbaoL+VL1y4SvNNF0KXiHTVElj3ZU22/mvfy/875+Y3BWaKWdSPnTlzZSXqc/c17pslXmwMkzlVgW53P1Tlp76OH+Qx+tK665rvTyQ/bukveKVWSSzeSyQTvvThOVLjl28IBfJDEoU9Op5142pembCSvnOP//i+/HwV5mu+cfFN8HoZZatbfuBTO+JXuSDivjZMG0HTOVw7EGhZetvGZf3vtNTsq/EvMk5KJeSDTbrzlv40WlLmtpKFgMbj7hA4R/u18xtP7Air1kmmx4qPNhcB8usRlKlXKnC34dcnna3wv9/qRcu5CXt/M9d+UDql9k29/BxMz3qCv6cD8KH02PD+6p/37xhxBNhQQRGSIAG1ghBsszQBQpv1KqoSs92hYe6Wa2H2s/MakzhVJdNGPrKQ5pZOIOnW2ZrzcNuuT8WprTM3LuqO+avpbk1JNNRn+Tz7kj3Pr2xWSn9p1yHjXoAbPh3Ai5/OmXBJc+kt37/4HvO2AzP4AXW1rWekZL9cPAzIzVjq3lqbnXXyQ9GKuqYB/tYfVt11XN3Tcb6QHeXf7Kms+kLMS9nUdLL1rbt7+bnmeyDktJF2YRFByqQl+z2nIef3q+raclAJzGu9ALrZrbvk6/ULIX52kDBq0JpmuTTAlmNS7uNaoSup2Tqcanb5GvM/RGzVFdff2XX/stPfGpUY2EzBP5BgAYWl8SoCjz56tsm9PVvr5GFh3iot5t0rMwOHNUghrZZ4fbaP7v8t4UvBqH8T5YOevjX2qFhFnNWd237rMD8KklvLeY+rD0ggcKjDItklR/MdLx964BmMOifBB4/4sd7pSvGPGBSJs48ofTZqZ2NF8U5x6jm1lvX+iGX/XdU4x9g3NvkOpRHmweo9SLD1ta3HJHy1H+b7JjC3SBDX4mZIyPgXw5z9l9TlzV2j8x6rDJSAhvrW/Z41tLTUgqPUGjHmfs8s2D/nceklP/nIZP9Wm4/2xHm1+yeDrs5s7L8ixanCKPwmyRO3onMZeX026rG7rn9nUE+/LDMCofBFr7URP3gz7w/dxtupwXBN/t2e3rhgYvP3J7IApdJ0utmXj8+nxp3jZm9MwbXV5moDiuMR+V6Y3VXwxruXByWo7K1rV+V2X8Mb5Wynx0GOauesqxhfdlHmsAA1x7dMjboC7Imi/fbL+UtNZ1NhZ8hfIYo4PKgp27RvEDhLyWjiTVExxGcttXl52c6G7/Bz+IRVB3CUjv/HM2lT7VceHac/j4keb9cf1Sgr1Z3hLeYmgt/P+KDQNEEaGAVjTa5C/v8ltQTj6bfEHo4X2b1ZnqVu3aPs8jOAzQteMg8vCsM8zdmDrY/2kL+AB+Nmhf+taqnvv2CwFV4dGG/0diTPV5W4FEPwo9nDvRb+T0w/Cult7ZlcmipR0yKc+MgDC08dWrH/MIbFvmUqUDP3IXHWD64Y+eZKzH9FH6Wpyx95JSOk5fHNMVRS+vR+pY9xsj+zTz4tBTv74Cjhjq8jbpS5pft29H00+Etw+yBChT+PtT7qB1jCk51aa5Jr/L4/154RqY/KfQ7Q7OFNZ2NhTfZckj8QC8axg1IgAbWgJgYtCuB9TNadstXpetl4dtcepe082DBBH98jSu4yc1/HqjyHh6fGvlLYUn91RX75vd+czrQVS47YuR3YMVBCbg2WqBvpJ9Nf2HywycVzpLjM0wBr19S0as1t8t93jCXKuvpLl+W2TzuSFt1Ql9ZB5rw4ApnC67bvPF2Lzz6H+eP6RGpspaf2yNT5MdmthxYkU5dKekUi3Hzc2S0iryKeyhZe978M/+fvTOPc6us/v/n3MzWnVKgk8xMWyilpRuTpIsIaAsqyGLpJDOy/VBEAXFFERERBgFBFAVUkEX5smMmmVJQFFFblcK3dJJMV8pS2tJJMqW0hRbazkzuPb9XCvp1gTbLvcm9zz35d55zzufzPndmkpN7n6cpEV5hcTVXps/dZcV7PDM9xKcR9j4R0ORKEO+ZZvArGmkPsMGLodV0yd9VN18N5nmXAZZ5LF2XKfdm9vU3MqOy1TVfJyD3eGB5Nxh0DHF+i0E/GDJQe/eISbt2yF0ppTdu8+yFo/Vs9j4wTiw9m2QojQAPMPDUm+ON0JSOtv7Sckn0vxLIzIjMglG1RPG9ZHTStQ97l89/XrpvfwKv+R/xVWnV68BUZ3+1RStkZpzekAw9XnQGCfwvAunAo0cC1bnT8SYCH3hKmpArEwE2jJs8xvDv16848Z0ylVS2TO5Oq541GEHVdKGm0eUo/wFUTmH7BhH9UPfg3oax2Tfl85BT2mY/nTLAsl9PHKEo09zZCo0vY2CyHJ2cd8veAfGLYPzUlwg/mHeULPwnga2zHxzerw+6BQaFGFzuEyqlE/9JgHl1lrPnrTtgbXLu4vasADKPwMufvK126GbfKgYdbl5WW2Z6yJcInWNLZSLqfQlkAtEfMehSlfEwYRuhb6IvftYbKvsst7d08InB4IGTAOMhQOkhaLnRFleP0MNMN/o+teIOam83ikvi7qhUc8c80ugqgCbJ56F8rwXOnUa9Smf8pCkZzg215SUECiIgA6yCcLl7ceao6BR48FlmnAly+yOCpV4L/CIRP6Sh6uHR8fnrSs2mejyjXcv4p17AhG+S+h/oHdBOflXT6Aeju0K/lr0NrGlX2h/9KohutSa7TbIy+kDk9yVaXrCJIpGRB4G9d2FRTTeAg/NY7twljBt8ydAVzjVgX+W5L6P29Nd9hwgXy90qdugT/92jadeO7mp52g5q7K5hUyByeBVpZzHobDCOsLtee+vjF5nxcD8P3H9o95kb7K1V1NmFgAyw7NIJm+rI7TPk44MPZzYuJaLPyOlupjeKCXxfFsb1z43H+jbZ+P3fAOceU+15e0vAY2j3A5R77EBeFSXAO8B4SNN3fat+xbny2IFFvdhyzMJhA7uya0BotKiEDdISM/jyhkToJhuIEQkFEkgFIp8meB4BoOz7SALezur6pKblbakC8cjyPAmkg4+PgTFwPwhHq3w4QJ44Kr2MGYhUeXDFIctC6+XLqX9vR+50zddmdo7z6PimxnwRiLRKN0yx+rk9MO9gTf/lS0PXrJO7+hXrrsl2lH3jYTInV6ZLBWMBAt8DptxjgrWuhFA+07k/3H8H4/O+ZGhj+crat9LaY341bPjuEVECzWWg2r5K3aKMfz+k1jhn+HNt2+WNrbU9T/ujD4HoLGurVDz7Tr1PH9e0um1bxZWIgIIJ5DYq9vRp6wDyFhzsqADjr95E+HgCyeNVFvUtNxhIzeyY7tE9MQYOs6iMpM2fwG5i3OZNhi7PP0TtlZnmBeOgZX/F0D4MQOX9/+zQyNznoWfrqPqzB8Y/9ZodBIkG+xGQAZb9elJxRelAx3GA50pg78lXyh6XXXHQ7y9gF5ifZgPXNCwPJ22q0VJZG6c9NLKmuvYKBp0PYKSlxST5/gkQJ8HaFS8OH/mnuYvnyj5X+ydW0op0MDIGhrZa8UMxDNaMloau1oUlwZLgihLY+yUX41mVv+BioE8zBo7zdp+xrKKwXVB8752nuwfOICC3x9oIF1i2tcXc6XFguvGlESvvc+vdMJuCkWkeQ7sWRB+X/a3Kfrnuhka/Z+brG+KhRNmrS0FbE5ABlq3bUz5xkdaI57iXPQGD8A0inFG+ylJpHwTuNHT6SePylpfcQGnRnPaqSduntrCHcsdty7ewlW/6JmLc6k2Gbq68FHco4MmRmkxd1Z8BPlZtx7zIlwgfr7ZHd7hL+2MREFrVdssbq/YYUw9Z0/a22j7t4e71yZGh2TrtZoDOBDDMHqpcreKvpGmXebvcc1JsakZkIunaxSD6qqs7bwvzbADar4izt9QnW18gENtCloioKAEZYFUUvz2K906/f4heNeRnBPoswHJN2KMte1UQoBvgnxq1xlVNz7XttpE006QwmF6f2XmorvMSgOpNSyyJiiJAoKxO/PDAsB0XHrr4vD1FJZGgogikAtHTCPR4UcHOCWKD9WMak23POUeyKP0gAunJkTE0qGodM1epTIkN4wsN3a33qOzRbt62BGPeAeZFBJrAgOw3VOkGMT+5WzPOGh9ve6vSUqyqv37OorrqHVuv9IAuZ8BjVR3JWxQBBvgW7x7jclrT1l9UBglShoAMK5RpZeFGFs1ZVDXprTe+w6RdDEAGB4UjLGMEv4a9JyKFf1nGopaXevPY3458Z1ff7QScBmCI5QWlwL4JEJ7MDtC3m1a0rJZ9rsp7seQOLMjs2LryvaO4y1u8jNXY4F80dIe/XMaSUspiAulg7Dtg/MDiMhVOz6/rtcaRTc/Jnm3lbETuzuyJO6ccz6zdQsCR5awttd6HAGMzEX5Zn2i5RrU7YVL+2PlEfBVAY6T3tiawAcS3eOOh3I0XsjehrVtlnTgZYFnH1taZ08GOTzBrNxFwlK2Firh/JcDE+D2q0O5dFnL0fhzrmxccUKPpXyBQ7ojyA6TNlSXA4BUa07X181o6qV3eEFSiG5lg9CpmuqYStctXkwc8Hpo0elno1fLVlEpWE9g89eHRek3tWtX/lhPRL73xli9azVPy/zeBl2c/OHxI36AvQ8PXARwsjCpOYK2h4Xu9/MbCGfELByqupgQBPf5Hj9Ko6gaATlL5VNUSENkxNHdi5iIYxvcaultz+zDKy2UEZIDlsoZvnPbbkdVVu28CaZ93mXW17DKurerTb3Lanhy5u/4mbNvyEarW7iOmRrWa4kA3hG3QjZt93a2K3z1h7968e6KbJzfUUflOWIahXeLrnn+rvbsh6oohkGmOngyNHlf6sRvG20Y1jWt8vmVrMYwkpnQC68fdW1c7cvj9IJwim2qXztOEDH/rz+qfHbuibYPT7tpee8zCYQfsyX7NYFxrAgdJURkCDMJ12sA7P6xfce47lZEgVStBQAZYlaBeoZqZ5tgprOFe+faqQg0wtywD9BKYT/QlQxvNTW1NtteCC8ZXs76AQbnHAJTeL8UagqZmZYP5/uqa/m+PXnrWZlMzS7KCCaT90cdANK/gQCcFEF7avlufNkX2rnBS1/LWyq0RT2adZymAYN5BDlxIwKr64Qf6SU5krVj3GKz1+hdOAvQokzxWWLFG/F/h3OnZj1Xvqr7o4Bfn7bSBnv1KyDQvGGd4jKeIMUHuutovLrsvYAanNYPme7ud/XSK3UHbSZ8MsOzUDYu0rAtGRgwyPLeB+ByAZCNMizhXKG0fEW7K1ug32HWT93Tw4YOIa69mxmdBGFohTlL2nwT4j6zR9xu6QksESuUJpAMLgoCR++Cv8oaxDBhhX6K1s/LERYFVBDYFo7M9TH8DUGNVDRvkNQA6xZdo+YMNtLhaQu5bvEwwdiYYV0L2x7LDtfCawXxrw7zQLXbdiiB3B1/dgcMvZ/B3AFL575Qdrodya+gD+Pbte4zL5YuycqMvfz0ZYJWfedkq5k53S/k7PqTBkzvmWh7XKhv58hci4DlD089r6Gp7sfzV37/ilmMWDut7JxvSNP4FQIPtosulOnLHDr8C8Pe9idBDqm2+6tSecrCrOmNsfBqEjzrVQz66ifG4NxlS+w6zfEC4YE060HkXwF9Q2SqBX9m2x/BPWdP2tso+neJt9eTI0JGDqB2sfRbAKKfoVlcnv0xEF6bwxjN22h8rNSMykQxP7iTRY9VlL84AvJDNUtuYFS2rhIa6BGSApW5vkfZ3XEmkXSPHDyvc5H+31g9kP+VLfPqpSjt+zR+dUQXkHotqqLQWqQ8YbHzv2STf0IY2XXjYh0Cvv/NzBvGv7KPIGiVZY2DWmO4zHH3whDVk1Mu6vvmRcbVazXr1nP2HI8b3fMnQdcr7dJDB9XPurat9a1gMRCc7SLaqUplhLPFkd59kh72Jev0dJxikPan43aGqXktF+GKDoH3em2jJbZsjLwUJyABLwaa+PjkydKDOs4CAE+TZbgUbvA9LBGSZ+J5nDjO+3NZR/mFFasbCiWQM3ArQXHmjUNlrjwg6Mx42dLqucXnLS5VVI9X/kwC3s5Z5PLYGoIlK02HjZm+y9VtO2+BX6Z5YbC4ViH6JQD9T+v0HY/NuTZ84Pt72lsU4JX0BBN7di40+DKbbQNRcQKgstYbAm2zwQ/3wXHlo9/w3rSnxwVlz/2fTj8du00AXsuy9Wm78la6ng4wFaWw7y053AlYaiir1ZYClSiff85Fq7viwpmkdDPgUsyZ2CiHAvCyrec4cE5+/rpCwYtemg08cxMbAV4iMbwI0pNg8EmcSAcYS9tA1DV0tT5uUUdKYSCD3eHdvoPNGBi4zMa39UjFvIxiTvMm2LfYTJ4qsIrB33032rAAwxqoadsjLwG984/WzqQJfFtnBv901ZIKxiw3mSwh0uN21qq+PNxLh6vrDjAfL9fuyKRA5vAqe+xk4Wn2+4vCDCOQO3gB7Pu1Nnr5GKKlDQAZYivQy94EoE+zMbWb5oNLfeirSr7LYYDYMaMc2Jlues6rey4ffVjt4qPckzeOJMrOcLGgV6PzzbtHB32hKhHN/B+RlUwJb/At9AzTwAkDDbSrRDFmsG3xJU3f4VjOSSQ5nEegJdJyqgRYqfnDMHt3g6U3d4Zed1R33qN10dGQQ9Ws/0RifAWiQe5zb0ymzkTK06k8+d1j/GiufEugNRmcz0zNy15U9r4Nyq2KgD4xTG5KhP5W7ttSzhoAMsKzhWtasPGdRVe+bb9zFmna2PLZVVvROKLaTyLjcG2+93Wyxm46KzNI07U4img5ATrc0G3Ch+QjXAjW3+eKnvVFoqKwvL4F0IBYFECpv1fJWI2Dp38frx1j5IaW8jqRaoQTSgdjvAZxUaJyj1jOWe0esnEGL27OO0u0isbnTCnubF4w1NONWAj7lIut2tbqbgT8NNnacO7L7PNMfK+wNxC5g4McMDLMrANFVEQK7NcLNo+Mrrya0GxVRIEVNIyADLNNQVibRxmm/HVldtefnIDpT7ryqTA8cULUPhB/1bd1x/aEbzttTqt6eWZ1HaLpxBTGdxUB1qfkkviQCuQ9NC0nnq73Lw6tLyiTBZSGw2R/7mE5Q/tFOZn1eQ7Lt8bJAlSK2JLApGJ3tYXoGiu89oxk4u7479LAtmyCi/kkggojnI4GqTxrgqwHMEDQVJ/AmM/80m6372diVp24vVc36cffW1Ywa9h0Y9G0i1JaaT+JVJMAGE/+CUHe5L37aLhUdusWTDLAc3OmMP3IwQ4uAaI6DbYj0shEw7q7aw984pMijv9c3LzigVuPzAL4egNyKX7a+fWChtTrokqZEyx8qL0UU5ENg0ZxFVUfs2LaIVD/GmxD1xUOt+TCRNWoT6AlEf6KBLlHZJYNfJKoNyAci53Q54+/8Noi/xoDXOaqVVbqJWLuwfsQBT9PiuUXdybh6cmToyFrPT0H4vLKUxJhpBBgcGUTGBQfKIRymMS13IhlglZu4SfW2Ny84YLdmdAMYa1JKSeMKAvx7XyJc8BHTPcHIKR6uepjBuVuy5e9GZa+VXcx0vq8v20lr2vorK0WqF0IgHez8Khi3AKzy71DuiZ0pvkTLC4WwkbVqEuiZHWvUBvCa6v83NPBP6xPhb6jZRTVdrW++94AabdhNBMoNPVT+m+yABrIBxkadjE80JdpeKVSwKx5XLhSKrN83AcJqvUaf2fRc225B5TwC8gfbeT1D74zOqYbBv5XhlQObZwPJDDwziPRT8/nmITNjwSxDN67XCMez7HNV6e4xiH5KOv3M2z1/Q6XFSP3CCLx7vLsndyqo2l86sHGzNxn+FoG4MEKyWlUCqeaOz5Om3aX2kIDe2DHIc9ikJfN2qtpHVX2l/dHc44TXgKjgL/dUZVJBX7sIiOhVdGnj8y1b96dj6+wnh+8Z2L2AgOP3t1Z+LgT+iwBjdb+unzZuRdt6oeMsAjLAcla/0OPvPEojfgzAOIdJF7n2IhCvrcbpo5aGet5PVqZ5wThD0y/VQBcx4LGXdHepIWDAAP9NjBQmHQAAIABJREFUY+Or3mSbHAPswPbvPSU2ELsZij9KBWCDN9FymAyvHHiRWiw5HYwmwdRscZmKpmfG474RB4aKfQyqouJdXjz3N7o3GA0za1cBmOpyHHawv4sI38ru0R9tWt227f0EpWY+1kRZPQrCLDsIFg0OJUDUPdDPobErQ6861IErZcsAy0Ft75l13yhPdugLDBzsINki1a4EiFfrNca/3T7Lwa7qDF77IphvVn3jXbu25T90bWeNPt3Q1aL8pt8O6UdRMt+7a3ZlUcEOCiLii73x8B0OkixSy0SgJ9BxqgYtt6m/0u87WcOxDV2hJWXCKmUsIJAORL/LoKsIqLEgvaQsiABn9CzmN65YtexfT45bP+feupodw54n0LSC0sliIfD+BDbqr+tHNvXI44ROuUCUfiPhlCbkozP3AUjX+W9EGJnPelkjBPIk0LV9j37MlDVt/elg9HSwdiOBJ8jjgnnSs2gZgXYw+LI+Q/vNod3zTT9m2iLZkvYDCKQDHZ2ANl9xQH/1Dj/wY3L3ieJdLtJe7g6XdCD2KIHaikzhjDDmLm9y1Ww5pt0Z7foglWl/bCwDVxL4cyDSnO3G2epzd6EzsBTEX/DFw2u7gl3VPt7wLEBykqSzW2sr9QxOaYbnWNmiw1Zt+UAxMsByQJ82BSPTPOzJ7Xk1xgFyRaLDCDAQB5Ai0GmKby5t+84QQQfzfVkDNzZ1h1+2vWARuF8C7w6GacF+Fzp8ARGO98ZDixxuQ+RbSGCzv/MonYwEoPZAgMn4UkO89XYLUUrqMhHY5O/8qAdGu5z2XSbg+y6T2x/r1wBmMjDbFopEhGoEVoFxqi8Z2qiaMdX8yADL5h3tmdU5SstiCcATbS5V5AkBIVA8gSwzr6quM1oPea7wE3iKLyuRVhJgsJYJLHge4KCVdSqfmx/zJcKq32FWecwKKEgFO28kxmWKf1my7p0dg6ZMeOXkPgVa5noLuWNV04FYGwE3AWhS/TFY1zdcALiaQO5uv7rqQZ8YtfTkHa4GYXPzMsCycYNenv3g8MEDg7oImGBjmSJNCAiBEggQsNNg/RxfH/5Aa9r6S0gloTYj0OOPfkMj+rHiH3i2e/qrjhy9at5mm+EXOTYksC0YGbGHPWsB1NtQnomS+G5fInyBiQklVYUJbJm4cNjA0OyXwfhBhaVIeSEgBKwkwFgOrebDvvhpu6wsI7mLJyADrOLZWRr57pu83Ian9BFLC0lyISAEKkXgTYB/PDBQd/vYladur5QIqWsNgfUzI/W1urYWoBHWVLBJVuYbvcnQFXLyoE364QAZKX/sfCLc4wCppUjclaWB6WPiZ6wrJYnE2o9AOtB5ZG6PSg04m4Fq+ykURUJACJRCIPd+hmEs1GuNs5qek43dS2FpVawMsKwiW0Jebo14Mq/Sz8HaRSWkkVAhIATsSSD3uODvBnTjknEr2tbbU6KoKoVA7pGTTCD2EwBfLyWP/WP5xWfGG1PaOtp0+2sVhXYikA7E/g7gWDtpskDLAu94vZXk98MCtJVPmfLHPkaEHwIIVF6NKBACQsBsArnf7/p4y3fkCzqzyZaeTwZYpTM0PUPa3/EDkPYd0xNLQiEgBCpKgIFUzaCqWQcvmZeuqBApbimBnkDsQxrwnKVF7JBcw7m+rtADdpAiGpxFIH3Ugk/AYzzlLNWFq2XwpxoS4ScKj5QIJxB478uK0wF+CKBBTtAsGoWAEMifADO+2pAM/Sz/CFlZDgIywCoH5QJqpGZ0ziODHwEg/wgL4CZLhYCtCTC2GxpdoqG6Q56pt3WnTBGX9kd/B6KTTUlm2yS8aPse46Qpsm+bbTtkZ2HtaNcu9E+7lwnn2lmnCdq6vImWWfINvgkkbZxiQzDmrQEuBuO7iu95aOMuiDQhYAmBt9noP7Gh+8xnLckuSYsiIAOsorBZE7T3iGkYCZDaR0xbQ0+yCgFbEniT2Xhgj8bfGx9ve8uWCkWUqQTS/mgIRB0qf4ghYEA3tFmN3fO7TYUnyVxFINO8YBx7jBfAqFPZOBvGtxq6W3OHOchLcQKZo6JT2EPXAXwKQLI/luL9FntuIcB7qgxMP6Q7/LJbHNvdpwywbNKhdPCJweC+ZQBNtokkkSEEhEDxBHQw/pcHPGc2rDp9U/FpJNJJBHjOorreHdtWM3CYk3QXqpVh/LYh0XpaoXGyXgj8J4FUc+yHpNG3AFb4/Sj31lbvmThq6TlyLLtLfgV6/AtO0KDfB6IGl1gWm0JAbQKM59/ZOegjE145uU9to85wp/AbBmc04B8q04HOBwA+x1mqRa0QEAL/RYB4PYyBNq+2YznFLxwQQu4hkGruuJQ07SaV775iIE1UM0EehXXPdW2lU56zqCqzY+sqgCZaWccGue/0JUJyMI8NGlEuCb3TnxqS1d5u9Wi4jYFh5aordYSAELCIAPMdvmT4YouyS9oCCMgAqwBYVi1NBzsvAnNug7gqq2pIXiEgBKwmwFsBXK9ld91Vv+Lcd6yuJvntRWBTc3RClYbVrPhjIwYb32tMtl5nL/qixskEMoHYZxm418ke8tLOPNOXDHfltVYWKUMgHYyMIcNzKTRczAyPMsbEiBBwHQHK3X11vi/R8pDrrNvMsAywKtyQjD8y2SBPF8mm7RXuhJQXAsUS4LfBeBxa7RfkrpRiGTo/Lu2P3gEipe+wYPCLGdo6bYbcWej8C9ZmDjKB6J8YdILNZJkqh4DH6xMt8wlkmJpYkjmCwJZZnUcMDPCvQTxL9sdyRMtEpBB4HwL8jg6juSnR9orgqRwBGWBVjj26gndW+4yDVoFwRAVlSGkhIASKJ5Doz+rhsStaN8gpU8VDdHpkOth5LJj/CkBzupd96SeDT/F2h59U2aN4qwyB3kDsQwbwXGWql60qMxtnNSRbHy1bRSlkKwLcGvGkX/HMJeLHABpiK3EiRggIgfwIMHd7k6uChHb5MiI/YqavkgGW6UjzT5gKxNoJuDr/CFkpBISAHQgQ8IoB/oZvj/EUrWnrt4Mm0VA5AulA9G8AHVc5BdZXZuBvvj36x+V6t561Gysw2rVMcNq9YJyrsn8CVnkToWkqexRv+yewvnnBAbWkfw6EqwAasf8IWSEEhICdCDDw7YZEKLfnqbwqQEAGWBWAniuZDiwIAsbfAAyukAQpKwSEQKEEmLcZGt3ONfoPmp5r211ouKxXj0A6GD0dTDHF777aWc1Vkw5Ozkur10FxZBcCr0+ODM3WedYBOMQumqzQQeDLvInwj6zILTmdRSDtj41lwo0EhGUfXGf1TtS6nsBO0vlo7/LwateTqAAAGWBVAPrLhz9ZO2T47pUAJlSgvJQUAkKgcAJZYv5j/YhR82jx3Gzh4RKhIoG3jo4c+HafliJQnYr+/sXTQ75ESE7JVbzJdrCXDnZcC9autIMWqzQw0E9UPcEX/9RrVtWQvM4ikD4mMoZ3a38m0GGKfxnirMaIWiGwDwIMvPDmHr15ijyJUfbrRAZYZUcO9Po7LzeIf6DyUesVwColhYBFBDhJmnFRfdeaLnne3SLEDk2bDsSuyJ086VD5eclmcGpX9Z7JE5aesyOvAFkkBEogwJMjNek6z/MEHFVCGgeE8l2+RPhCBwgViWUisOnoyCDqrzpVY74LwAFlKitlhIAQKJ6AAeJv+OLhW4tPIZHFEJABVjHUSojJ+B+bzJRdCZDSm/2WgEhChYAtCBCwzmD9hoy2/X45dc0WLbGViNwJskxaHIrffcXgLzckwr+wFXwRozSBzIxYmA10KG0SYDDm+JKh3FYS8hIC/ySwLRgZ0Wd4vmMQLiBgpKARAkLAxgSIdQBTffHwWhurVE6aDLDK2NK9m5T6pz0KQmsZy0opIWANAVbzHkIi7DQMvnfXzvRlE175ap818CSr0wmkg9GHwXSm033sWz+/6h09eDL9/mT5PVC70bZyxwBl/NG/gGiOrYSZL+ZP3kTLJ+QEW/PBqpDxVf9DY+tQdw8Iud+DKhU8iQchoCIBZn7El1x1jjylUb7uygCrfKyR8i84UyPjQVb8qPUyIpVSQsBcAsxPEozP1idb35APFeaiVSlbqvmRD2tazV9Z7Q8VWTAf7UuGu1TqnXhxBoHXm6MTshotBzDIGYoLV0mAkQV/pikRfrDwaIlwAwFujXgym4wj0Ff1OxAd6gbP4lEIOJCAwcBZDYnQbxyo3ZGSZYBVxralA52rAZ5cxpJSSggIgTwIMLCUQO13JVb8sR3tRh4hssSlBHL7lFT1eZ5nYKrSCAhPe/HGKRS/cEBpn2LOlgRyd6ynA9PuIeA8Wwo0SxRzT/Xg6skHL5m306yUkkc9Ar3T7x9iVA09C8zXgdQ+pVO97okjlxB4wZcIyWf8MjVbBlhlAp0OxL4O4KdlKidlhIAQyI/ARoBv9Y43bqOOttxz7PISAvskkAl2tjLzo4qfFLV9T3XfkYctPWuzXA5CoFIEVk+O1Iys87wCoKlSGspS1zC+6+tuzR3sIy8hsE8CuUGW7hl8K5HWArDsjyXXixCwF4FLfInQLfaSpKYaGWCVoa+vz/xd/YC+ZwMBtWUoJyWEgBDYD4HcoxsM3O0dfuCXafHcrAATAvkQyPgjBzN5ehUfXgEwbvElWi/Jh4msEQJWEsj4Y99kwo+trGGL3MRHyibAtuiEI0RsCca8A8y/A8jvCMEiUgi4gAADfdUefdwhy9py7xPlZSEBGWBZCPcfqVOB2NUEtJehlJQQAkJgPwQY/FvNg8vrl4XWyD5XcrkUQiAViP2QgMsKiXHeWs4MDPRNGbvy7O3O0y6KVSPAcxbVZXZuexYMtT+oM+73JUOfUa1/4sc6Al3BO6vrjUM+opHxMwBHWldJMgsBIZAvAQbaGxKha/JdL+uKIyADrOK45R317kakWKH6Uet5A5GFQqAyBJiZlxvAdU3JcKwyEqSqkwlk/I9NZtKXARjsZB/7087MZzUkw4/sb538XAiUi0BvoPN4A/znctWrTB02DOZPNCZbFfdZGboqV00HnxjMxsBXNPAlTBitslfxJgQcQKBPN3haU3f4ZQdodaxEGWBZ3Lp0MHo7mL5ocRlJLwSEwAcTeJMIP6mPt1wnd1zJZVIsgUwg+icGnVBsvDPiONM3fOdhhy4+b48z9IpKNxBoR7t2YWDaswzMVtovc7c3GQrI/ymlu2yZudWT22tG1k3L7c94ksqnd1oGUBILAZMIEHC7NxH6kknpJM37EJABloWXRe/0p4Zw1dspBkZYWEZSCwEh8P4EDIDv8VT3XzVaNqOWa6QEAqnpjwaoqnopgKoS0tg9tG8PY+JhydBGuwsVfe4jsC4YGTGIPesBqLxxtcEand3Q1ZIbQshLCBRMgMHUE+yY6jE8d4BwTMEJJEAICAETCPBboFqfL37aLhOSSQoZYJXvGmCA0oHonQT6QvmqSiUhIATeJcB/ZIO+7+tueVa+zZZrohQC25sXHLBb018AqL6UPHaPJUKHNx5qs7tO0edeAil/9FYi+qraBHhPlqvHj0nOS6vtU9xZSYCDd1Zn+MA2QPuu7I9lJWnJLQQ+iADf5U2ELyKAhZH5BOQOLPOZ7s3YM6tzlJblFwGMsqiEpBUCQuDfCTAI6zXGFfWJ0G8EjhAwg0A6ELsAwJ1m5LJvDnqzRs9OPWh5W8q+GkWZ2wlsOjoyyNPnWQtgjNIsGNf5kqHvKe1RzJWFwPo599bVvDXsagJdAMKBZSkqRYSAEABAbxhVmNT4fMtWwWE+ARlgmc90b8ZUIHYZAT+0KL2kFQJC4D+GV0zU/ubu7I1T1rT1CxwhYAaBdPDhg4DqTWCtzox8ds1BTJd7ky3y/8quDRJd/ySQmdF5Lht8n9pI2CA2pnmTbWvU9inuykSANh0dqfPs0aIgOrlMNaWMEHA9AYNwaWM8dLPrQVgAQAZYFkDN3X3lyfIGBoZakF5SCgEh8H8EdAYeMKBf35Roe0XACAEzCaQD0bug+mPgjM16vz65aXXbNjPZSS4hYAWB3F1YVX2e/2VguhX5bZOTeKEvHj7dNnpEiOMJ5PbHyvg7j2Oi6wl8rOMNiQEhYHcCjLeN6rfHNT7/GbkLy+ReyQDLZKC5dOlA9ByAHrAgtaQUAkLgHwQYSwxoVzck5/9FnjGXy8JsAj2zOo/QskYCoCFm57ZLPgIGDEM/paG77Wm7aBIdQmB/BHqDkWkGa88DpPCdkazrGn+sqat18f54yM+FQCEEFs1przpix9SLNNDXGDi8kFhZKwSEQKEEjHN8idaHCo2S9fsmIAMsC66QVCD2ZwKOtyC1pBQCLidATOAdMIwveLtbO1wOQ+xbRKAreGe1j0ctB+hIi0rYIy1zd1rbOmtG/MIBewgSFUJg/wTa0a5dFJj6ewP0if2vdvAKwmZtYOj4+hUnvuNgFyLdpgRy/+e8xqgfE1Fun0eFh8E2bYDIcgcBxp98ydDH3WG2fC5lgGUy60xzbCZreA6Ax+TUkk4IuJwA6yC6gQz9Nm+ybYvLYYh9Cwmk/LGPEeEPSv8dJ+zRuWpaU2KePHpr4bUkqa0h0DOpc5Q2WPmDcpgZX2hIhn5lDUXJ6nYCuccKX5vZeWhNlm9hotPczkP8CwELCOhMmNUQDyUsyO3alDLAMrn1qUD0NwSSo8hN5irp3Esg95gTQAvgMb7vXRZe7V4S4rwcBHpm3TdKyw5NAmgqR72K1WC+w5cMX1yx+lJYCJRIIBWIXU1Ae4lp7B3OeBvAVF8ytNHeQkWdkwkwQKlAxykE7UoCZuWOUHOyH9EuBGxFgOgRX7zlLFtpcrgY+QNlYgMZ7VrGP20jCI0mppVUQsCtBBjAWtboaw1dLbJHj1uvgjL77m2OfcfQ8IMyly1rOQJ2Vuv6kQctb0uVtbAUEwImEnh9TmSovsPzIgM+E9PaLhWDf96QCH/FdsJEkHIEcp9jegPTLmXGN0AYrZxBMSQEKkCAgU13J1aOa0e7UYHySpaUAZaJbd3k7/yoh3iRfHNhIlRJ5VYCfRrTZ0ePGPkYLZ67x60QxHd5CaxvvveAWm3YRoCGl7dyeasZ0M9rTLT9T3mrSjUhYD6BdCB6IkC/V/t9Fw8QG83eZNsa8wlKRiHw3wTWNy84oM5jfB+MLzGgCSMhIARKIsBs4LiG7tCSkrJI8D8JyADLpIth7/G0gc7cYydHmZRS0ggBFxLgAUD7OSh7iy/e9poLAYjlChHYewdtYGoHQC0VklCWsgRkaqoHTRq19OQdZSkoRYSAhQR4zqK69I6tSwk03cIyNkjNf/eON+ZSR5tuAzEiwQUEcp9rNvljwSrgGhCd7ALLYlEIWEaAGcvvTq4MyF1Y5iCWAZY5HLE5uGC8zoZshmsST0njOgL9BDyTJf3rTfG2la5zL4YrTiAdfGISuD8OYHDFxVgnoB9EJ/jiLc9YV0IyC4HyEsg0LxjHmr4KoCHlrVy+agRkwfrHvMm2v5avqlQSAu8SSPujISLtagZPVftuR+m4ELCOgMeD8aOXhV61roJ7MssAy6Re9wZjZxmMh0xKJ2mEgJsIvGGAPt2YaPmLm0yLV/sQ4DmLqjJvbVvvgv0Ln/IlQifZh7woEQLmEEgHYg8CONucbHbNwv3vVO85eMLSc+TuSbu2SHFdr/lj36wiuhHgKsWtij0hYDoBTeOz6rvCj5ie2IUJZYBlUtPTgVjuyPUTTUonaYSACwjwOwB9Y5ChRUZ2z3/TBYbFok0JpPzRM4noYZvKM0tWP0DNvkTLC2YllDxCwC4E1s+M1NdkPWuIMNIumqzQQYRLvfHQzVbklpxCIB8CaX9sLIguIXBufywZZOUDTdYIgXcJ/MGXCH1SYJROQAZYpTPEq7MfHl03UNsD+UNuAk1JoT4B3gOmBw0d1zSuCOV+b+QlBCpGYOO0h0ZWV9clAIyrmIjyFP6BLxH6bnlKSRUhUH4C6WD0q2C6tfyVy1mR3+ozPM2Hds/fUM6qUksI/CsBBigTeOxYsP49ED4udISAEMiLQJZY93mTbVvyWi2LPpCADLBMuDhS/ujniOhXJqSSFEJAWQIEygLGK0yY74uH1yprVIw5ikC6ueOn0LSvO0p04WJ3Z7n/8DHJM9OFh0qEEHAGgS3HLBw2sGtgA4gOdIbi4lQyONKQCH+6uGiJEgLmEsgEom0MugVAveyPZS5byaYeAQM4rzERklOgS2ytDLBKBJgLTwVijxIgbyZMYCkp1CTAzNuY+DMNtO0pil84oKZLceU0Ar3T7x9iVA1OATTCadoL0MsAQr5EaEEBMbJUCDiSQHp2JEgDnv9V/NGmPr1Pn9q0uk0ODnLkVaqe6JdnPzh8cH/tF4noeoA86jkUR0LAHAIMPNqQCJ1pTjb3ZpEBlgm9T/ujr4LoUBNSSQohoCQBAhZ5E6HjlTQnphxJoCt4Z7WPRz0F0FxHGshTNINXvLnHmDllTVt/niGyTAg4lsCiOe1VE3dM/aPqv9cA1oJqgr74absc2ywRrhyBtD+6BEQfVs6YGBIC5hFY50uEDjcvnTszyQCrxL6ng5Ex4KoNAAvLEllKuMIEiPUhe4xDRqxu26awS7HmIALpQMdxgLYIgMLfFvMAaZ5PeLvmL3ZQa0SqECiJwKbm6ASPhiRAQ0pKZONgAgwGwnJnpY2b5DJpPZM6R2lDjM1guQPLZa0Xu4URYF3Xm5qWt6UKC5PV/0pAhi4lXg89/tj3NML3S0wj4UJAeQIG+NONiXBEeaNi0PYEuJ21zMLYWhBNsL3Y0gQ+5EuEzikthUQLAecRyARjP2bGN52nvBDFvHPHoOqGSUvm7SwkStYKASsIpPydZxDxI1bklpxCQCkChCt88dANSnkqsxkZYJUAnNGuZYLTVoAxpYQ0EioEXEKA7/Ylwhe4xKzYtDGBlD/2FSLcZmOJJkhjHchO8yXOeMGEZJJCCDiKwJZgzJtlXsug4Y4SXqBYg3FDYzJ0RYFhslwImE4g7Y/eA6LzTU8sCYWAYgQIvLI+saqZ0G4oZq1sdmSAVQLqnlmdo7QsvwxgZAlpJFQIuIIAA881JEKyN4Irum1fk1smLhw2MCS7EsBY+6osWRmD8F35hq9kjpLAwQR6/J3nasT3AtAcbGPf0pm2GzpPb1wR6lHWoxhzBIFUIPYcAR9yhFgRKQQqSICB7UatfnjTc7KtSrFtkAFWseQAbDmq84gBj7EKoOoS0kioEHAJAd7iS4QPcYlZsWlDAgym3kDnfQz8PxvKM1PSG4MHao84YOWp281MKrmEgJMIpINPDAb614LR5CTdBWtl46/eZPh4Asm3+QXDkwCzCKQDsS0ADjIrn+QRAuoS4AFD16Y2Lm95SV2P1jqTAVYJfDP+WJgJHSWkkFAh4CYCXEM8+aB4eK2bTItX+xDomf1gozZQt1blzZ330mYO+5LhmH3IixIhUBkCG4KPBmq5eikDVZVRUJaq/QbTrMZky/KyVJMiQuA/CLw2o3NqlcErAMjnSrk6hEAeBHTmcJO8T8uD1PsvkT80RaMD0sHYPWDI894lMJRQlxFg/o4vGb7RZa7Frg0IcLCrOsUbn9aAj9pAjnUSmBf7kuG51hWQzELAWQTS/lgEhFZnqS5ULb+4453qmZNelA3dCyUn60snkPbHrgTh2tIzSQYh4A4CDL67QfYFLrrZMsAqEl3uUZRMILYBoDFFppAwIeA6AgRe6k2EZY8E13W+8oY3BWLzPUBn5ZVYqiCrM32sKdnyV0urSHIh4CAC6WB0EpgSAAY5SHYxUi/0JUJ3FRMoMUKgFAJpf3QZiGaUkkNihYCrCDA2eJOhwwhgV/k2yawMsIoEuSEY89Yw0kWGS5gQcCuBd0A1h/jip+1yKwDxXX4C733hsAagSeWvXr6KBPpFfaLlK/KGqHzMpZIzCKQC0W8R6CZnqC1a5RtpemPsjPiF8v+1aIQSWCiB3un3DzGqhmwGMKTQWFkvBNxMwNNfVT961bzc7468CiQgA6wCgf1jeU8wNldj/KXIcAkTAq4kwEA/UfUEX/xTr7kSgJiuCIFUIHY1Ae0VKV6+ouwZwOGjV4ZeLV9JqSQEnEEg43/yYKZd65Xf/w6405cIXeSMrohKFQik/bGxIOQ2o65RwY94EALlIkAemuNdJnfMF8NbBljFUAOQ8kc/R0S/KjJcwoSASwmwwUQzG+Kh3OMc8hIClhN479vhlwF4LS9WuQLMBl3W0N3y48pJkMpCwN4E0sEFp4ON3ME7Km/o/qanumrS6KXyrb69r0Z11KUDkSCgPQ+Qpo4rcSIErCdAwHneROh/rK+kXgUZYBXZ05Q/eg0RXVVkuIQJARcToE/6Ei1/cDEAsV4mAgxQOhDtJNDpZSpZqTJrvYmVUwjtRqUESF0hYHcCex8l9ncuBWGm3bWWpI/xgjfZMpVA8vegJJASnA+BzIzoyWzQ7/JZK2uEgBD4PwIEXONNhFR/OsCSlssAq0is6UD0AYDOKTJcwoSAawkQ8G1vIqT6XiSu7a+djG8JxgIDTF0AK/2/jhit3mQoaif2okUI2JHApqMiszxV2rNg8thRn1ma2NA/0dDd9rRZ+SSPEPggAulA7AoA1wshISAECiTAeMCXDJ1bYJQsB6D0m3orO5z2x54B4Rgra0huIaAiAWZ+pCEZPktFb+LJPgR4zqKqzI6tfwRorn1UWaLkd75E6FRLMktSIaAggXQgehdAX1DQ2v9ZYl5d1Wd86JA1bW8r7VPMVZxAKtD5GwK3VVyICBACDiPAzEsakuFjHSbbFnJlgFVkG9KBaBoglfdUKZKMhAmB/REw1vgSrVP2t0p+LgRKIdAT7PyMxqz23gLMhq7hw03x8NJSWEmsEHATgZ6jOo/QPLwCQK3Svsm4whdvvUFpj2Ku4gTSgehagCZWXIgIEAKOI8AZXyLsc5xsGwiWAVYRTVg0Z1HVxB1b+2TDwiLgSYgQAOsvDl9VN3dxe1ZgCAGrCLjhTbVBMWZzAAAgAElEQVQBurUhMf8SArFVHCWvEFCRQNofvQhEd6jo7Z+eGJu3H66PmdLR1q+0TzFXMQIcvLM6wwftASAbuFesC1LYuQTY8I43aqijTXeuh8oolwFWEdw3z4wdputYV0SohAgBIZA7AspT5z1k2Sm9AkMIWECAMoHYjQxcZkFuO6XcCqqZ5Iuf9oadRIkWIeAEAmsnLhw2fMjAKoDGOEFvsRoJ+E19ouUs2dC9WIISty8Cm46KNHg8nh6hJASEQHEEyNAO9XbP31BctHujZIBVRO97/B0naKT9qYhQCRECQgCAwdTcmGxZLjCEgNkE0sHIGLBnFYBhZue2UT4mMi7zxlt/bCNNIkUIOIpA2h8NEdGjDFQ5SnhhYneTzjO9y8OrCwuT1UJg/wRSMxb6ycgm9r9SVggBIfB+BAzC8Y3x0CKhUxgBGWAVxmvv6lRz7POk4e4iQiVECAgBAGzQJxq6W+SEJLkaTCfQ449FNEKr6YltlJCBLl8iNIsAeXTQRn0RKc4jkA7E/gDgROcpL0QxJ32JcKCQCFkrBPIhkA5ETwQo9zskLyEgBIogwMznNyTDvy4i1NUhMsAqov3pQOd1AH+3iFAJEQJCYC8B/n++RPhBgSEEzCSQ8sc+RoQ/qn7CLhvG6Q3drQvNZCe5hIAbCWSaYzNZQ+4QBLXfDxs429cdetiNPRbP1hHIzOg4lw3tPusqSGYhoDgBwrW+eOgqxV2abk/tf9im43o3oSuOYLaInaQVAjkCGvHX6+PhW4WGEDCLQKQ14jl2necvAD5iVk5b5mFe6E2G58vdV7bsjohyIIGeQPQWDfQ1B0rPXzLzGmhbZ/riF+7KP0hWCoF9E0gHOi8B+CfCSQgIgSIJEP/SFw9/scho14bJAKuI1qf9sQ4QwkWESogQEAJ7CfCVvkT4eoEhBMwikPFHv8hEt5uVz455CBgwtKppDV3zXrSjPtEkBJxIIDX1kSaqqcn9Tg1yov58NRPjh95k6PJ818s6IbA/Ail/9CoiumZ/6+TnQkAIvD8BYv6NNxk+Q/gURkAGWIXx2rs6E4j+iUEnFBEqIUJACOydXxk3+JKtVwgMIWAGgZcPv612yHDfS6qfKAbglrsSK7/ZjnbDDG6SQwgIgXcJpAMdFwLaL1XmwczbPPquMfUrzn1HZZ/irXwEUoGOHxI01U/8LR9QqeRCAvyULxE+yYXGS7IsA6wC8TFA6UBsCQFHFxgqy4WAEPgnAb7Vlwh/XYAIATMIZPyxG5nwbTNy2TYHY31ae2PijPiFA7bVKMKEgIMJpPzRJBE1O9hCPtIXPDNeb23raNPzWSxrhMC+CGSCsduY8RWhJASEQHEEGPxsQyJ8THHR7o2SAVaBvWe0a5nA1KUAzSgwVJYLASHwHgEG392QCF8gQIRAqQR6g49NM1hfUWoe28cTf90n+8bZvk0i0LkE0oFYbm+5DgY8znWRh3LGR33J0N/yWClLhMA+CaSC0XuI6XzBJASEQNEElt2VWPkhubO+MH4ywCqMF7idtczjncsAyJHEBbKT5ULgnwQYD/iSoXOFiBAolUDa3xkBcWupeewcz4wlS5L6R9sgd03YuU+izdkEGEyZYGcErPYepwQs8yZCs5zdLVFvBwLpQOcDAJ9jBy2iQQg4lEDcm1g5i2RriILaJwOsgnABDNYyARlgFYhNlguB/yTwgC8hAyy5LEoj0Dsj9ik2sIABrbRM9o7WQCfUJ1pyJyzKSwgIAQsJbA5Ep+ug5RaWsEVqInzJGw8pfeiFLUArLiIdiD0I4GzFbYo9IWAlARlgFUFXBlgFQosg4jk24Hle7sAqEJwsFwL/QoAI93vjoc8IFCFQLIG9d0u8+2VCsNgcTogj4PE7Eyvny+3lTuiWaFSBQDrY8WOw9k0VvHyQBwa/0j9857RDF5+3R2Wf4s1aAqlA7EGSAZa1kCW76gRkgFVEh2WAVSA0GWAVCEyWC4H3ISADLLksSiWQCcYuZsYvSs1j8/g360gfd2C87S2b6xR5QkAZAr3TnxqiV739EgE+ZUy9jxEmvq0hvvcwFVbZp3izjoAMsKxjK5ldQ0AGWEW0WgZYBULLDbCOCWjLCOQvMFSWCwEh8A8ChPt9cgeWXA9FEtgSjHmzjBcYGFFkCkeEMYybfInw5QSSD5iO6JiIVIVAJhj9IjMp/YgdA30G9KlNibZXVOmb+CgvgXQg+gBAsgdWebFLNYUIMJDwJVpmEshQyJblVmSAVSDid08hnLYUgJxCWCA7WS4E/kGAgf9pSITOEyJCoBgCmUD0Rwy6tJhYB8Ws7Rt+oP/QxXPlER8HNU2kqkGAAcoEYrmT+o5Vw9H7uzDAnQ2JUKt8eFK5y9Z5S/tj94EgB/JYh1gyq09ATiEsoscywCoQWu5NTW8gtoSBowsMleVCQAj8gwDhDl88dLEAEQKFEsjMjM1kHbl9CJV+GcB5jYnQ/yhtUswJARsTSAc6TwL4SQBKv1c2QKc1Jlp+a+NWiDSbEugJRO/UQBfYVJ7IEgL2J0BY4ouHlP6ixIomKP1P2QpguZyZQPRPDDrBqvySVwgoT4Bwsy8eUv0OGuXbWAmDmUDnEww+tRK1y1eTn/UOH/VRWjw3W76aUkkICIF/JZC74z7tn/4gEZ+pNBnG875kaLbSHsWcJQTSgc6fAHyJJcklqRBwBQF+ypcIn+QKqyaalAFWETDTgWgMoJYiQiVECAiB3I6xzN9vSIavFhhCoBAC6UBHC6BFAHgKiXPSWgb6kR04umHFGQkn6RatQkBFAr2zIocaWc9qAINU9PcPT8S41JsM3ayyR/FmPoF0IHodQN81P7NkFALuIEDgiDcR/rQ73JrnUgZYRbDM+KO/YqLPFREqIUJACOx9HoMv8ybCPxIYQiBfAungE4MJ/auYcWi+MY5cx7zQm1zVQmiXDT0d2UARrRqBVCD6I1J8zz0CegcN1E4+YOWp21Xrn/ixjkCvP3q5QXSDdRUksxBQnsBdvkToQuVdmmxQBlhFAE0HYtcDuKKIUAkRAkIgN8AivtgbD98hMIRAvgQywdjFzPhFvusdum6rN7HyEBleObR7IltZAulA7CUAE5Q1uPfOaLqtIdnyNZU9ijdzCWSao19ijX5ublbJJgTcQ0CeSCmu1zLAKoJbOhDLbVh4ZxGhEiIEhAAAnTnclAzHBIYQyIfApuboBE3DCgLV5bPeqWsMxvcak6HrnKpfdAsBVQmkZsTOJwP3qOov54sAg5ln+5LhLpV9ijfzCGSCna3MnHusX15CQAgUQYCA87xyYE/B5GSAVTAyIB2IngjQH4oIlRAhIAT2vlPWj/PF254RGEIgHwLpYPR2MH0xn7UOXvNCmt6YMSN+4S4HexDpQkBJArkN3TP+aX8B4aNKGnzPFAFP1Cda5hGIVfYp3swhkPbHPgLCX83JJlmEgPsIGITjG+OhRe5zXppjGWAVwW/LUZ1HDHj4xSJCJUQICIHcHVgGH9HUHX5ZYAiB/RFIByJBwLNM9aPsAfqkL9EiX4zs74KQnwuBChHoDUZnM2vPMVjp986GhtbGrlC0QpilrIMIpGZEJpLhWesgySJVCNiKABnaod7u+RtsJcoBYpT+J2wV//Xj7q2rPXD4bqvyS14hoDqBd6p3j5iw9JwdqvsUf6UTSAdifwdwbOmZ7JzBiKdp29Ez4hcO2FmlaBMCbibA7aylF3Y+TATVT4xa5UuEprm51+I9PwLbgpERe9jzZn6rZZUQEAL/ToAN7/BRtbR4blbIFEZABliF8frn6nQgthnAIUWGS5gQcC0BAt6qT4RGEiCPKLj2KsjPeK8/9ikmxBioyi/Ceatyvw96FlMbV4R6nKdeFAsBdxF4efaDw4dkB70ExmiFnTMDlzckQjcp7FGsmUAgdzdiJtD5FoBhJqSTFELAZQQ45UuEG11m2hS7MsAqEmMqEPtfAmYXGS5hQsDNBJ7xJULHuRmAeN8/gZ5ZnaM03dgEpkH7X+3cFQTc602Ezs8dAuZcF6JcCLiHQDrYcS1Yu1JxxzoY433J0EbFfYq9EglkArFnGTi6xDQSLgRcR4CBZxrk81BRfZcBVlHYgFSg8xECn1FkuIQJAdcSYPDPGxLhr7gWgBjPi0DGH/smE36c12LHLuItfcN3jjl08Xl7HGtBhAsBlxHg1ogns05bAdBkla0zcHtDIvQllT2Kt9IJ9Phjt2sE1Q9ZKR2UZBAC/0WAH/AlwucKmMIJyACrcGZ7I9KB2PUArigyXMKEgGsJMPP5Dcnwr10LQIzvl0DGH5nMpD0P0JD9LnbwAiJ8yRsP3e5gCyJdCLiSQMYfCzOhQ23zrGeZjh+TDP1NbZ/irhQCmwLRL3hAd5WSQ2KFgBsJMPP3G5Lhq93ovVTPMsAqkmA60HEhoP2yyHAJEwJuJcAeDceN7gotcSsA8b1/Aml/7CEQztr/SgevILykDQwN1K848R0HuxDpQsCVBN67C2sRQEo/Ds/AXxoSoRNc2WQxnReBdKDjOED7q/onBeeFQxYJgbwJaMzn18sX+nnz+teFMsAqChuQao58nDTPH4sMlzAh4FYCWWLPUd7k6WvcCkB875tA7/TOqUaVsRwgTWFWWYNpRmOyZbnCHsWaEFCaQNofGwvCCwCU3qcPMEK+RGun0s0Uc0UTyBwVnQIPdat82ErRcCRQCOyDADHN8SZbcsNfeRVIQAZYBQL7x/LU1EeaqKbmtSLDJUwIuJXAHmJ9jDfZtsWtAMT3BxNIB58YDO7vAnCkypyIeXH9iFEfl6OTVe6yeFOdAKNdy/in3QuC0nuYMHNqkGZMOTDeljttTl5C4N8IbJ768Gi9tnYDGHWCRggIgfwJ7Kmuqj9s6bzN+UfIyn8QkAFWkdfCu0fHxjYDdHCRKSRMCLiRwOve8bqPOtp0N5oXz/smkPJ3nKGR9iADHmVZEbZxX39zw6ozNynrUYwJAZcQeH1OZGh2hyd3R3GTwpaZgMu9idBNCnsUa0US4DmLqjI7tqUByOehIhlKmBsJ8Gu+RHisG52b4VkGWCVQTAVijxLw6RJSSKgQcBuBB3yJkNLfVrutoWb5zfgjBzN5NgAYbFZOO+Zh8I8bEuFv2VGbaBICQqBwAqnmjktJ035UeKSjIpg1/ciGrrYXHaVaxJaFQCrQ8QhBk5PZy0JbiqhAgEG/bki0nK+Cl0p4kAFWCdRT/tj5RLinhBQSKgRcRYAN4/SG7taFrjItZvMi4IqTXRnb36nZPW7C0nN25AVFFgkBIWB7AqsnR2pG1nm6lX/0GfgfbyJ0nu0bIgLLTqDHHwlr5FH8VM6yY5WCChNgpjMbki2PKmzRUmsywCoBb27jQvZQ7k1LVQlpJFQIuIQAD2jZXSPrV5wrp665pOP52kwHOo8E8VIwhuUb47x1xBr4zPpE6DfO0y6KhYAQ2BeBHn/HCRppT6t9EhsPGDqd2Lg8tEiuBiHwrwRenxwZmq3zbJfPQ3JdCIF8CPAAa8Y0uaM1H1bvv0YGWMWzw3uPvLwMYEQJaSRUCLiFwMu+ROgIt5gVn/kRaEe7dkFg6u8B+kR+EQ5dRXgVqJnmi5+2y6EORLYQEAIfQCC3D1Dvjm1/Y+BopSERJ72HGTNlH0ulu1yUuXQg9gqA8UUFS5AQcBeB7UYVTWh8vmWru2yb51YGWCWwjLRGPMes014l0JgS0kioEHAHAcKTvnjoFHeYFZf5EkjNiEzUDM9qpTduB7J9nrqmQ5ed0psvF1knBISAswh0Be+sbuCDtjJUvpMUkK0AnHVdlkttOhD7PYCTylVP6ggBpxIg4nX18dAEArFTPVRatwywSuxAT6DzFg38tRLTSLgQUJ8A4QpfPHSD+kbFYb4Ets5+cHh/dtCLzKjPN8aR69iI+pKtrY7ULqKFgBDIm0AmGLuNGV/JO8CRC/mdLA8cMSZ5Zu7kOXkJgb0E0v7YlSBcKziEgBDYDwHGdb5k6HvCqXgCMsAqnt3eyC3BWGCAES8xjYQLAeUJVHk0/yHL5uf2jJOXEHjvDW/nRSC+Q3Ec28noD3i7z8ydsCgvISAEFCawvnnBAbWavhyq35nPuNaXDF2lcCvFWoEEXmuOzazS8HyBYbJcCLiNAFdn9SMPXiEnupbSeBlglULvvdhMIJZiwGdCKkkhBNQkwNjsS4bUvstGzc5Z5iodfOIgcN96gIZaVsQGiRn4dkMidJMNpIgEISAEykAgM6PzXDb4vjKUqlwJZoN1Y3KDfAirXA9sVpnBlAl0vg7gIJtJEzlCwE4ENvgSoUPtJMiJWmSAZULXUoHo4wQ6zYRUkkIIqEmA+Ze+ZPiLapoTV8UQSPmjvyKizxUT65QYAnbWGdqYkd3z33SKZtEpBIRAaQTWz7m3rm7HsFUMUnpDawYeb0iE5pVGS6JVIpDyx+4mwudV8iRehICpBBhRXzIkW0qUCFUGWCUCzIWnA52XAPwTE1JJCiGgJgHi+b54+DE1zYmrQglsao5O8HgoDlZ6s+MswKf6EuGnCuUj64WAEHA2gZ6ZC5o13XgWwCBnO9mn+v4s4+NjkqG/KexRrBVAIB3oaAG0WAEhslQIuI3ARb5E6E63mTbbrwywTCCaO0WLDM8LAISnCTwlhYIESB/ri7e9pqAzsVQggZcPv6126HDf8wyaXmCoo5YzsNRHY4+j+IwBRwkXsUJACJRMIHdK9bGvaE+A6JMlJ7NxAgbS1Xv0iYesaXvbxjJFWpkIrG9eMK5WM9aXqZyUEQKOIkCAbnj6D21YduYmRwm3oVgZuJjUlEwguoJB00xKJ2mEgDIENObu+mTYr4whMVISgcyMjjlsaH8GoJWUyMbBRNCzrE9qSrS9YmOZIk0ICAELCayduHDYiCF6D4OHW1imwqlzx8Ab5/oS4QcrLETK24RAOhBdCdBUm8gRGULANgQY/GxDInyMbQQ5WIgMsExqXsof+woRbjMpnaQRAsoQMAyjrbG7tUMZQ2KkaAK5E7pqNGMFAU1FJ3FCoOz55oQuiUYhYDmBTLDzKma+xvJCFS3Ab4GM6XKXdUWbYJviKX/nGUT8iG0EiRAhYBMCBJznTYT+xyZyHC1DBlgmtW9TMDLNw54VJqWTNEJADQKMbdWDq8YdvGTeTjUMiYtSCKQDnd8F+LpSctg/lneQ4TnK2z1/g/21ikIhIASsJLBx2kMjq2vqVoDRaGWdSucmxs+8ydBXK61D6leewJZjFg4b2J3dCGBk5dWIAiFgHwKGThMbl7e8ZB9FzlUiAyyTerdozqKqiTve2ApoCt8qbhIsSeMaAkT0v/XxFccQ2g3XmBaj70sg96Y2uzu7iYERKiPSmM6vT7b8WmWP4k0ICIH8CfTO7DjB0LU/qvzYNICsVqUfUf98m+x/lP+loeRKRruWDk57lhizlTQopoRAEQQYnPIlQk2E3GPX8iqVgAywSiX4L/Fpf/QiEN1hYkpJJQScTYBwti8eetjZJkR9qQRyb2h7A9MWMPCpUnPZO563VA+qHi93HNq7S6JOCJSTwMuHP1k7dMTuODOmlLNuBWo96x1+4Edp8dxsBWpLSRsR6JnRea5m8H02kiRShEBlCeh6i29524LKilCnugywTOzl6smRmgPqPJsJOMDEtJJKCDiVQMZLY8fKKWxObZ95ujceFZ1S7aHnAQw2L6u9MhF4ADqd6F0eWmQvZaJGCAiBShPYMmPhxAEj2wVgaKW1WFefBzRoJ9UnWv5iXQ3J7AQCPDlSk6n1vAbCaCfoFY1CwGICr3sTK73yNIp5lGWAZR7LvZnS/tjTIHzM5LSSTgg4kcCdvkToIicKF83mEeDDn6ztHb67m4FJ5mW1Zabf+RKhU22pTEQJASFQcQKpQPReAn224kIsFMDMbw7SjHEHxtvesrCMpHYAgbQ/djcIn3eAVJEoBKwlwLzQlwyfbm0Rd2WXAZbJ/U4Ho6eDSW4RNJmrpHMeATKMud7u1sXOUy6KzSTQ6+88w1D/RCImnad5l4dXm8lOcgkBIaAOgXTw4YPANRsAGqKOq/dzYlziS7TeorZHcbc/Aj3+jhM00v60v3XycyGgPgHjI75E69/V91k+hzLAMpk1t0Y86XVVqwk80eTUkk4IOIYAE3f7ho2aKXthOKZllgjdOvvB4X39g5aDMM6SAnZJyrjBlwxdYRc5okMICAF7EsgEol9m0M/sqc40VVtBesAXb3vNtIySyHEEuoJ3Vvv4oASAqY4TL4KFgHkEuryJllmyebt5QHOZZIBlLs+92dL+6OUgusGC1JJSCNieAAGGAT69IRF+wvZiRaClBNLB6M1g+oalRSqffJeRxcTGFaGeyksRBUJACNiZwPrmBQfUasaLAA6xs86StTEe9iVDZ5ecRxI4mkA6EJsPICafNx3dRhFfAgEGf7khEf5FCSkk9H0IyADLgsui56jOIzwerGWw8LWAr6S0NwEG3hxaO2T8iOdO2mZvpaLOSgIcvLO6lw/awsAIK+tUOrfBaG1MhqKV1iH1hYAQcAaBTdMi0zzVWjdAmjMUF6OSB7Tsrsb6Fee+Xky0xKhB4N3HZmtfhhxupUZDxUWhBLif0DAuHsoUGijr901ABiwWXSGpQOevCPw5i9JLWiFgWwIM/kVDIvwVAGxbkSLMUgK5R6kz6zy5k6g+YmmhiifnVd7ho/zyqGzFGyEChIBjCDBYy/hjfwbRHMeILkYo4yW9Tm9ueq5tdzHhEqMEAcoEYj9n4GIl3IgJIVAYgR/4EqHvFhYiq/MhIAOsfCgVsSbtj40FYY3Kx8YXgUVCFCfAwBs7B1UdNmnJvJ2KWxV7+yCQmRn5KOvaX9S+wwBZZnyyIRmSTWrlt0EICIGCCPTO6Jxq6PwcCEMLCnTWYgZzqy8Zzj1CJi+XEnh9TmRododnPYCDXIpAbLuSAO/wVPcfMXrpWZtdad9i0zLAsggwt7PW+3jnMwwcbVEJSSsEbEiA7/YlwhfYUJhIKhOB1ZMjNQfWeZYxML1MJStV5iFfInROpYpLXSEgBJxNIBWI/ohAlzrbxf7U85bqQdXjD5YvtfYHSumfpwPRuwD6gtImxZwQ+HcCf/AmWk6WzdutuSxkgGUN171ZUzMe8ZNRG4fshWUhZUltGwLMhidLE0avDL1qG00ipOwE0s3Rr0Ej5Y9QH9B56tjl4dVlBywFhYAQUILA5tkPj9YHajYCVKuEoQ8yIae0Kt3efMxtCkQO98Dzkmzmng8tWeN0AgQeYDIOl5NYreukDLCsY7s3czrQ8VtAO8XiMpJeCFSeAOMOXzIk+xxUvhMVU5AOPjEY3J97dHpsxUSUo7DGV/q6wteXo5TUEAJCQF0C6UD0HIDuA6Dwhu7YmuX+6WOSZ6bV7aQ42x+BjD92OxO+uL918nMhoAABuUPf4ibKAMtiwD3+BSdoZDwt3zpYDFrSV5oAaxpNr+9qWVVpIVK/MgQY7VraP+0uIpxfGQXlqsq9AwN1k8euPHV7uSpKHSEgBNQk0Dv9qSG65+0kESao6fBdV8T857UjVp00d3F7VmWf4u2DCfQGH5tmsL5cPg/JVaI4gewA9A+NTbTFFfdZUXsywLIYPwPUG4gtZOA0i0tJeiFQOQJM9/uSLZ+pnACpXGkCW/wLfQOUzR2XPbjSWqysz/Cc0ZA4/TdW1pDcQkAIuIdAT/OCZk3jhOLbTWTJw83eZfLYtXuu7P92mg7EHgRwtpsZiHfFCRD90hdvkTsNLW6zDLAsBpxLn5oR9WsGPc9AVRnKSQkhUF4CTJt3DN4+YdKS8+XkwfKSt021SGvEc+w67WmA5tpGlBVCGH/1JkNzCWAr0ktOISAE3EkgHYx1gBFW2z2/CKoN+OKn7VLbp7j7IAL/n70zj5OrLLP/eW51p7OQMBCBVHWHEAgCCUm6qwIxiJq4ICAQ01XdiqCIG47biM64MTPG3RnFGXEFfyOD4jLVVR2WAZwBJSgYIamqTgJhScKW7qoQIGBiSDrddZ/fp5BRQZZequ593/ee+pd7n+ec77l0uk5V3/vMEwm3AjiUlEjAQQJDfpMc33ZHZ+1+b3w1kAALrAbC/b/R2pWNVbZ61wHyxgDWcQUJBEtA5BuJQufHg13KbSYR2JbMr4gBvSZpqrcWAapVwRvaCumb6z2b80iABKJNYFsqOz+msd+5/g1WAO9PFNOXRjvtaLsvt+e+AU8ujDYFuneTgP4gXsxcwA85G58uC6zGM356g3ZprLK19xEA0wNayTUk0HgCih1PDFZnztvUvb/xy7jBRAI3L13ZdOyu+QUFFpior16aFPqD1mLmffWaxzkkQAIk8JcEysncRYB80WkqqjuqE/0jZq7p3uu0T5p7QQKaurS54r9sGwSHERMJOETg4UQx7fYDjAwKiwVWgGGUO/JfhuDTAa7kKhJoMAF5X6LY+YMGL+F4gwlUOnr+ScX7vMES6yFNh2KYM2tt+v56DOMMEiABEngugXLq2peJDpYV0uw0HcF/JArp9zjtkeZelMBAe897xPP4uyOvE3cIqPxdotR5iTuGzHbCAivAfO6amz3goIneOkCOCXAtV5FAQwio6jrxWl7D+1k0BK8VQ8upayeL7t+iQNwKwWMWWf3HRLH7S2M+nSeSAAmQwAgIbEv2dMbgZQHERnC4rYc82SyYe0ghXbHVAHWPj8C2JdlJsUHv14AsGt8knk0C4RNQ4HcJmfVqKSwaCl9NNBSwwAo453IyvwKO3ysmYKRcFw6BvTEZmn9Y4a21m3HyFUECipXeQPL4KzzIuY7bvztRTM913CPtkQAJGEKgksz/VoElhshpiAyBrh2Qx1+5qHAB3/A1hLD5Q7cls3NiiG0AMMl8tVRIAi9IQEXwujjvjxroJcICK1DcwNNP69oSuwGCNwS8mutIoG4ERPCjGYXOdwqET2OrG1W7Bj2aXJUagr8WgNP/jijw1tZi+r/sSodqSYAEbCWwLZVbHFOp3eVe/IsAACAASURBVNDd6Zf6ckprX+eNTpukuRd+1w+V7cneHyrwTmIiAYsJXHpZceMHVmKlb7EH66Q7/cbD1DRq9zmA7r+Lj5E1NSHqenECeq83/FRqxoZ37CGpaBKoffuqkjz+fwB5veMErosXN54l/MXE8ZhpjwTMIjCQ6vmBqOf2faIEd1UnVE/gDd3NuvaCVLN9wY+m+LEpRQheHuRe7iKBOhF4uGlfdd6hm7r/UKd5HDNCAiywRgiq3odVkrkPKqR2szev3rM5jwQaR0D92jM1E8Wu3sbt4GTTCVQW9b5Dfb3CdJ3j1KcecNKMYtr5b0KMkxNPJwESqDOBgQVXHyNNw+sBtNR5tFHjVOVTraXOfzFKFMUESqDckUtDkAWE74cCJc9l4yQwDMhbEsVOvh8aJ8ixnM4CayzU6nROOZm7HpDT6jSOY0ig4QR8kW+2FTo/2vBFXGAsAYVKJdlb+wbpccaKrIcwxfcSpfQH6jGKM0iABEhgtAT6k70XetBvjPY8u47XHfdOm966bPWyYbt0U209CVRS+UtU8eF6zuQsEmgoAdUrEqUM//y1oZBfeDgLrJDA19buSGbnDCNW+4RtcogyuJoERkRAgSe1Sea03dH5+IhO4EFOEigne74EeJ9x0tyfTT0KGZybKLztMcd90h4JkIChBGp/XlVtmnK3ADMNlVgfWYpcvNTZzXtq1genjVPKqZ++DNqyGcDf2KifmqNGQB9tik1acOjaN22PmnNT/LLACjmJgY78WSLIA2gKWQrXk8CLEdgDbVqaKC1fR0zRJVBOZQ+HepsAmeIyBQE+GS+m/9Vlj/RGAiRgPoH+ZK7bA37m+J9X7fOkeuKMQvdG8xOhwkYRqCxadaL6/q8AOP37RaP4cW5QBGRwGNU3HF7s+k1QG7nnrwmwwAr5qqjdDHl78vgehXSGLIXrSeAFCYjqN+KlzMeJKLoEnr5xe8f8yyF4h+MUColiepHjHmmPBEjAEgIDydwvBPJGS+SOSaZCf52YNv11wj8lHBM/V04qJ3PfAORCV/zQh3MEFILvJwq8vUTYybLACjsBAJvnXNIyeVpirUDmGyCHEkjguQSue2JftXPepu79RBNdAgMd+dd7gv9R1x884euKRF/mqugmTeckQAImEejv6F3iif7WJE2N0eKfmyh2/aQxsznVBgKaWtdcwUNXQXG6DXqpMXIEbr132sZly1av5D37Qo6eBVbIAfzf+sqi7InwvRsVMs0QSZRBAjUCT3pNzckZd5z1AHFEm0A5mV8N4DWOU7gqXqxmBN1Vx33SHgmQgEUEBjpy3xSRj1gkeQxSdVN8n98h/LBsDOzcOeXBBdnZzbFYQQQHueOKTmwnIEC5WpVlbes777Pdiwv6WWAZlGJ/e0+X53lZgyRRSrQJ7PWB17YV07+LNga6H0jl3yOKHzhOYr9flfn85cTxlGmPBCwk0L8g3+Y14W4AB1gofxSS5Uvx4op/4g3dR4HMwUMr7fkT1MMtACY5aI+WbCOg6nviv2FGsbt2jza+DCDAAsuAEP5SQjmZ/zcAHzVMFuVEkIACn2stpldG0Dot/wUBXZKdVN4Xu08EbY6DuTRRTL/fcY+0RwIkYCmBcnv+o/BQ+x3R3Zfqzuanmo845N7lu901SWcjIdDfkf9HT/CFkRzLY0igkQR84P1txfSljdzB2aMjwAJrdLwafrSuVG/7Nb03KvDahi/jAhJ4YQKXXlbc+IGVWOkTUrQJlDtyX4HIJwE4+++FAPfv27lr3uwHz98X7bTpngRIwFQCK7HSe29yflGAhaZqrIcuhV6VKKY7+S2setC0d4ZCpZLs/R6AC+x1QeW2E1Dg54li59v488isJJ19Q2IW5tGp+f2S7MF7BmM3AkiO7kweTQJ1IKC6uvmp5rP4CWgdWFo+orIwN09jUnu0udP/Vqj6H2ktdX3L8rgonwRIwHEC5WRvJ6A5138mi8rSeKmz9idkfEWYwI652QOqE+VqhccP9SN8HYRlXYCbh1uqb5q5pntvWBq49/kJOP2mxObQHzkhf2S1qusBcfx+Bzan5KT27ZDB+YnC2x5z0h1NjZjA059+plb9BKpnj/gkCw8U6Lp4MXOChdIpmQRIIIIEBpK5VQJ5s8vWVfHrxJzqa6WHD9RwOeeReOs/sXe6N6x3ApgxkuN5DAnUg4AoHtlTlQVzNnTuqMc8zqgvARZY9eVZ12mVhdfM09jQGgBT6zqYw0jg+QlU/Gac2HZ7up+ASGAgmTtTIKsAxFym4Qte21ZI3+yyR3ojARJwh0D/CavavapfcsfR8zsRwQfjhfR3XfdJfy9N4LGF2db9sdjtAFpf+mgeQQLjJKDYOaj7U7P7zn5wnJN4eoMIsMBqENh6jd2ezJ2pkJ8oS6x6IeWc5yfwKOCnE8Wu3xAQCdQIVJK5tQpZ5DINAa6ZcVS1k5/yu5wyvZGAWwQUkEoydzEgF7rl7K/cbI0Xq8cI+C0sx3Mekb1yKnsyNFb7UO1lIzqBB5HAmAjoo756y9tKnbUvkPBlKAEWWIYG85eyKu2589TD9wGZaIFcSrSNgGCfiH9afF3XatukU29jCPS3587zPPnPxkw3ZuoTLc17j5h++7m7jFFEISRAAiQwAgK69OaJld07N0Pdfjqs+vq1RF/6k7yB8gguiggcUu7Ivxqi/8P3QxEIOxyLuxV6Tmsxc20467l1pARYYI2UVIjH/fHTtp4VgOf8jTtDxBzV1YNo0pPjd2QKAmhUIdD3nwk83HF1okmGNwOY7DYX/bdEMfMxtz3SHQmQgKsEtnXkPhIT+aar/p7xtb+K6ryZxe4tjvukvZERkIFFuXb4skaAlpGdwqNIYCQE1Bc/9rp43wp+mD8SXCEfwwIr5ABGul6h3kAq/3ZP5VLwh/ZIsfG4FyfwFDx9R2Jdphcsr3itPENgIJn7V4H8g+NA7vGG9yyaseEdexz3SXskQAKOEtCubKy81fu1QE5y1OIfbanmE6VMxmmPNDcaAlJZlE+rjyvc/6BtNFh47NgJ6B/Ex1tm9GVu4If5Y6cY5JkssIKkXYdd/R25j3mCL/Hrs3WAGe0RTwH+2xPFrlp5xRcJPE1gx6Jcx7CPdYB4LiMR9c+Ll7p+5LJHeiMBEnCfQDnZeyqgN7ju1PerZ7T1dV/nuk/6GzmBckcuDZHav+OOf1t85Ex45OgJCHSXqnwoUUr/ePRn84ywCLDACov8OPYOdPS81fO8K1XdfjrYOBDx1BchoNB9XkxeHV+bXktQJPCXBAaSuWsFcobLVAS6YUYx3c57qricMr2RQHQIDCTzvQKscNmxAr9LFDtP4s9tl1MevbdHU/nkkOJWAJNGfzbPIAEMq1c9vXVd941kYRcBFlh25fW0WoVK+YTe13lVrFLgAAstUHJYBBQ7Yxo789C+5Wv4i2BYIZi59+H2nuVN3tP32WsyU2EdVAn2xVQXH1bMbKjDNI4gARIggdAJbD8xO1uHYxsc/31QIXphopBx/Z5foV9PNgl4+v1Qe+9JIrgWgoNs0k6t4RJQ4AlRPSVRyqwLVwm3j4UAC6yxUDPknPLCnlMQ82p/Az7DEEmUYTABAbaoVM9PFLprn1bxRQJ/IrB9wY+m+E2TNwBypNtYNB8/yn+L9PCx7G7nTHckEB0Cf3zQT+5iQC503PWjQ0P7jpm18ZwnHPdJe6Mk8Eh7z0lVz6v9CZjjv8OMEgwPf14CIrjfr/pvb+3r+i0R2UmABZaduf1J9SPJ3IJhSO2mcwnLrVB+Ywk8pLHYq1rXvnlbY9dwuo0Eysn8+wDUHhDh8uvRwZ27Dp/94Pn7XDZJbyRAAtEkUEnmNitkjsvuFfq1RDH9SX6D3OWUx+bt0VQ+PgTcBsXssU3gWREhsHUotu+UWWvPuT8ifp20yQLLgVi3L+g91G/ybwHkWAfs0EK9CShu8ap73sQnrtUbrBvzHk6tOqpJ/U0AJrjh6PldqI+VrX3pz7nskd5IgASiS2BbMvfeGOQypwmo+sPA4sP5Zz9OxzxWc+XUtZOhgzcA8uqxzuB57hIQ6O37hwZP47c47c+YBZb9GT7tYF3q2skJf/C7EDnPEUu0UQ8Cqpc0HehfdOjq7j/UYxxnuEeg3JH/LgR/656zPztS4J4Jk5pOPOS25btd9klvJEAC0SWgqXXNFX3oJgBuv3kXvSpRyDh90/roXsXjd75jbvaA4YnyBcD76PincYIrBBT4dmLawRfK6mXDrniKsg8WWI6lP5DMrwTwaXH82xSOxVZ3OwLsVuAf4sX0ZVK77z9fJPA8BMon5hZhWH4HuP1EU1+qZ7QV+Ah2/k9AAiTgNoFKe/4E9XCH2y5r7qqdiWL3Kvd90uFYCDx9X7iO3AUi+BeFTBvLDJ7jDIG9Cu8TrcUV33bGEY2ABZaDF8EjqVVHVdUvADjQQXu09FIEVHfGvNiJhxVWbH2pQ/nfI01ABpL5NQIsdpuC3h8vpo8WiO+2T7ojARIgAaCSzF2vkNPcZiGb4sUVx/NeWG6nPF535ZPys7BP1wJyyHhn8XwrCTzWFKvOP3Rt93Yr1VP0CxJggeXoxVFpX3WESvU7EDndUYu09bwE9KqWZvnw9NvT/QREAi9GoD/Zc4YHr/YJdpPDpHbvFxxzRCFdcdgjrZEACZDAnwg8/SdUk2JboDjMYSxaFb1wZiHzTYc90lodCAyc8LOZ4k/4KlTOBpTve+vA1IoRip5mD393CH//syKu0Yrk/8ijJWbR8Q8svXxiy++nfhaCjwIy0SLplDpKAgo8ob7/td/v14vnbereP8rTeXjECGzuyB4yRWK1J7Ac4LJ1Vf1haynzbpc90hsJkAAJPJdAuSP/eQj+yWkyqj4gRyZK6Yec9klz4yZQuz9cWR+svRf6pADTxz2QA4wlIMAeAF+bsa/6FeH7IWNzGq8wFljjJWjB+Q8tzM2bEJNrFDjSArmUOFoCqg8MwT9jVqm79iQ5vkjgJQn0d/R83BPv6y95oM0HqO5sOtCfxQcY2BwitZMACYyFgEKlkszfDcgxYznfnnP0m4li5kLwXp/2RBai0v6FvS+PxfQ6BeaEKIOrG0VAcV9Vqm+aWeze0qgVnGsGARZYZuTQcBUPtK/6mwne8KcF3icavowLgiJQherXmic3f5lPVwsKuf17trXnjo55sh7AJPvdvLADhX6otZj5jsse6Y0ESIAEXohAf6qny1Mv6zihYfWxtLUvfZvjPmmvTgQ2L75y2pThKR+E+p93/BYKdSJmwxhRqH5xz4S9Xz/69nN32aCYGsdHgAXW+PhZdbZipVdJHv8GAN8AZK5V4in22QQUtwnkonip8xaiIYHRECinen8K1bNHc46Fx25uaZ60aPrtp/MXGQvDo2QSIIHxE7hrbnbCQRO9mwB51finGT3hpkQxXfvdli8SGDGB7cn8K6rQiwVy0ohP4oHGEVDFehH9ZLyY/l8+1MG4eBomiAVWw9CaO3hd6tLmVn3ZFwFcoHxSoblBPb+yJwH5Tlke/dyiwgVDtomn3nAJ9J/YuzA2rGsVaA5XSSO369BwTF55+Nr02kZu4WwSIAESMJ1AuSM/C4La7QUmm651PPpUq8tbS93XjGcGz40egZuXrmw6+sl5n/A8+QQgfHK7XZfAkwpcdt+0gy9atnrZsF3SqXa8BFhgjZegpefX7o8wcOKqg2XYv04giy21ESnZAv3lH5r3dc65/dzdwvs9RCr7epj940Mdpt0NwRH1mGfqDFWsuW1O9VXdPd1VUzVSFwmQAAkEQeDpe2GlVv0kAt+63TFRqi8/uND9+yC4coc7BBSQx475jwP2TznwpwI5wx1nDjsRLQEtp8QLZzzOb105nPOLWGOBFc3c/+Rau7KxymbvTAi+CJF5EcdhpH2BbhyG94m2aQfdJPyUwciMbBA10NH7Vs/TK1URs0HvWDQK8PsJsdj86WvfvG0s5/McEiABEnCNwNZU9sBJGtsIYKZr3v7Cj4ovn4j3dbr9cBKHAwzbWu390CNbm16j4n9dVTrC1sP9z0dA7xfxPnXP1INW8VtX0b5CWGBFO/8/F1lLb55Y2f3YhVB5T+2xxMQSPgGFbhHgu4li5t/CV0MFNhN44ITsjJbh2CYIDrLZx0tpF8jX4sVOPqjipUDxv5MACUSKQLkj9zGIXOy46WG/Sea13dF5n+M+aa/BBGr/v6jIewU4tsGrOH5kBB6C+JcOTn3Zv81evWzfyE7hUS4TYIHlcrpj8Pb01807ei+C4CIAE8cwgqeMi4AooH+A4F9vLVS/0g3+GdS4cPLkpwmUU/kvQ/Fpp3Go/mFQYzNn96140mmfNEcCJEACoyRQ+3bJ9q3efer4B5QCXB4vpt81Sjw8nAT+isDTD75KHf8hUe8LCkwFlO+Zg79O9in8SxJnZT4tK8UPfj03mkqA/zOamkyIumolVvmEq9vEr577zJveqSHKidBq3VMrDr0W72czftu5I0LGabWBBLYvyM72m2IbABzQwDVhj1YReUu80NkTthDuJwESIAETCVTae5bC825SuPtn5AD2Q+R1iULnrSZmQE32Ebh/8U8PmzA08W0e/C8AMsU+B/YpFsguFf8r6g39JLH27H7e99e+DButmAVWowlbPr/SkT1ExXufqLxbBbMtt2OofN0kKj8cnli9fOaa7p2GiqQsCwlku7KxV22NXafAGy2UP2LJUvtz2+Gp7TM2vHHPiE/igSRAAiQQIQKaWtdc1od+JcDJjtsuxKcd/AreM9TxlAO29/ji66cNDu55FzzvnQAWBrw+Kuu2CfDDIW267PDS8nJUTNPn6AmwwBo9s8iesb0j/2EVfATAEQo0RRZEfYwPQvCQP6z/1LY+k63PSE4hgWcT6O/oXRgTXatAs7tsZBDY35EovvVudz3SGQmQAAmMn8Dji6+cNjg0cRsg08Y/zdgJKj7OjPelrzNWIYVZTWAgmX+LCD4PxSwALVabCV/8MIAHVP1vtZa6vhW+HCqwgQALLBtSMkjj5jnXtzRP/kOipSn2ZQXeapA0e6Qofiy6/59nxI4ekMKiIXuEU6lNBLYv+NEUv3nyQ1CZbpPu0Wv1VyWKXZ2jP49nkAAJkED0CAwkc98WyAcdd74vtn/wiMPufNsjjvukvZAI3DU3O+GgSZihGvsHAT4Ukgy71yp+EWvCB3c9MWng6C2nD9pthuqDJMACK0jaju0aWJQ9RtQ7FYpzAUkB4PX0/BnXbsx+q6pcUUXTDfxarGP/Ixhqp78j935P5HuGyquLrNp9EvbHtGPW2vT9dRnIISRAAiTgOIFt87IHx1pifQBmumxVVT/fWsp81mWP9GYGgW0Ls63NXuxUX+Q8PP0nurzh+wskoyJYq77+xPe9X7St5xNDzbiC7VPBwsG+zIxU/PCinx/fpE0fgHqvFehR/BND3QfBPaLy22Ff/31mX2azkcFRlJMEtp/Ue6i/T+8C8DInDT5jSsX/VGuh619c9khvJEACJFBvAv2p/zrP06b/rPdck+YpdL8IFiYKmXtM0kUtbhMod+RnieADKnoKVI6N+hPdBRhWyFaFv0aa8J3EHZl1bl8BdBcEARZYQVCO2I7aJxFNXuyT6snfQjUWoW9mKeDvFo39+/4pe/991q3nPBGx6GnXEAIDydzlAqndaNThlw5P8mOHHNS34kmHTdIaCZAACdSdwLrUpc2tOv1hhcyo+3CjBsoNiWLn6UZJopjIEKh927FpQvNHVap/B0jtie5Red+tAh1WwfeaJw79yyG3nc0bskfmqg/GaFT+RwqGJrc8i8DmOZe0TJnWdqSqniSiaUBeD+duJq27ReU6FWQhevcTe/37523q3s9LgQTCItC/+Mo2b2hS7YbmB4SlIYC9VY3h1Na16ZsC2MUVJEACJOAcge0Leo/3m/y1gEx0ztyfDe33tbq0rdS9xmGPtGY4gVphfJjOmBVDdYGqdovo6c8UWoYrH7k8Vd0vkJsU1d4m8dY+NW36fbNXL9s38gk8kgRGToAF1shZ8chxEtC52Qn9LVjSJLGPK3DmOMeZcPqFew6b9L2jb+CNB00IgxqAB464fGLLwVN/A8gil3ko8LuKPPbqRYUL+BAEl4OmNxIggYYRUKi3Pdm7SoGzGrbEgMGqOvDUhH1zj7793F0GyKEEEsDT34D0p79HRb5rOw5RXK8i36q2DN8yc033Xtv9UL8dBFhg2ZGTUyrLyfxHAfyb7aZ8v3pGW183H9Nse5AO6e/vWPU6T/z/BeA5ZOs5VnTI1+ET2kpvXe+uRzojARIggcYT6D+xd7pX1QegqP15k5MvgaiqnpcopX/spEGaspJAf3v2TZ4X+28rxT9b9IWJYvrfHfBBCxYRYIFlUViuSGWB5UqS9GESgXLq2snQwfsAaTVJV921qH9potT1/rrP5UASIAESiCCBgWT+swKsdNq6YHez33TsIaXlvBeP00HbY44Flj1ZUal5BFhgmZeJ84pYYDkfMQ2GQKA/mbvIg3wxhNVBrnxqKIb5s9am7w9yKXeRAAmQgKsEyqlrX6b+/vUiSLjqseZLBN+KF9IfcdkjvdlDgAWWPVlRqXkEWGCZl4nzilhgOR8xDQZMoP/Y3uneJN0EwaEBrw5ynfoiH2grdH4/yKXcRQIkQAKuE6i9mY7FYlerovbkaEdfuq8Kf/7MYvcWRw3SlkUEWGBZFBalGkeABZZxkbgviAWW+xnTYXAEFCqVZO5awHtTcFtD2fRY856mIw+5d/nuULZzKQmQAAk4SuCuudkJB0/07lLIHEct/tGWaCk+dfqJsnrZsNM+ac54AiywjI+IAg0mwALL4HBclcYCy9Vk6SsMAuVU7lioFAFMCmN/EDsFqFbVf2NbqeuXQezjDhIgARKIGoEHUrljW1QKACY77H3IR/XUtmL3rxz2SGsWEGCBZUFIlGgsARZYxkbjrjAWWO5mS2fBEti2JDvJG4zdJkBHsJsD33Zdopg+I/CtXEgCJEACESJQSeZ/qMD5blvW7UNDg3NnbTznCbd90p3JBFhgmZwOtZlOgAWW6Qk5qI8FloOh0lIoBAY6cmeLyE9DWR7c0qqvQ6m20lvXB7eSm0iABEggegQeWfzTw6pDLQ+4/I3eWqq+6sfbSplvRC9hOjaFAAssU5KgDhsJsMCyMTXLNbPAsjxAyjeCgJ52fcv2R/beo8ARRghqkAhf/a+0lbo+06DxHEsCJEACJPAXBAZS+Q+I4jsuQ1Hok837/OMO3dS93WWf9GYuARZY5mZDZeYTYIFlfkbOKWSB5VykNBQCgXJHz9ch3sdDWB3cStF9E4b9OS9b3z0Q3FJuIgESIIHoEti2JHtw02DsboXTT7UFBD9NFNLnRDdpOg+TAAusMOlzt+0EWGDZnqCF+llgWRgaJRtF4NFXXj116KmhByFysFHC6ipGfVHv/Hip80d1HcthJEACJEACL0qgvyO7xJPYrwE0uYpKoft0WI5u25Dud9UjfZlLgAWWudlQmfkEWGCZn5FzCllgORcpDQVIQKFSTuZ+LfBODnBt4KsE2DCjuLFDsNIPfDkXkgAJkECECdT+nakk87cA8iqXMaj6A4lBPVI2de932Se9mUeABZZ5mVCRPQRYYNmTlTNKWWA5EyWNhECgnOx5lSB2S+0NRgjrA1kpgO/71VNb+7pvDGQhl5AACZAACTyLwLZUdn5MY7e7f0N3dLWV0jnGTwJBEmCBFSRt7nKNgLNvgFwLyiU/LLBcSpNegiTwwBGXT5xw0NTfiMiiIPcGvkvx00SJ9yYJnDsXkgAJkMBfECinei+G6scch7Jt0PcWzO5b8aTjPmnPIAIssAwKg1KsI8ACy7rI7BfMAsv+DOkgHAKVZO5DCvlWONsD26oS0/nxtZm7AtvIRSRAAiRAAn9FYMcJ2RnDVW8AEM9lPAr/X1uLXZ902SO9mUWABZZZeVCNXQRYYNmVlxNqWWA5ESNNBEzg5qU3Nx2z6/EtgMwKeHWw69T/p0Sp64vBLuU2EiABEiCB5yNQTuXfBsWVqD23z9WXYie8wWMShbc95qpF+jKLAAsss/KgGrsIuPuPkV05REotC6xIxU2zdSCgWOkNJI//ngd5Xx3GGTxCKxPFP+7gQvfvDRZJaSRAAiQQGQLrF/xoyiFNkwuAHOO0acX18QMPXi6rlw077ZPmjCDAAsuIGCjCUgIssCwNzmbZLLBsTo/awyDwSGrVUVX1NwCYHMb+gHb6vo93t/Wl/zOgfVxDAiRAAiQwAgKVjt7XqOhNAJpGcLilh+iQVrG4dX2mZKkByraIAAssi8KiVOMIsMAyLhL3BbHAcj9jOqwvgXIydyMgr6/vVLOmicjqGYUVrxWImqWMakiABEiABModPT0QL+MyCYVueXKfP2/epu79Lvukt/AJsMAKPwMqsJcACyx7s7NWOQssa6Oj8BAIbF/Uu9z39aoQVge4UtQfHn5924buXwW4lKtIgARIgARGSGBbKjs/prG1AFpGeIqlh/nvTxS7LrVUPGVbQoAFliVBUaaRBFhgGRmL26JYYLmdL93Vj8Bdc7MTDpoY+y2AVP2mmjdJgctbi+l3maeMikiABEiABP6PwEAyv1KAzzpO5KGW5r0Lpt9+7i7HfdJeiARYYIUIn6utJ8ACy/oI7TPAAsu+zKg4HAKVVP6fVPH5cLYHs1WAIRmuHjNjQ/cDwWzkFhIgARIggbEQqHRkD/El1i/AhLGcb8s56uPy1j5+qGJLXjbqZIFlY2rUbAoBFlimJBEhHSywIhQ2rY6ZwLa27KSmQ2NbFYiPeYgVJ/oXxYtdXxGA976yIi+KJAESiDKB/o5sxpNYFoCz7yEE+L0My8tnbOjcEeWs6b1xBFhgNY4tJ7tPwNl/fNyPzl6HLLDszY7KgyGgWOmVO+ZfJoJ3B7MxrC16T6KYOS6s7dxLAiRAAiQwegIDyfxvBVgy+jOtOuPmJ/ZVhsDO9AAAIABJREFUT+UN3a3KzBqxLLCsiYpCDSTAAsvAUFyXxALL9YTpb7wEKu35E9TDHeOdY/j5Cug7EsXMlYbrpDwSIAESIIG/INCfyi+LKW5UIOY2GD01Ucz8j9se6S4MAiywwqDOna4QYIHlSpIW+WCBZVFYlBoKgXIq/79QvCGU5UEtFVwfP7J6lvR0V4NayT0kQAIkQAL1IVDuyP8AgvfUZ5qpU3TTvdOmL1y2etmwqQqpy04CLLDszI2qzSDAAsuMHCKlggVWpOKm2VESKLdn3wYv9pNRnmbd4T6GlrQV3/o764RTMAmQAAmQAAYWZY/x/NidCjS5jEPV/1RrqetfXPZIb8ETYIEVPHNudIcACyx3srTGCQssa6Ki0IAJ6NKbmyq7Hl8PyNyAVwe6TqA/jBczjt/fK1CkXEYCJEACgRMod+Q+BZEvu3xDdwDbIBOOTRTOfCpwwFzoLAEWWM5GS2MBEGCBFQBkrng2ARZYvCJI4PkJlFP5z4vKPyrU3Z/Nih2D6h0zu2/Fk7wOSIAESIAE7CVQTl07Gbp/E4BZ9roYgXLVfKKUyYzgSB5CAiMiwAJrRJh4EAk8LwF33yQxcGMJsMAyNhoKC5FAOZU9HBq7G8DkEGU0frXopxOFzFcbv4gbSIAESIAEGk2gkurpUo39F1z+4AXY7w0PpWZseOudjebJ+dEgwAIrGjnTZWMIsMBqDFdOfRECLLB4eZDAswnUvnFVTvb+hwDnO81GtS9eSicFok77pDkSIAESiBCBgWTuFwJ5o9OWFTfGvVlvksKiIad90lwgBFhgBYKZSxwlwALL0WBNtsUCy+R0qC0MAv3J3td60F+GsTvInVVUO2cWu1cFuZO7SIAESIAEGktgYFH+leLjN47fCwuq+rbWUuZnjaXJ6VEgwAIrCinTY6MIsMBqFFnOfUECLLB4cZDAswmUU7mbobLUZS4K/e/EtOkrhI8jdzlmeiMBEogggdq3iLcn85co5ENu29dN8bPunC8rV/pu+6S7RhNggdVowpzvMgEWWC6na6g3FliGBkNZoRAY6Mi9S0T+I5TlwS3dp8PV9tYN3fcGt5KbSIAESIAEgiLwaCofH1LUfsZPDWpnGHtE9fMzSpmVAvBP4cMIwJGdLLAcCZI2QiHAAisU7NFeygIr2vnT/Z8JPPrKq6cO7R2u3bi91WUuonpFvJR5p8se6Y0ESIAEok6g3JH7FES+7PKfEirwuKfV4+Kl7kejnjf9j50AC6yxs+OZJMACi9dA4ARYYAWOnAsNJdDfkf+CJ3KR009vUjy4Z/ekY4/ecvqgoTFQFgmQAAmQQB0I6Er1ytf0FgVYWIdxxo4QaDZezLzFWIEUZjwBFljGR0SBBhNggWVwOK5KY4HlarL0NRoC21LZ+TGNlQDERnOedceq/l2ilLnEOt0UTAIkQAIkMGoC5WRPJ+DlR32ibScoXpMopX9tm2zqNYMACywzcqAKOwmwwLIzN6tVs8CyOj6KrwMBBaSSzP8YwDl1GGfyiGK8WD1R0F01WSS1kQAJkAAJ1I/AQDJ3jUDOrN9E8yYp8Kv7pm1847LVK4fNU0dFphNggWV6QtRnMgEWWCan46g2FliOBktbIyZQTl71RoF/Q+3JTSM+ycIDRWVpvNR5i4XSKZkESIAESGCMBB7p6F1YFe0b4+kWnSbvSxQ7f2CRYEo1hAALLEOCoAwrCTj95snKRCIgmgVWBEKmxRclUE7m1wFIuYzJV71+u/f4mxcVLhhy2Se9kQAJkAAJPJtA7cOZ7aneb6riw46z2Zoopuc47pH2GkCABVYDoHJkZAiwwIpM1OYYZYFlThZUEjyBSip3nqpc7vJTmqDYWZ1YPXrmmu6dwRPmRhIgARIggbAJ6NzshMrE2BYAM8PW0sj9qvrVRCn9GYFoI/dwtlsEWGC5lSfdBEuABVawvLkNAAssXgZRJfBoKh8fUmxz/cbtovh2vJR2/ZP3qF7G9E0CJEACIyLQ35H/uCfyNaeftAv1ddif27qh+94RQeFBJACABRYvAxIYOwEWWGNnxzPHSIAF1hjB8TTrCQy05/9FPHzCeiMvYkChW0RaFiYKZz7lsk96IwESIAESeHECuvTmpvKunb8WYInLrFTx89ZS+myXPdJbfQmwwKovT06LFgEWWNHK2wi3LLCMiIEiAiZQTq5KAdU1gDQHvDrQdb7oO9sKmSsCXcplJEACJEACRhIoJ3tPBfQGI8XVUZSof3q81OW8zzoii/QoFliRjp/mx0mABdY4AfL00RNggTV6ZjzDfgLReKy4bkzI4ynhjdvtv2DpgARIgATqRKCSzF+twFl1GmfkGAXWJIqdJwvEN1IgRRlFgAWWUXFQjGUEWGBZFpgLcllguZAiPYyGQDm16hSoX/tk1hvNeZYdO9g8XF14CO8DYllslEsCJEACjSXw+OJ82/5h2aSqUxu7KdTpKqofjJcy3wtVBZdbQYAFlhUxUaShBFhgGRqMy7JYYLmcLr09l8A9x1w9ddqU4T4AR7pMx4fmW4/y3yI93VWXfdIbCZAACZDA6AgoVCrJ/MWAXDi6M207Wh+d0uIfeyCfwGtbcIHrZYEVOHIudIgACyyHwrTFCgssW5KiznoQKCdz7wXkUgAu/7zdMTS079hZG895oh7MOIMESIAESMAtAtqVjZW3evcIZI5bzp7tRuF/PVHs+oQA6rJPehsfARZY4+PHs6NNwOU3VNFO1mD3LLAMDofS6kqgf0G+zWvCw46XV7Vm7nPxYnplXeFxGAmQAAmQgFMEnvlA5zKnTD2PGfU02bouU3LdJ/2NnQALrLGz45kkwAKL10DgBFhgBY6cC0MiMJDMf0eAD4S0Pqi1DzbtO3j+oZuW/SGohdxDAiRAAiRgH4G75mYn/E2L9ysReaV96kejWHsTxUx6NGfw2GgRYIEVrbzptr4EWGDVlyenjYAAC6wRQOIh1hMod+QWqcitArRYb+aFDahCl7cWM9c67JHWSIAESIAE6kRgeyq3WFV+q24/1ESBajpR7F5VJ2wc4xgBFliOBUo7gRJggRUobi6rEWCBxevAdQKKld725PG3KeQVLntV6L0JOWK+FBYNueyT3kiABEiABOpDoHZD9+3J/HUKOa0+E42dcndZHlu4qHAB/300NqLwhLHACo89N9tPgAWW/Rla54AFlnWRUfAoCVQW9SyFejepIjbKU206/CnIhFmJwpmP2SSaWkmABEiABMIl8MDSmye27NpZuz/kIeEqaeh2VcGHWgvp7zZ0C4dbSYAFlpWxUbQhBFhgGRJElGSwwIpS2tHzWunIHqLw7oHIwS67F+DyeDH9Lpc90hsJkAAJkEBjCJRT+S9A8Y+NmW7M1P3ie8fE+1Y8aIwiCjGCAAssI2KgCEsJsMCyNDibZbPAsjk9an8pAgOpnr8X9b72UsfZ/d/1UVF/XrzU/ajdPqieBEiABEggDAI6NzuhMim2EYqXh7E/sJ2ilyQKmb8LbB8XWUGABZYVMVGkoQRYYBkajMuyWGC5nG60vT3c8bNEkzQ/DIjLfzoIEf1AvJD5XrTTpnsSIAESIIHxECgnezoBLz+eGVacq00nJErL11mhlSIDIcACKxDMXOIoARZYjgZrsi0WWCanQ23jIVBO9f4UqmePZ4bp56rqwITJzccdctvy3aZrpT4SIAESIAFzCWyec33L5Gl7Vwvg9ANPANyUKKbfYG4SVBY0ARZYQRPnPpcIsMByKU1LvLDAsiQoyhwVgf72bLvneWsAmTiqE+06eFB9vK61L32bXbKplgRIgARIwEQCD6dWHdWk1fWATDFRX300qa/Am1uLmWvrM49TbCfAAsv2BKk/TAIssMKkH9HdLLAiGrzDth9YevnEll1T7wXkcIdtAvBvjR+lS6Wnu+q2T7ojARIgARIIgoBCpdLR+18QdAWxL6wdCjy53/dmz+5b8WRYGrjXHAIssMzJgkrsI8ACy77MrFfMAsv6CGngOQTKC/MrEEMOgOcuHN1TrfrHzFzfPeCuRzojARIgARIImsA9x1w99cApw/cqEA96d4D71Ff9+7ZS5hsB7uQqQwmwwDI0GMqyggALLCtickskCyy38oy6mx0nXDdjeHhfHwSHucxCgH+NF9OfdNkjvZEACZAACYRDoL8j/3FP8PVwtge2da961Y7Wdd33BraRi4wkwALLyFgoyhICLLAsCcolmSywXEqTXgY6cl8RkU85TUJ051NDTx03Z8M7djjtk+ZIgARIgARCIbBtSXZSbNC7E5AjQxEQ1FLRKxKFzDuDWsc9ZhJggWVmLlRlBwEWWHbk5JRKFlhOxRlpM1sW/OjQSU2THxK3b9yukOHOROEtV0U6bJonARIgARJoKIGB9p6TPM/7tQKxhi4Kdbj6UCxOlDLrQpXB5aESYIEVKn4ut5wACyzLA7RRPgssG1Oj5ucS0K5srLwldoMIXH809tZHh/csXLjhHXt4FZAACZAACZBAowjcNTc74aCJsV8COLlROwyZW3xiX3XJvE3d+w3RQxkBE2CBFTBwrnOKAAssp+K0wwwLLDtyosoXJ1Bpz5+gHn4DoMVdVrpPPZzUui5TctcjnZEACZAACZhC4MHUj+MTdNLdgBxoiqa669Da/dy1s7Wv6+q6z+ZAKwiwwLIiJoo0lAALLEODcVkWCyyX042GtweWXj6xZdfUhwE5xGXHvmq+rZTJuOyR3kiABEiABMwiUE7lvguVvzVLVb3VaBXSMiNROPOxek/mPPMJsMAyPyMqNJcACyxzs3FWGQssZ6ONjLFye+698OQyxw3vFX//3Hjf2Q867pP2SIAESIAEDCLw5Mn/fdBTewbvjsDTfVfGi+nPGYSeUgIiwAIrINBc4yQBFlhOxmq2KRZYZudDdS9OYMuC3kOnNGmfAnGnWYl+OlHIfNVpjzRHAiRAAiRgJIGBZM/5Au+HRoqrmyjdMziERbM3Zu6p20gOsoIACywrYqJIQwmwwDI0GJdlscByOV33vZU7en4A8d7juNPdkMEjE4W38U8bHA+a9kiABEjARAK6JDupss/bDJFWE/XVUdN1iWL6jDrO4ygLCLDAsiAkSjSWAAssY6NxVxgLLHezdd3ZzlT2wH3qDQAyxWGvKr7/2nhf12qHPdIaCZAACZCA4QS2JbNzYojdBWCC4VLHI2/Yk1hyRuHNG8czhOfaRYAFll15Ua1ZBFhgmZVHJNSwwIpEzM6Z3Dzn+pYp0/bcBngp58z9hSEB1sw4qvoq6emuuuyT3kiABEiABMwmoFjpbU/Ov0qBM81WOm51D+9p3jv/6NvP3TXuSRxgBQEWWFbERJGGEmCBZWgwLstigeVyuu56q3T0nKbi/TcAz12X2CcxvDq+Nr3WYY+0RgIkQAIkYAmBrans4ZM0tgHAgZZIHoNMqX3z+fx4X+aKMZzMUywkwALLwtAo2RgCLLCMiSI6QlhgRSdrV5zq0pubtu/a+ZACCVc8Pa8P1e8nShnHH13udII0RwIkQALOEaikcv+sKq4/rW+wOlhNzLyre6dzAdLQXxFggcWLggTGToAF1tjZ8cwxEmCBNUZwPC00AuVk/jMAvhSagEAW69D+Jv+YI+7ofiCQdVxCAiRAAiRAAiMg0H9i73RvWO8FMH0Eh1t7iADfjhfTH7bWAIWPmAALrBGj4oEk8FcEWGDxogicAAuswJFz4TgIbFuSPbhpMHanAvFxjDH9VFXoh1uLme+YLpT6SIAESIAEokdgYFHvcvE1DyDmqnsBdg+jmpxZ7N7iqkf6+iMBFli8Ekhg7ARYYI2dHc8cIwEWWGMEx9MCJ1C7gWwlNT8HxYrAlwe5UNHfPLlp7iG3Ld8d5FruIgESIAESIIGREKg9SGXytKf6BHLsSI63+JhCfNrBr5DVy4Yt9kDpL0GABRYvERIYOwEWWGNnxzPHSIAF1hjB8bTACTzzCO/ao60nBr48sIWiqnpKayl9U2AruYgESIAESIAERkmgf+HPX+7Fmmv/Jk8Y5anWHC7AsEp1WaLQfas1oil01ARYYI0aGU8ggT8RYIHFiyFwAiywAkfOhWMgUPu0d8rUp34DkRPGcLpFp/jXJYpdZ1gkmFJJgARIgAQiSmAgmbtcIO903P5DQ0P7OmZtPOcJx31G1h4LrMhGT+N1IMACqw4QOWJ0BFhgjY4Xjw6HQDm56lzA/3E42wPbun84hpMPX5teG9hGLiIBEiABEiCBMRJ48MTs7AnV2Hoopo5xhB2nqX48Ucp8ww6xVDlaAiywRkuMx5PAnwmwwOLVEDgBFliBI+fCURLQlSu9yjXHPwDI4aM81a7D1f9KotRVe8IiXyRAAiRAAiRgBYFKR+5vVeS7Vogdu8jde5r3th19+7m7xj6CZ5pKgAWWqclQlw0EWGDZkJJjGllgORaog3bKqdzFUPmYg9b+wpJWq1V/1sz13QNu+6Q7EiABEiABlwg80b7qb/aKfz8EB7nk67leVPVniVLmHAHUZZ9R9MYCK4qp03O9CLDAqhdJzhkxARZYI0bFA0MgsG1e9uBYS+xeAC8LYX1QK/2q4IKZhfT/C2oh95AACZAACZBAvQj0J3tf60FvcPmG7oDu8Zr8+TPu6H6gXtw4xwwCLLDMyIEq7CTAAsvO3KxWzQLL6vicFq9Y6ZWT828U4LVOGwVKiWI66bhH2iMBEiABEnCYQDmZ+xUgyxy2CEAfisvjR0vhgiG3fUbLHQusaOVNt/UlwAKrvjw5bQQEWGCNABIPCYXAw8meVzXB+3UoywNdWj0tUez+RaAruYwESIAESIAE6kig0pGdC/H6FNJcx7EmjupMFNOrTBRGTWMjwAJrbNx4FgnUCLDA4nUQOAEWWIEj58IRENg855KWA6a13qLA4hEcbu0hAvw8Xkyfba0BCicBEiABEiCBZwiUO3IXQ1y/ZyXuH/S91Oy+FU8yeDcIsMByI0e6CIcAC6xwuEd6KwusSMdvrPltHT0fjol3ibEC6yNsuApNzSxmNtRnHKeQAAmQAAmQQHgEdqauOXyfDt0NYHJ4KgLYrPhKopTmU4MDQB3EChZYQVDmDlcJsMByNVmDfbHAMjicCEsrJ/MPApjlMgIFViaK6c/ziUYup0xvJEACJBAtAgPJ7FsEsZ877vrJaks1MXNN917HfUbCHgusSMRMkw0iwAKrQWA59oUJsMDi1WESAYVKJdn7PQAXmKSrAVoqLc17j51++7m7GjCbI0mABEiABEggFALblmQnxQa9EiDHhCIgqKWqN9x74J1nLVu9cjioldzTGAIssBrDlVOjQYAFVjRyNsolCyyj4oi8mEdP7H35/mHtE2CSwzAUkAsSxc4fOOyR1kiABEiABCJKoLxw1SmIVf8bbt/Qfb/4ODnel14b0Zidsc0Cy5koaSQEAiywQoAe9ZUssKJ+BRjlXwaS+esFONUoVXUWo6q/bi1lXlPnsRxHAiRAAiRAAsYQKCdzOUDSxghqhBDFffHlncfJSvEbMZ4zgyHAAisYztziJgEWWG7marQrFlhGxxMpceX23JvhifOPpvbUe/2M0opfRipcmiUBEiABEogUgcrC3Dz1sAEinuPGL0gU05c57tFpeyywnI6X5hpMgAVWgwFz/F8TYIHFq8IEArr05qbKrp1rACwyQU8DNfw4UUy/o4HzOZoESIAESIAEjCAw0JH7nIj8sxFiGiZC72/e09x+yL3LdzdsBQc3lAALrIbi5XDHCbDAcjxgE+2xwDIxlehpGujo/aSIftVx53vF9+bG+1bUnrDIFwmQAAmQAAk4TWD7gt5D/Sa9D8CBLhsV1e/PKKU/IBB12aer3lhguZosfQVBgAVWEJS541kEWGDxggibwPYF/zPFj/1hKwSHha2lkfsV3spE8c2f5y+4jaTM2SRAAiRAAiYR6G/v6fI8L2uSpgZo2V1tqR4xc033zgbM5sgGE2CB1WDAHO80ARZYTsdrpjkWWGbmEhVVtcfxVZK57wPyPrc96z3xon+8oLvqtk+6IwESIAESIIFnExhI9vxW4C1xmYtAfzlj2vRTZfWyYZd9uuiNBZaLqdJTUARYYAVFmnv+RIAFFi+GMAlUFq06UX3/9jA1BLBbBf6748WuywPYxRUkQAIkQAIkYBSBgfbeN4in1wNoMkpYncWI+qfHS1031HksxzWYAAusBgPmeKcJsMByOl4zzbHAMjOXqKgqd+RvgOBUt/3K/8aLK07lnw66nTLdkQAJkAAJvDCBSrL3hwo932VGIrgzXkjPd9mji95YYLmYKj0FRYAFVlCkuedPBFhg8WIIi0A5lX8bFFcCcPpnnwcsmVFM/y4sztxLAiRAAiRAAmET6F/485d7seZ7XP83H6qfTpQyrj+UJuzLqa77WWDVFSeHRYyA02/iIpalNXZZYFkTlVNCFSu9SvL4jYDMdcrYc8wo/J8kipm389tXLqdMbyRAAiRAAiMh0J/MXeRBvuB4ibXNG95z3IwN79gzEiY8JnwCLLDCz4AK7CXAAsve7KxVzgLL2uisFt6/KHeR58sXrTbx0uJ3xFuqR8ia7r0vfSiPIAESIAESIAG3CWyec33LlGl7NwE40mWnPvDj1mLnefzwyo6UWWDZkRNVmkmABZaZuTitigWW0/Eaaa7S/rMj1JtQ+wV2kpEC6ybKvyhR7Ppy3cZxEAmQAAmQAAlYTqCc7DkH8Gq3D3D5NewNS8eMDZ13umzSFW8ssFxJkj7CIMACKwzqEd/JAiviF0AI9svJ3GWAvDeE1cGtFJTieGyxFC4YCm4pN5EACZAACZCA+QTKyfwvALzRfKVjV6iKGxMHbjxdVq8cHvsUnhkEARZYQVDmDlcJsMByNVmDfbHAMjgcB6VV2nuWqufd7KC1Z1tSzSRKmbzzPmmQBEiABEiABEZJoJy86lWC6s0KxEZ5qlWHq/pnt5a6fm6V6AiKZYEVwdBpuW4EWGDVDSUHjZQAC6yRkuJx9SBQTuZ/BWBZPWaZOkNF/jdRWHGaQHxTNVIXCZAACZAACYRFQKFSSfZ+D8AFYWkIaO+diWJ6fkC7uGaMBFhgjREcTyMBx5/IwYANJcACy9BgHJTVn8qd56n8EIDnoL3/s/QURFOJQqb2qHC+SIAESIAESIAEnofAo6l8fEj1HkCmOQ3I1y8l+jL/6LRHy82xwLI8QMoPlQC/gRUq/mguZ4EVzdyDdr158ZXTDhiadLcCiaB3B7pP9Yp4KX0+nzwUKHUuIwESIAESsJBAOdnzGcCrPZHY3fdAgp2DXnXe7LXd2y2MKBKSWWBFImaabBABd394NwgYx46fAAus8TPkhJcm0L8od5HnS+2XVGdfCpQTxc42llfORkxjJEACJEACdSYwkMyvF2BBnceaNU7linip83wB1CxhVFMjwAKL1wEJjJ0AC6yxs+OZYyTAAmuM4HjaiAlsX9R7vO9rAcCEEZ9k44GiH00UMt+0UTo1kwAJkAAJkEAYBPqTuW4P8l9h7A5wp4pWl8VL3bcEuJOrRkiABdYIQfEwEngeAiyweFkEToAFVuDII7ewnMz9GJBzHTdeHJy265WzV5+/z3GftEcCJEACJEACdSNQu6F7OZm/RiBn1G2ogYMU+stEMX0KH/BiXjgssMzLhIrsIcACy56snFHKAsuZKI00sq29Z2nM8242UlwdRVW1unQmP1mtI1GOIgESIAESiAqBR5K5BVVIn9P3wkLt7wflXa3FzsujkqstPllg2ZIUdZpIgAWWiak4rokFluMBh2jvmcdkrwOQDFFGw1cLcMuMo6qvk57uasOXcQEJkAAJkAAJOEbg6d8X2nu/Dw/vc8zac+1sjRc7j+a9Ms1KmQWWWXlQjV0EWGDZlZcTallgORGjkSbKHfm3Q/Q/AfGMFFgfUY9XB6svn3lX9876jOMUEiABEiABEogegc2nXd8yefveLSJoc9m9in61tZD5tMsebfPGAsu2xKjXJAIssExKIyJaWGBFJOiAbe44ITtjuOr1AxILeHWg61T1ktZS5u8CXcplJEACJEACJOAggUp7z9+r533NQWvPsqRe07Gt65bf67pPW/yxwLIlKeo0kQALLBNTcVwTCyzHAw7JXjmZ+yIgF4W0Ppi1qgP3HnjnEctWrxwOZiG3kAAJkAAJkIC7BJ659cBaACl3XQLw9cpEX+btTnu0yBwLLIvColTjCLDAMi4S9wWxwHI/46AdPpTMpprh3QrIxKB3B7lPVM6Llzp/FORO7iIBEiABEiABlwlsa8+dHvPkOpc9AuqLxs6Il1bc4LZPO9yxwLIjJ6o0kwALLDNzcVoVCyyn4w3F3EAyV3sc9pmhLA9oqaqu33/g7lfMXn3+voBWcg0JkAAJkAAJOE9AV6pXuab3GgBvctmsAr9LFNMnSe3hhHyFSoAFVqj4udxyAiywLA/QRvkssGxMzVzNj3T0LqkKbgPU5Z9ngzHx5h1WWLHV3CSojARIgARIgATsJLB9Qe+hfpNuATDVTgcjU60q724tdf5wZEfzqEYRYIHVKLKcGwUCLr/hi0J+VnpkgWVlbEaKfvSVV08d2ju8EcAsIwXWSZSqXpsopd8sEL9OIzmGBEiABEiABEjgGQK1e2GVO3q/KYIPOw7lMciE4xKFMx9z3KfR9lhgGR0PxRlOgAWW4QG5KI8FlouphuOpnOx9r0C/r4AXjoIAtgoe8YZkwYwNnTsC2MYVJEACJEACJBBJAtuWZCd5g94GgcxxGYCv/lfaSl2fcdmj6d5YYJmeEPWZTIAFlsnpOKqNBZajwQZsq39xvk2GdKtAJgS8OtB1KvrZ1kLm84Eu5TISIAESIAESiCCBcjL/PgCXum5dPU22rsuUXPdpqj8WWKYmQ102EGCBZUNKjmlkgeVYoCHZGejIX+L+V/11e7XFP3Lmmu69IWHmWhIgARIgARKIDAHtysYqW2N3AEg6bVoklyh0djnt0WBzLLDrCXQGAAAgAElEQVQMDofSjCfAAsv4iNwTyALLvUyDdjSQyidF8RsAk4PeHeA+XwRnxQtpxx/tHSBRriIBEiABEiCBlyCwPZl/hQ/cCiDmMKyqD3lzW7Hzvx32aKw1FljGRkNhFhBggWVBSK5JZIHlWqLB+nn609EtsVsgeGWwm4PdpsD6xK5Ji2XL6YPBbuY2EiABEiABEogugWxXNnbyVu9aQE5zmYJC731yn79g3qbu/S77NNEbCywTU6EmWwiwwLIlKYd0ssByKMwQrGxbkFvc1CS/dfrG7cC+aku1deaa7p0hIOZKEiABEiABEog0gWc+LNsBwcEug/D94Xe29b3lCpc9muiNBZaJqVCTLQRYYNmSlEM6WWA5FGbAVrbNyx4ca4ltAXBQwKsDXSfA5fFi+l2BLuUyEiABEiABEiCBPxEoJ/NfAuD40/p0n/ix4+J9Kx5k9MERYIEVHGtuco8ACyz3MjXeEQss4yMyVuBAMvcPAvlXYwXWR9iOYd3fcXjp7HJ9xnEKCZAACZAACZDAaAnsmJs9YLglVoDg5aM916bjfeDf24rpC23SbLtWFli2J0j9YRJggRUm/YjuZoEV0eDHafvhjqsTTTK82fEbt8OX6gfaCt3fGycunk4CJEACJEACJDBOAuVkbyeg+XGOMf10VcGi1kK6aLpQV/SxwHIlSfoIgwALrDCoR3wnC6yIXwBjtD+QzP1cIG8Z4+l2nKa606tOPXzGhjfusUMwVZIACZAACZCAuwTWpS5tbtXpBYXMd9clIJBfxoudr3fZo0neWGCZlAa12EaABZZtiTmglwWWAyEGbGFb8qcLYmhZ4/K3rxTYr1pd2lbqrvnkiwRIgARIgARIwAAC29pzR8c8qX076QAD5DRKwrD4ujzel7m+UQs4988EWGDxaiCBsRNggTV2djxzjARYYI0RXERP27YkOyk2GFsP4GiXEQjwqxlHVU+Rnu6qyz7pjQRIgARIgARsIqBQKSfzP3P+W+DAE5N878iD+lY8aVM+NmplgWVjatRsCgEWWKYkESEdLLAiFHYdrA6ckDtTqnI1at9wd/Ql0KEmkVmHFNIVRy3SFgmQAAmQAAlYS2DzaZe0TNneWoG4/RRkhX6otZj5jrVBWSKcBZYlQVGmkQScfUNoJG2KepoACyxeCCMlsLkje8gUid0J4NCRnmPjcQr9emsx8w82aqdmEiABEiABEogCgXJH7mMQudhtr7qnqRkdh96eqT00h68GEWCB1SCwHBsJAiywIhGzWSZZYJmVh8lqKqn8V1XxSZM11kHb48PatODw0vJyHWZxBAmQAAmQAAmQQAMI7JibPWBoolcSyJwGjDdmpACXx4vpdxkjyEEhLLAcDJWWAiPAAisw1Fz0fwRYYPFaGAmBSkf2EBXvAUCmjOR4S49RUXTHS+mcpfopmwRIgARIgAQiQ2B7Mv8KH7gVQMxV0yKoigy1z1j31to34PlqAAEWWA2AypGRIcACKzJRm2OUBZY5WZiqRLuyscoW7yaILDVVY3106UPVFv+4mWu699ZnHqeQAAmQAAmQAAk0isC61KXNcZ3+G4EsbtQOQ+au37NrYPHRWz4yaIgep2SwwHIqTpoJmAALrICBcx3vgcVr4KUJbEvlFsdUbgHQ8tJHW3vEoMTwqvja9FprHVA4CZAACZAACUSMwMAJV82U6vBGQA502HoVoplEIXOVwx5Ds8YCKzT0XOwAARZYDoRomwV+A8u2xILVu33Bj6b4scl3QWRWsJuD3SbAf8WL6bcGu5XbSIAESIAESIAExkug0tFziYr34fHOMfl8UfxBvQmzE4UzHzNZp43aWGDZmBo1m0KABZYpSURIBwusCIU9BqvlZP59AC4dw6kWnaJV8WNz4n0rHrRINKWSAAmQAAmQAAkAePSVV08d2jv8MIC/cRmIqn62tZT5vMsew/DGAisM6tzpCgEWWK4kaZEPFlgWhRWw1P4Tr5juDR+wEUA84NXBrlP9dKKU+WqwS7mNBEiABEiABEigXgQq7bnz1JP/rNc8E+cIZNewv3fRzL5zNpuoz1ZNLLBsTY66TSDAAsuEFCKmgQVWxAIfhd1yMncZIO8dxSkWHqq7vGHv6BkbOndYKJ6SSYAESIAESIAEAOyYmz1geKJ3FyCHuwxEgGvixfRylz0G7Y0FVtDEuc8lAiywXErTEi8ssCwJKmCZz/wiuB2QKQGvDnKdxjx542HrOm8Mcil3kQAJkAAJkAAJ1J9AuSM/SwSbFWiu/3RTJmp1aGjw5bM2nnO/KYps18ECy/YEqT9MAiywwqQf0d0ssCIa/IvYrj2WulVftk6BBU7TEdwRL3S+QiDqtE+aIwESIAESIIEIEFCobE/mr1HIGS7bFaCyc1/15fM2df/BZZ9BeWOBFRRp7nGRAAssF1M13BMLLMMDCkFepWPVaSr+9SGsDmylAvtVq0vbSt1rAlvKRSRAAiRAAiRAAg0lsC2ZnRNDbK3rN3T3gfPbimmn7/nV0AvlL4azwAqKNPe4SIAFloupGu6JBZbhAQUsb9uS7KTYYGw9gKMDXh3sOpHvJwqdfxvsUm4jARIgARIgARJoNIGBjtw/i8jnGr0n1PmKJ/1mmdN2R+fjoepwYDkLLAdCpIXQCLDACg19dBezwIpu9s/nvJzsvQjQLzpORYdimDNrbZr3j3A8aNojARIgARKIHoGH5v/koObmlm2O38cTAv12vJj5cPQSrq9jFlj15clp0SLAAitaeRvhlgWWETEYIWLz4iunHTA06R4F4kYIaowIVehHWouZbzdmPKeSAAmQAAmQAAmETWCgI3+WCHoBxMLW0qj9AvxehqsdMzZ0P9CoHVGYywIrCinTY6MIsMBqFFnOfUECLLB4cdQIaFc2VtkS+xkEXU4TUTy466mmBcfeu3y30z5pjgRIgARIgAQiTOCBpZdPbNk9dQ1U2l3GoKq/e3LQf828Td37XfbZSG8ssBpJl7NdJ8ACy/WEDfTHAsvAUEKQtCOZnTOM2J0AWkJYH+DKptMSxeW/CHAhV5EACZAACZAACYRA4JHUqqOqfvU+iHghrA9kpQiqqGJJvC9du3E9X2MgwAJrDNB4Cgk8Q4AFFi+FwAmwwAocuXELdenNTZVdj68BZJFx4uoqSG9IFDOn13Ukh5EACZAACZAACRhLYCCZu1wg7zRWYB2EKXTbxObJx0+//fRddRgXuREssCIXOQ3XkQALrDrC5KiREWCBNTJOLh9VTubOBeTHLnsEMFwVPXlmIXO74z5pjwRIgARIgARI4BkCO5JXz6liqKCQaS5DEZF/iBc6v+6yx0Z5Y4HVKLKcGwUCLLCikLJhHllgGRZIwHJ0bnZCZeLTfzp4dMCrg10nuDhRSP99sEu5jQRIgARIgARIIGwCA8nchwTyrbB1NHj/E3tl2uyjCm/4fYP3ODeeBZZzkdJQgARYYAUIm6v+SIAFVrSvhHIqdzFUPuY2BR2qVv3ZM9d3D7jtk+5IgARIgARIgASeS2BnKnvgILxtqjLVaTqKnnip8y0CUad91tkcC6w6A+W4SBFggRWpuM0wywLLjBzCUPHQyT85qPmpiZsBTA9jf0A7VcX/UGuh67sB7eMaEiABEiABEiABwwgMnJB/vVRxA4Amw6TVU84fqqh2zCx2b6nnUNdnscByPWH6ayQBFliNpMvZz0uABVY0L4ybl65sOmb3ghxUlztOoJgoplOOe6Q9EiABEiABEiCBlyBQTuZvBPB6t0HppviuyUnZcvqg2z7r544FVv1YclL0CLDAil7moTtmgRV6BKEIKKd6T4bqb0JZHuBS8WJviq978/UBruQqEiABEiABEiABAwk8vODnxzc1NW8A4Pp7rs5EMb3KwAiMlMQCy8hYKMoSAq7/MLUkhmjJZIEVrbxrbrPIxl6VjN2qwCucds97QTgdL82RAAmQAAmQwGgJROPen7h/16Qn24+97d27R8snisezwIpi6vRcLwIssOpFknNGTIAF1ohROXPgQDL3QYF82xlDz2tE/RjQcVgxU/uklS8SIAESIAESIAESQKV91RHq+XcBmOw2Dv1Sopj5R7c91scdC6z6cOSUaBJggRXN3EN1zQIrVPyBL9eubKxyf2wzFLMDXx7kQvW+kiit+EyQK7mLBEiABEiABEjAfAIDyd7zBfofLv8poSqeSDyxKyEPnr/P/ETCVcgCK1z+3G43ARZYdudnpXoWWFbGNmbRlY7cd1Xkb8c8wIITFTowYVLzcYfctpxfnbcgL0okARIgARIggSAJbJ5zfcvkaXs3CnB0kHuD3qXQXybOSp8iK8UPerdN+1hg2ZQWtZpGgAWWaYlEQA8LrAiE/IzFHe25o4c8qf3C1uKya/HxwXhf+rsue6Q3EiABEiABEiCBsRMon9B7qlT1WgWaxj7F7DMFGKoCr24rpn9nttJw1bHACpc/t9tNgAWW3flZqZ4FlpWxjVp0tisbO3lrrAfAilGfbNUJ+ptEMfNqqyRTLAmQAAmQAAmQQOAEysl8DkA68MXBLly3Z9ekk4/ecvpgsGvt2cYCy56sqNQ8AiywzMvEeUUssJyP+GmDA+09y8Xzao9UdvrnTEzxhsNK6ZuikSpdkgAJkAAJkAAJjJXAI8ncgipk/VjPt+i89yeK6Ust0huoVBZYgeLmMscIOP3G0rGsnLHDAsuZKF/QiAKyvSP/OxWc6LRbxY8vK21850qs5L0enA6a5kiABEiABEigPgQqqdznVOWf6zPN2Cn3V1uqx89c073XWIUhCmOBFSJ8rraeAAss6yO0zwALLPsyG63icqr3Y1C9eLTnWXb8U5DqcYlC98OW6aZcEiABEiABEiCBkAhsX9B7qN+kmwBMD0lCMGtVLomXVnxUIBrMQnu2sMCyJysqNY8ACyzzMnFeEQsstyPemsoeOElj9wE41GWnqvLV1lLnp132SG8kQAIkQAIkQAL1J9CfzL/TAy6v/2RzJopgN/zqUfFS96PmqDJDCQssM3KgCjsJsMCyMzerVbPAsjq+lxRfSeW+pyrvf8kD7T7g7rI8tnBR4YIhu21QPQmQAAmQAAmQQNAEnr7VQjJ/mwJLgt4d5D6B/HJGccMpwlstPAs7C6wgr0Luco0ACyzXErXADwssC0Iao8RyR24RRNaO8XRrThPg/Hgx/Z/WCKZQEiABEiABEiABowiUk7k3QnE9RDyjhNVZTNXXN83sy1xf57FWj2OBZXV8FB8yARZYIQcQxfUssNxMXbHS256cf5UCZ7rp8I+uBLg5Xky/1mWP9EYCJEACJEACJNB4Av0d+R95grc3flN4GxRYl5DHThJ+a/1PIbDACu965Gb7CbDAsj9D6xywwLIushEJHuhYdbaIfyUApz9J9CT2ihmFN98+Iig8iARIgARIgARIgARegMDAoquPEX/4HucB+fhMoi/9Fed9jtAgC6wRguJhJPA8BFhg8bIInAALrMCRB7KwnMrfCcW8QJaFtkSvjBfT5wnED00CF5MACZAACZAACThDoNKR+2cV+Zwzhp7PiKL/icHqUfM2de932ucIzbHAGiEoHkYCLLB4DZhAgAWWCSnUV0OlI/9xFXy9vlMNm6bYET9w1yxZff4+w5RRDgmQAAmQAAmQgKUE1qUubU7oy+4GcJSlFkYmW/H/4qXOC/ghIMACa2SXDI8igecjwG9g8boInAALrMCRN3RhpX3VEer5mwE0NXRRyMMV/udai10rQ5bB9SRAAiRAAiRAAo4R6G/Pv9PzcLljtp5jR31v2Fs4Y0PnnW77fGl3LLBemhGPIIEXIsACi9dG4ARYYAWOvKELy8ncpYC8r6FLwh9eGpy266TZ/PZV+ElQAQmQAAmQAAk4RqD2IJxKx4JfQPQNjll7bon1v/Fi5lQB1G2fL+6OBVaU06f38RJggTVegjx/1ARYYI0ambEnlFPZk6FNvwbU8Z8lfjpR7Oo1NggKIwESIAESIAESsJpAOdnzKsC75Y8PPHb3pcD/Z+/O4+Oqy8WPP8+ZJG1ZilCWzqRh3+xGZ9KyygVURFFEMpOI4k9FfwI/tyt6vdcFMbjrdcHtKnqvuHBB0pmwqQjILS5YgWamLWXfaTPTgkUodEsy5/m9Ai5XKTSZOefMWT75t+f7LO/nEJInM2dO7yznL49vh9vvjAXW9o24AoEXEoj1N0jGHk4BFljhnMtkqzIxreUGbxSREyZ7NlLXm9ycqeRfFqmaKRYBBBBAAAEEIiewJlv8oaP6tsgVPomCzWRF5sB6ty7uq0/iWKwuZYEVq3HSTMACLLACBiedCAuseNwF1cOueIum3B+aSCoeHW2zi41117Jdywvjz/jiCwEEEEAAAQQQ8E3g8e5SesTkThV5iW9JWhxYRc0Vu6CznI/3Jy++iDMLrBbfhKSPtAALrEiPL5rFs8CK5tz+d9VPdA/sstlS4z9gZaLfzQt3YGI/yJRXvUul341zn/SGAAIIIIAAAuEQqHUv/oSZ86lwVONbFU9uTdVfut9tfWt9yxDiwCywQjwcSgu9AAus0I8ofgWywIr+TGvZxR8ydb4c/U5edHk1XNP1+y0cOns0zn3SGwIIIIAAAgiES2A4V1ypovPCVZXX1dj30+VV5yTxj4QssLy+l4iXJAEWWEmadkh6ZYEVkkE0WEYte+Vs0foKE2lrMEREjukHM+Wer0WkWMpEAAEEEEAAgZgIDGcXn67qXBaTdl6oDRsT97i9y72/jXmfz2uPBVbSJk6/XgqwwPJSk1gTEmCBNSGm0F5U6y79yEzeGtoCvSmsLPrHYzNDZ2/yJhxREEAAAQQQQACBiQlY70Cq9mDqajE5eWInonmVid3YWS68MprVN141C6zG7TiJAAss7oHABVhgBU7uWcJqtvRPorZERB3PgoYvkKnpCelKz/hHWfOFAAIIIIAAAggELrA6V5yfEq2ISJx/5hLX3LfNqvT+OHDgFiZkgdVCfFJHXoAFVuRHGL0GWGBFb2bjFY//NbD6QKqsIvOj2cEEqzYppys9C8c/JWeCJ7gMAQQQQAABBBDwXKCaW3yJiHOG54HDFfDBtO5zqA4tTMwzR1lghesGpJpoCbDAita8YlEtC6xojnF1bvEZbeL8yERS0exgAlWrPFHvqB/UtbTviQlczSUIIIAAAggggIBvAg8df/HUKRum3ysiXb4laX1gM5FPdZbz/a0vJZgKWGAF40yWeAqwwIrnXEPdFQusUI9nm8U9mr0q065j95vItOhVP6mKL8yU8+dO6gQXI4AAAggggAACPgkM54ofVtEv+RQ+LGHNxuov7VzZd09YCvKzDhZYfuoSO+4CLLDiPuEQ9scCK4RD2U5Jw9niBap6fvQqn3jFKlIdm1I/sGtp3+aJn+JKBBBAAAEEEEDAPwET01p3aUhMs/5laX1kFbl4ZrnnnUl4hAMLrNbfb1QQXQEWWNGdXWQrZ4EVrdGt7b5ynmv1ZSLSEa3KJ1mtyVszlfxPJnmKyxFAAAEEEEAAAV8FatnFrzF1fuFrkhYHV5G6qXNyZui061tciu/pWWD5TkyCGAuwwIrxcMPaGgussE5m23UN50pXq8gp0ap6ctWa2O2qU47MDJ2yaXInuRoBBBBAAAEEEPBXwI5f0lbbsP5qEX2Nv5laHd1+nykXjml1FX7nZ4HltzDx4yzAAivO0w1pbyywQjqYbZT1yMLLj2l3234tcX5wu9gWNbc7Xem7MzqToVIEEEAAAQQQSJLAurlX7VXvGL1XRKfHuW81923pSu+P49wjC6w4T5fe/BZggeW3MPGfJ8ACKxo3xdr51+3otj3zsIjsHo2KG6zS3BvSlcJJSXjmQoNCHEMAAQQQQACBEAhUc6XvisjZISjFxxJsw0ZzDzyo0ve4j0laGpoFVkv5SR5xARZYER9gFMtngRWNqVVzpbNEZPwHpTh/n1jvjOnsmSt7HovGVKgSAQQQQAABBJIqsHb+j3e0th2Xm8iB8TVQc133c7OWF86La48ssOI6WfoKQiDOv5gG4UeOBgRYYDWAFvCRavfA3mLOHSK6U8CpA02nKuenh/KfDjQpyRBAAAEEEEAAgQYFqrniu0T0ew0ej8gxc1Pm5Paq9KyISMGTKpMF1qS4uBiBvxNggcUNEbgAC6zAySedsJYrfstE3zPpg9E68EdnbKd9Z648aWO0yqZaBBBAAAEEEEiqgEm/szY3t2Ki82NtYFLMVPK9ceyRBVYcp0pPQQmwwApKmjx/FWCBFe6boZYdmG2aGhKRqeGutKnqXJHUyZnyG65rKgqHEUAAAQQQQACBgAVqC0qLxJGbTaQ94NSBpVORsTFzX99V6b02sKQBJWKBFRA0aWIpwAIrlmMNd1MssMI7n2XdF7Vn3N2XiEq8P8JYbfnWnWcctd9NJ2wJ7zSoDAEEEEAAAQQQeL7AkuOXtB2y4Y9XijivjbnPXekN07J6/8lb49QnC6w4TZNeghZggRW0OPmEBVZ4b4JHs5f/U5u2/Y+IpMJbZdOVbVLXmZNeftr4JyzyhQACCCCAAAIIRE7Ajvr9tNrW2moRmRG54idTsMlbM5X8TyZzJOzXssAK+4SoL8wCLLDCPJ2Y1sYCK5yDXX/EJdNHRqcNm0isH9wuJj/OVPJvC+cUqAoBBBBAAAEEEJiYQDVb+pyofHRiV0f2qjFLpfbvvO0N48u6WHyxwIrFGGmiRQIssFoEn+S0LLDCOf3hXPHDKvqlcFbnUVUmT7RL27w9KqdWPYpIGAQQQAABBBBAoCUC9x1xyfQdRqcOqeiBLSkgqKSufS2zvPDBoNL5nYcFlt/CxI+zAAusOE83pL2xwArfYIbnXtmlHfWVIvKS8FXnXUUm9r7OcuFb3kUkEgIIIIAAAggg0DqB1dnL8yltK7augiAy26jruofPWt63PIhsfudggeW3MPHjLMACK87TDWlvLLDCN5had2mxmRTCV5l3FanYxtR0d+aeN/U9411UIiGAAAIIIIAAAq0TsN6B1NoHUveYyAGtqyKIzPabTLlwXBCZ/M7BAstvYeLHWYAFVpynG9LeWGCFazCrcwMHOuLcrqJTw1WZp9WMqTt6dHr56bd5GpVgCCCAAAIIIIBAiwVqC67Y15z6KhHdscWl+Jl+LGXymr0q+V/5mSSI2CywglAmR1wFWGDFdbIh7osFVniGs3b+j3d023ZcJiKHhqcqHyox+VW60nOSiro+RCckAggggAACCCDQMgET01ruip+I2BktKyKYxOvrW+sHd93R90Qw6fzJwgLLH1eiJkOABVYy5hyqLllghWcc1VzpNBEpiUicvxdsduujC2atOP3e8MhTCQIIIIAAAggg4J3A+KdJbx2d9qCIzPAuavgimbnv76z0fjN8lU28IhZYE7fiSgT+USDOv7Qy7ZAKsMAKx2DGP7lmxyT8oCPulzvLvR8OhzpVIIAAAggggAAC/gisyRY/6Kh+xZ/oIYmqssUZrc+eubLvoZBUNOkyWGBNmowDCPxVgAUWN0PgAiywAiffZsJqtvh5Uf1IOKrxqwrbUK+7s7tW9A37lYG4CCCAAAIIIIBAGAQeWnDxS6Y4Ow+J6P5hqMevGkzkh53l/Jl+xfc7Lgssv4WJH2cBFlhxnm5Ie2OB1frBPN5dSo+6coeo7Nr6anyrwBVX/k9mef5S3zIQGAEEEEAAAQQQCJFANVv6J1G5UUTaQlSW16WM1MUWdZULK70OHEQ8FlhBKJMjrgIssOI62RD3xQKrtcMx6Xdq2bm/EdVjWluJv9lNZNidUj+oa2nfZn8zER0BBBBAAAEEEAiHgPUOpKoPOGUVnR+OivypwsS9/8ktNmfOnX0j/mTwLyoLLP9siRx/ARZY8Z9x6DpkgdXakVRzA90mqd+rSEdrK/E1+1hd7WVdQ4VbfM1CcAQQQAABBBBAIGQC1WxpH1G5XUR2DllpXpZTN6v3dFb6rvYyaBCxWGAFoUyOuAqwwIrrZEPcFwus1g3nsdkDO41NTd0mIoe2rgr/M6vI5ely/nT/M5EBAQQQQAABBBAIn0Ctu/QNM3lf+CrzsCKzJ5y689KZK3se8zCq76FYYPlOTIIYC7DAivFww9oaC6zWTaaaK50lIhe1roJAMo+4dZ03a0XPvYFkIwkCCCCAAAIIIBAygdVHDezWttV5yESnh6w0T8tRkf50OX+Bp0F9DsYCy2dgwsdagAVWrMcbzuZYYLVmLtXua3ZQ2/qAic5sTQUBZXXlY5nl+c8HlI00CCCAAAIIIIBAKAWqueJbRPQnoSzOu6I2ismcTCX/iHch/Y3EAstfX6LHW4AFVrznG8ruWGC1ZizVXPEiER1/BVaMv2yjM+bsH7WXksd4ILSGAAIIIIAAAi0SuO+IS6bvMDptlYp0taiEQNKa2DWZcv5UFbVAEjaZhAVWk4AcT7QAC6xEj781zbPACt597fzBPa3N7jWRXYLPHljGurma71zec1VgGUmEAAIIIIAAAgiEWKB2WHGOpXRIRKaEuMxmSxsR0QWZcs9dzQYK4jwLrCCUyRFXARZYcZ1siPtigRXscPql3zkrN3eFiM4NNnOw2Uzkls5y/shgs5INAQQQQAABBBAIt0A1V/yFiL4m3FU2W509WZ/iZrqW9m1uNpLf51lg+S1M/DgLsMCK83RD2hsLrGAHU80NvlrErg02a+DZ6m5b/dhZt/YtDTwzCRFAAAEEEEAAgRALrOu+4oC6uctFZKcQl9l0aSbuOzrLvRc3HcjnACywfAYmfKwFWGDFerzhbI4FVnBzWTv/xzu67TveMv5wy+CytiCTK9/LLM+f3YLMpEQAAQQQQAABBEIvMJwtXqCq54e+0KYKtMfU3LnpSt/jTYXx+TALLJ+BCR9rARZYsR5vOJtjgRXcXKoLSh8TRz4bXMaWZKqn1Dlkr6HTHmhJdpIigAACCCCAAAIhF1hz6OAMZwd3jYhODXmpzZVn9sKCQd4AACAASURBVJ1MpfDu5oL4e5oFlr++RI+3AAuseM83lN2xwApmLDZ7oKM21XlERGcGk7E1Wcy193YuL3y7NdnJigACCCCAAAIIRENgTXfptY7Z1SLqRKPihqp8un1HOWSP3+ZrDZ0O4BALrACQSRFbARZYsR1teBtjgeX/bAZ6B1LHPpC6xERO9z9bCzOoPeSMbpo3c+VbN7awClIjgAACCCCAAAKhF7ADfzGlNn3z+PNCs6EvtrkCf5feUn+F3tk30lwYf06zwPLHlajJEGCBlYw5h6pLFlj+j+PR+YNzU222TOP9kcn1utkbuyqFkv+iZEAAAQQQQAABBKIv8Gi2uDClerOKdES/m213oKJjKZUT9hzq+V0Ye2SBFcapUFNUBFhgRWVSMaqTBZa/wzQRreaKS1X0CH8ztTa6ivx8Zjl/iopYayshOwIIIIAAAgggEB2BWnfxYjN9e3QqnnylalLdsstuB+x30wlbJn/a3xMssPz1JXq8BVhgxXu+oeyOBZa/Y6nmBs8QsUv8zdLy6OaoHTVzqHBLyyuhAAQQQAABBBBAIEICj+UGDhyT1EoRmRahsiddqpr8S7qS/8qkD/p8gAWWz8CEj7UAC6xYjzeczbHA8m8utu+SqbXd1g+J6Gz/soQi8oWZcv7cUFRCEQgggAACCCCAQMQEqtniB0X1yyIS298HVWTt2JT6nK6lfU+EaTwssMI0DWqJmkBsv2FFbRBJqpcFln/TrmUHv2JqH/QvQygibx6zkQP3rrypGopqKAIBBBBAAAEEEIiYwAPdA7tMs9QaEdkpYqVPttwr0uV8PkyPnGCBNdkRcj0CfxNggcXdELgACyx/yJ/ovmGXze5TD6rqbv5kCEdUdd33pJf3/kc4qqEKBBBAAAEEEEAgmgLV7sWvElevFVUnmh1MqOqNW11n7n7LT3t4QlcHcBELrACQSRFbARZYsR1teBtjgeX9bAZ6B1Ivuz/1U1EpeB89TBGtkikXcmGqiFoQQAABBBBAAIGoClRzpRtE5JVRrX9CdZveunWXXY8LywPdWWBNaGpchMA2BVhgcWMELsACy3vyWnbwOFO7yfvIoYroilo+M1S4MlRVUQwCCCCAAAIIIBBRgdULrzg85bo3i0hbRFuYWNlmhUylUJrYxf5exQLLX1+ix1uABVa85xvK7lhgeT+Wanfpd2JyjPeRwxPRRAe+X175pn7pd8NTFZUggAACCCCAAALRFqh2D35FLObPUDV5+E9b64fMubNvpNXTYoHV6gmQP8oCLLCiPL2I1s4Cy9vBVbOD54jad7yNGr5oKbHD9ioXxj/ymS8EEEAAAQQQQAABjwQeWnDZvh1O+z0q2uFRyJCGsc9myoXzWl0cC6xWT4D8URZggRXl6UW0dhZY3g3ujtkDHbtOTd0pIgd4FzVckVTUTOVrmaGeD4WrMqpBAAEEEEAAAQTiIbAmO3iOo/ZtEYnvA91V122WsUMOGOp7qpVTY4HVSn1yR12ABVbUJxjB+llgeTe04dzgt1TsPd5FDF8kM1njTq0f3LW0b3P4qqMiBBBAAAEEEEAg+gLjfxR9ybTU7WpycPS7eeEOVGxJulx4eSt7ZIHVSn1yR12ABVbUJxjB+llgeTO01QuKB6UcXSUisX65t5q9O10pxP4tkt7cFURBAAEEEEAAAQQaE6hlr3iNqftzEYnz74j1er1+dNeKvlsbU2r+FAus5g2JkFyBOH9zSu5UQ945C6zmB2RiTq178HIxKTQfLbwRzOz3nZVCrB9OH159KkMAAQQQQACBpAmsyRVLjmhPnPs2kaUj0ze8fL+bztzSij5ZYLVCnZxxEWCBFZdJRqgPFljND2s4VzxFRa9uPlKoI9iYuq/ee6j3+lBXSXEIIIAAAggggEBMBIa7SznH5FYTScWkpW224YidNbNc+H4remSB1Qp1csZFgAVWXCYZoT5YYDU/rGquNP6y50XNRwpvBFO59Ob962/tW9xXD2+VVIYAAggggAACCMRLYDi3uF/F+WS8uvqHbsweSh/oHqQt+DmTBVas7yya81mABZbPwIR/vgALrObuirj4bUfhGdH6nMxQ36PNaXEaAQQQQAABBBBAYDIC1e5LdxebcreIzJjMuchda/aNdCX/gfFPvA6ydhZYQWqTK24CLLDiNtEI9BOXBYzr1l83a3nf+IMuA/tac/jgDGfM7hKRPQJL2ppEF2bK+XNbk5qsCCCAAAIIIIBAsgWq2eI5ovptEXHiK2EbLNU2t/O2N6wOskcWWEFqkytuAiyw4jbRCPTDAqvxIQ1nB7+uau9vPEIkTt6dnr7bPL3phLFIVEuRCCCAAAIIIIBAzARMTKu5wd+ryJExa+0f2rHrM+XCSUH2yAIrSG1yxU2ABVbcJhqBflhgNTak2oLSInHkDxbrv4SNf26zviNd7rm4MSVOIYAAAggggAACCHghMLxg8ER1LPYfplM39+SuSu+1XphNJAYLrIkocQ0C2xZggcWdEbgAC6zJk//5r2BXqsjrJ386OidM5HeZ8u3HqfS70amaShFAAAEEEEAAgXgKVLtLl4jJGfHs7rmuVOQPT2ypHzfnzr6RIPpkgRWEMjniKsACK66TDXFfLLAmP5w1C0sFx5XFkz8ZsRNmizKVwrKIVU25CCCAAAIIIIBALAWG5w8com1td4lYrH9vVJN/SVfyXwliiCywglAmR1wFYv2NKK5Di3pfLLAmN8HxV1/VcqVVIjp7ciejdbWZXZ450D2jFR9nHC0pqkUAAQQQQAABBIIRGP85dG32in5TOz+YjK3JYmbDmUp+bxX1/V0ALLBaM2OyxkOABVY85hipLlhgTW5ca3KLP+CI87XJnYrY1SbrxOnYPzN0yqaIVU65CCCAAAIIIIBArAX6pd85OzfvHhM5MNaNmn03Xcm/W0XNzz5ZYPmpS+y4C7DAivuEQ9gfC6yJD+Xh+QP7dbSlHpz4iahe6X4uU+79eFSrp24EEEAAAQQQQCDOAtVc8V0ietFzj4yK71fKdMFelZ4VfnbIAstPXWLHXSDW34DiPryo9scCa+KTq2aL3xHVcyZ+IpJXrtq4YXjhQfe/f2skq6doBBBAAAEEEEAg5gIDvQOpYx9ou87EXhHnVlXk5+ly/nV+9sgCy09dYsddgAVW3Cccwv5YYE1sKNXclceK1JeISGpiJ6J5lWv13lmVvmI0q6dqBBBAAAEEEEAgGQLVbOmfROXXce9Wxd6YLhcG/OqTBZZfssRNggALrCRMOWQ9ssCa2EBqudKNJvLyiV0dzatMZGnmgPqxPLg9mvOjagQQQAABBBBIlkA1W/qRqLw11l2rLb9n5xmLTrjphDE/+mSB5YcqMZMiwAIrKZMOUZ8ssLY/jNXZYj6lujjmzxnYPGVMDp6xMr9m+yJcgQACCCCAAAIIINBqgWr3NbubjdyrIru2uhZf87vysczy/Of9yMECyw9VYiZFgAVWUiYdoj5ZYL34MB6Z97Nd29u33CGi6RCNzfNSTOTiTPn2/6vS7/vHFXtePAERQAABBBBAAIEECpiIrs2VzjeR/ji3r2JPpVLuoXve1rfW6z5ZYHktSrwkCbDAStK0Q9IrC6wXH8RwrvhhR5wvmlhs//s0kzXtu9RfuudNfc+E5LakDAQQQAABBBBAAIEJCFi/OdWrS8tVdN4ELo/uJWbfTVfy71ZR87IJFlheahIraQKx/QU5aYOMUr8ssF54WqsXFA9KOXpvlObZSK1q8i/pSv4rjZzlDAIIIIAAAggggEBrBdYuLL7JdfXS1lbhf/ZR1WP3Ger5nZeZWGB5qUmspAmwwEraxEPQLwusFx5Ctbv0I7F4PxhTRe6aOX23nN50wpYQ3I6UgAACCCCAAAIIIDBJgSXHL2k7eMP6n6voqyZ5NGKX6/WZcs9JXhbNAstLTWIlTYAFVtImHoJ+WWBtewjPfTSx/UpE20MwJl9KUJG61OXE9Ir8El8SEBQBBBBAAAEEEEAgEIHVueL8lOiQiLQFkrAlSdTUkbenl/X82Kv0LLC8kiROEgVYYCVx6i3umQXW8wdgxy9pW7th/ZCJzm/xePxNb+6t9+yy+zF+fSyxv8UTHQEEEEAAAQQQQOB/C1RzpUtE5IxYq5g9VJ/qzula2rfZiz5ZYHmhSIykCrDASurkW9g3C6zn46/OLe5JiVMUkTj/N/l02/R6hge3t/A/PlIjgAACCCCAAAIeCizrvqg9bbs/pCKdHoYNWSg1Uft4Zij/eS8KY4HlhSIxkioQ51+WkzrT0PfNAuvvR7T6sIHOtlTbnSY2PfTDa67ACzPl/LnNheA0AggggAACCCCAQJgExj9BW0W/FKaavK5FRcZcp21u57JT72k2NgusZgU5n2QBFlhJnn6LemeB9ffwte7iBWZ6fovGEUxalTVb6868/Zaf9mQwCcmCAAIIIIAAAgggEITA+KMwak+vv01MFwSRr1U5TOyHneXCmc3mZ4HVrCDnkyzAAivJ029R7yyw/gb/6NwrDmjrcO+L+VsHRcT+T6ZcGH9GAl8IIIAAAggggAACMROoHrb4VZJyrotZW89rp+44J3QtO+2mZvpkgdWMHmeTLsACK+l3QAv6Z4H1N/ThXOlqFTmlBWMILKWaPGDOH+dnhs7eFFhSEiGAAAIIIIAAAggEJvDcs7BmXKuirwgsaWsS/T5Tzh/TTGoWWM3ocTbpAiywkn4HtKB/FljPoQ8vuvJordeXiEhHC8YQVMrNro0eNaty+oqgEpIHAQQQQAABBBBAIHiBx7tL6VGTu0Rkl+CzB5bRROytzbyzgAVWYLMiUQwFWGDFcKhhb4kFlsgdswd22nWq86CI7hH2eTVXn12bLq96nUq/21wcTiOAAAIIIIAAAgiEXaCaK35PRN8V9jqbrG+TM6b7zVzZ81gjcVhgNaLGGQSeE2CBxZ0QuAALLJE1C4pvcxy9OOb/DT4t2rF/ZuiUPwZ+k5EQAQQQQAABBBBAIHCB1UcNTEttde4S0X0CTx5gQhO5oLOc728kJQusRtQ4gwALLO6BFgkkfYFV7b56b3FHK6KyW4tGEEhaE+nvLOcvCCQZSRBAAAEEEEAAAQRCIVDNlc4SkYtCUYx/RYy4pofPqvRM+jEZLLD8GwqR4y/AK7DiP+PQdZj0BVYtV/qmibw3dIPxtqDa6OiWOfvcfsafvA1LNAQQQAABBBBAAIEwC9wxe6Bj16mpIRGZG+Y6m6/NSplyoTDZOCywJivG9Qj8TYAFFndD4AJJXmCtOeKSWc7o1IdEtC1w+IASqogrKq9MD+XHH1DPFwIIIIAAAggggEDCBNZ2XznPtXpZRGL7M6+Imkj9uEy597eTGS8LrMlocS0Cfy/AAos7InCBpC6wrHtZe9Ue+bWKHBU4erAJV6Q3TDtC7z95a7BpyYYAAggggAACCCAQBgE7fklb7an1V4vqa8JQj4813F2fUs91Le3bPNEcLLAmKsV1CDxfgAUWd0XgAkldYK3NDb7cxH5pIu2BoweUUEWeMbVFmaHC3QGlJA0CCCCAAAIIIIBACAWeOuqXu23cuvEeEdk9hOV5VZK5Iu+YVc7/cKIBWWBNVIrrEGCBxT0QAoEkLrDuPuaqnadvHl0toruEYAS+laAiF6fL+Xf4loDACCCAAAIIIIAAApERqHWXvmAm/xaZghsr1O2o1/fefUXf8ESOs8CaiBLXILBtAV6BxZ0RuEASF1jVbPGDovqVwLGDTfjM1lT9oP1u61sbbFqyIYAAAggggAACCIRR4LHZAzuNTXXuENG9w1ifZzWpfjUz1POhicRjgTURJa5BgAUW90BIBJK2wBpedFmX1jvGH2IZ55dPi4q+N13u+XZIbjPKQAABBBBAAAEEEAiBQC1bKpjK4hCU4mMJtsXqcnTnikJle0lYYG1PiH9H4IUFeAUWd0fgAklbYNWypctM5fTAoQNMaGZPTHPc/Xcb6nsqwLSkQgABBBBAAAEEEAi5wH0HfmPKDtMzq1T0wJCX2lx55v46U+k9fntBWGBtT4h/R4AFFvdAiASStMCqHTuwh21MrRaRKSEagbelmLmpDsnudUthpbeBiYYAAggggAACCCAQB4H75w/uuUOb+4iITo1DP9vuwVxH9JiZ5fwfXqxHFljxvQPozH8BXoHlvzEZ/kEgKQus1UcNTEuNtC0Xs4PjfBOo2Y0zK/kTVdTi3Ce9IYAAAggggAACCDQmYCJa6y5dIiZvbixCZE6tr2+tH9x1R98TL1QxC6zIzJJCQyjAAiuEQ4l7SUlZYNUWlgrmxv79/hsdxzly5rKeVXG/b+kPAQQQQAABBBBAoHGBdXMv3aveMeV2Edmj8SjhP1k39/1dld5vssAK/6yoMHoCLLCiN7PIV5yEBdazr77amno07g9uN5EvdZbzcf9o5Mj/N0cDCCCAAAIIIIBAGASqC4vniqtfDUMtftWgImOjNrLP3pU3VbeVg1dg+SVP3CQIsMBKwpRD1mMSFljD2eLnVfUjIaP3thy1Le2i++8xlK95G5hoCCCAAAIIIIAAAnEUWH/EL6ZvHd10t4im49jfX3oykR92lvNnssCK85TprRUCLLBaoZ7wnHFfYD00e2DmlKltt4vY7vEdtbki8rZMuXBJfHukMwQQQAABBBBAAAGvBdbmBl/uivtLEW33OnaI4m2qix3VVX7+hxzxCqwQTYlSIifAAityI4t+wXFeYFnvQGrt/c51pvqK6E/qRTpQubfeUV/QtbRvc6z7pDkEEEAAAQQQQAABTwWWdV/UnnF3v1lUFnkaOHTB7J6NG3Y47KD7T976v0tjgRW6QVFQhARYYEVoWHEpNc4LrHW54vy66DIRifNflEwd58j0stNujcs9SR8IIIAAAggggAACwQmsOaI0yxmV+0RkanBZA8/k1s19XVel91oWWIHbkzCmAiywYjrYMLZl/f3OumsWzKnb2MdV9I1hrHFSNZl9dHRs60X73H7Gn8bPVbsv2kFkxq1iOmdScSJ2sYkNdJYL0Z9fxNwpFwEEEEAAAQQQiJNALVf8pom+N049Pa8Xk3Uq9XnpSt/j4//2+DFX7TyyaeTdqs4Xot+3DdZVvrR0f3dZ3+K+evT7oYMoCLDAisKUIlqjSb/z6Lx5+7a3y2EikheR14nILhFt54XK3iqiv3bFLlORfVSkP2b9/WM7m8ccPXzvZT2rYt4n7SGAAAIIIIAAAgj4KPBo9rJMSjtWqciuPqYJQWj7uqndq+a8SUSOFJG2EBTlXQkmf3JVfuaIXFGX+u2zyr0Pquj483L5QsBzARZYnpMScPVRA9N0a+psR+Q8EdlNRLjP4nJbqPuxzFDv5+PSDn0ggAACCCCAAAIItE6g2l16s5j8d+sqILPHAiYifxSzz2z909Pf2+/hM7d4HJ9wCRdgsZDwG8Cr9tfNvXSveseUd4pIj4jMFpFpXsUmTlgEbJOau+9fXgIdlqqoAwEEEEAAAQQQQCCaAncfctXOu+w4do+JpKPZAVW/sIBtFtE7ROw6Ufd7maG+R9FCoFkBFljNCib4/P3zB/fcoc19lYr2mcirRGRKgjni3npdTU5PV/LFuDdKfwgggAACCCCAAALBCdQWXnG467q/UX6XCA49+ExbxMYXWbZYza7nD+LBDyAuGVlgxWWSAfVhvQOpdfe0zain3PeIykdUtCOg1KRppYDKzZmh/MtaWQK5EUAAAQQQQAABBOIpMJwrXa0ip8SzO7r6OwGTrebIhalR/epeh4ytVx4Azw0yCQEWWJPASvqlwwsHThTX+bSKzBXRHZPukaT+zZWXdS7P35yknukVAQQQQAABBBBAIBiBtYcP7FcfTd2lyjs6ghFvfRYVeUZEVqk5582snHZj6yuigigIsMCKwpRaWKMdv2Rq9ak/vkHEea+qHSWiTgvLIXULBEzs+53lwlktSE1KBBBAAAEEEEAAgYQIDOdK/SryyYS0S5t/EzATucVELnK0YyAzdMomcBB4IQEWWNwb2xRYf8Ql07eOTD3RVL6gogfClFiBEbeu82at6Lk3sQI0jgACCCCAAAIIIOC7wGOLBmbW66m7TWQX35ORIJQCJnafK/aRLe1bf3XQLW/ZEMoiKaqlAiywWsofzuTVXPEkESn++W2C3CPhHFMwVZn+c6bS841gkpEFAQQQQAABBBBAIMkCwwsGTlQndZ2I8DtIcm8EE7GNlpI3d95WuCa5DHS+LQG+MXBfPCtg0u9Uc3Nfq6L/qiJHmwhvFeTeeLg+pT67a2nfZigQQAABBBBAAAEEEPBb4I7ZAx27TnX+IKJZv3MRP/QCpiK31MX9bGf5jl+o9Luhr5gCfRdggeU7cfgTDHeXcmpynoi8gb92hH9egVRo5prqmzvL+csDyUcSBBBAAAEEEEAAAQREZHhh6Rh15VciMhUQBJ59rYXIderK+enl+dsQSbYAC6wEz3/1UQPTdEvqE47KRxPMQOvbEjC7NlMpnAwOAggggAACCCCAAAJBC9Ryg/9lYu8IOi/5wi1gYt92p7gf5h0i4Z6Tn9WxwPJTN8Sxq7nFParOl81kX151FeJBtag0V+SoWeX8H1qUnrQIIIAAAggggAACCRZ4dO5PD2jraLtbRNsSzEDrzxcYfzXWI2buRzsrvT8FKHkCLLASNvPHs1dlRnT0ayray+IqYcOfYLvjf9noLBfeO8HLuQwBBBBAAAEEEEAAAc8F1mRLH3JU/p3fWTynjUNAc8WucHXsX/ceOv2BODREDxMTYIE1MafIX2XdF7Wvld1fZWZX8peMyI/TxwZsQ7vqoXsM5Ws+JiE0AggggAACCCCAAAIvKvDkvJ/tuqlt612ishdUCGxbwFwRp/dPW8Z+NufOvhGU4i/AAiv+MxbrHUjVHkgtVtFTTIyX4SZg5o22WFf7QNdQ4euNnuccAggggAACCCCAAAJeCQwvGDxRHbveq3jEiaVA3USWZHSfk3Vo4WgsO6SpvwqwwIr5zbCu+4pX1aX+HTHdP+at0l6zAmrL00P5nIqOv7ecLwQQQAABBBBAAAEEWi5QzRVvENFXtrwQCgi3gNmwq/LBWeXCQLgLpbpmBFhgNaMX4rMP7Xvx1I7ddn6fin4pxGVSWngETEQLmXLPYHhKohIEEEAAAQQQQACBpAsML1h8tDrOEhHpSLoF/U9AwOQzTn3jF2aufOvGCVzNJRETYIEVsYFNpNwlxy9pO/ip9b9W1aMncj3XIOCKDc4qF/JIIIAAAggggAACCCAQNoFqbvBCEfvnsNVFPSEVMLsj7azP6tDZvKUwpCNqtCwWWI3KhfTcugWLj66rc4mo7BfSEikrhAKu6YJZlZ4VISyNkhBAAAEEEEAAAQQSLlDtvnpvsdGH+UTChN8Ik2u/Zk79bZ3L+m6Y3DGuDrMAC6wwT2eSta3OXf6WlKS+I6I7TfIolydYwMT9dme5970JJqB1BBBAAAEEEEAAgZALDOeK73FEv2EiTshLpbywCJhsVcfOTQ8VvhOWkqijOQEWWM35heK0Hb+krbbhifEFxFf5q0QoRhKZIkxkdUb/eAAvr43MyCgUAQQQQAABBBBIpMD4Y1IOeWr9ClGdnUgAmm5YwES+tWnD8L8cdP/7tzYchIOhEGCBFYoxNF6EdS9rX2uP/EREevlrROOOST1pJu/vrOS/mdT+6RsBBBBAAAEEEEAgOgJrc4Ovc8WuiU7FVBoSAROzX7fv0P76PW4+9emQ1EQZDQiwwGoALSxH1h9xyfSto9MuF5FXh6Um6oiOgIn9PnOA+0+6uK8enaqpFAEEEEAAAQQQQCDJArVcsWiifPhQkm+CBns3kaV1GynsXXlTtcEQHGuxAAusFg+g0fTV7kt3N7fjBlVd0GgMziVdoP6aTLnvl0lXoH8EEEAAAQQQQACB6Ag8mi0ubFNdKiJt0amaSsMjYA+K6cszlfwj4amJSiYqwAJrolIhum7dEVftVR8dWSXi7B6isiglQgIqsnRmuecYFbUIlU2pCCCAAAIIIIAAAghIrXtwiZkdDwUCDQmobRGRbGaocHdD5znUMgEWWC2jbyxxtbt4qJhcIaKHNhaBUwg8KzC+uDovU85/Dg8EEEAAAQQQQAABBKIiMJwtfl1V3x+VeqkztAI1Ue3LDPX8LrQVUtjzBFhgReimWDP/klmamnqjqh4cobIpNcQCJnJBptxzAa/ECvGQKA0BBBBAAAEEEEBATMwZ7i592zE9Bw4EvBAwkWrdGT1p72Wnr/IiHjH8F2CB5b+xJxke7i6lO8zuEdGdPQlIEAT+LKAq/zJz6PavqfS7oCCAAAIIIIAAAgggEDYB6x1I1e53viXK8ipss4lBPWOiNo+3E0ZjkiywIjCnh7t/ku6waUtE9JAIlEuJ0RMwk/r7O8t934pe6VSMAAIIIIAAAgggEHeB4e7BC9Ts/Lj3SX8tEjBZV1d7VVe5sLJFFZB2ggIssCYI1arL7jvikuk7jE69XkWPaFUN5E2EwJi57v/rXN77n4noliYRQAABBBBAAAEEIiEwnCt+WMX5oojxu2skJhbNIk3kvtGx+kn7rux7KJodJKNqvgmEeM6rjxqY5mxN3agiR4W4TEqLi4DJ1pTI6/as9NzIM7HiMlT6QAABBBBAAAEEoilg0u+s7Z6TN3MuE5FUNLug6ogJPFyfUu/uWtr3RMTqTky5LLBCOmoT0Wqu+FMV7RUR5hTSOcWwrE1q9UXpSt+dMeyNlhBAAAEEEEAAAQQiIrC2u3iEa/obEemISMmUGQMBR2355p2fPmq/m87cEoN2YtcCi5GQjrSWK33SRPpDWh5lxVjARIZd107oWl64L8Zt0hoCCCCAAAIIIIBASAXWLBhY4DipG0Rk95CWSFlxFjC7NF3Jv4V3pYRvyCywwjcTWZMrvd0R/QHv8w7hcJJT0u82tm9+7UG3vGVDclqmUwQQQAABBBBAAIFWC1S7r9nd8SQVwQAAIABJREFUbGT8MSrzW10L+RMsYPL5TCX/cRGxBCuErnUWWCEbyZpDB2ekdrCHTWSnkJVGOQkTUJElMw+on6iL++oJa512EUAAAQQQQAABBFogsKz7ova0zfiDiuZakJ6UCPxNwMx1x5yXzbq9Zyks4RFggRWeWcjqwwY6U05qSFT2ClFZlJJQARWp18U+Oatc+GxCCWgbAQQQQAABBBBAIECBaq74VRH9ZxFxAkxLKgReSGBzXezIrnJhJUThEGCBFY45yEPHL5k6ZcP6y0T0DSEpiTIQ+LOAvTpTLlwHBwIIIIAAAggggAACfgnUsqWCqSz2Kz5xEWhEwERWbB3ZetL+q968rpHznPFWgAWWt54NRxvOlr6gKv/WcAAOIuCXgMljTl3nzVzZ85hfKYiLAAIIIIAAAgggkFyBara0j6jdLqI7J1eBzkMrYG4xXSn08VD31k+IBVbrZyDrsoOHjak7/l7vqSEohxIQeL6A6U2ZSs8J0CCAAAIIIIAAAggg4LVALVf6g4kc4XVc4iHgkUDdNX3vrErPdz2KR5gGBVhgNQjn1bFq96W7m01ZoSIZr2ISBwEfBExMPpOu9HySvzz4oEtIBBBAAAEEEEAggQL90u+ck5v7Vfe5517xhUCYBTaaU+/uXNZ3T5iLjHttLLBaOGHrvqh92Gb8wBF9SwvLIDUCExWoqytHpZfnb5voAa5DAAEEEEAAAQQQQOCFBKrdgy9Ts5tMJIUSAmEXUJVVz7RtPuagW96yIey1xrU+FlgtnOxwtvROVfnPFpZAagQmJ2D2UNrZ9xAdWjg6uYNcjQACCCCAAAIIIIDA3wRWHzUwrW2r86CJzsQFgagImMoXO4fyH4lKvXGrkwVWiya65vDBGakxW2m8dbBFEyBt4wLuhZly77mNn+ckAggggAACCCCAQNIFhnOlb6vIu5PuQP+RE9hY19QruobecEvkKo9BwSywWjBE6x1IrX0gNWgir29BelIi0KSAbamrHN81VOCbdpOSHEcAAQQQQAABBJIoUFs0eJzV7XoR6Uhi//QceYFV6S31br2zbyTynUSsARZYLRjYowtKi9ocWSq817sF+qT0SOBR0Y6XZoZO2eRRPMIggAACCCCAAAIIJEBg7fwf7+i27XiXiHQloF1ajKuA2ofSQ4WvqYjFtcUw9sUCK+CpPLZoYOZY3blbRHcJODXpEPBMQEVc19wPdFZ6v+lZUAIhgAACCCCAAAIIxF6g2j34QTH7sojwu2jspx3fBlVkzHXs8M5lhUp8uwxfZ3zTCHgm1Wzp06JyXsBpSYeA5wImMjJm9ew+lb47PQ9OQAQQQAABBBBAAIHYCdQWFedYXSoi2h675mgocQIqds3McuFUXoUV3OhZYAVnLauPKB6UGtVVvNc7QHRS+SpgYgOZcv50FeWls75KExwBBBBAAAEEEIi2gIlpNVe6TEXfGO1OqB6Bvwm46vbNGupdjEkwAiywgnF+Nks1W/y5qJ4cYEpSIeC3gKuO87r0stOu9TsR8RFAAAEEEEAAAQSiK1BbWDzZXL1GRJzodkHlCDxPYFWmnJ+HSzACLLCCcZZq9+DLxOxXIjIloJSkQSAQARVZNrN8+xEq/W4gCUmCAAIIIIAAAgggECkBk36nlps3/gnWCyNVOMUisH0BE3HPy5R7P7f9S7miWQEWWM0KTuD8s5+0kdrhHlHtnMDlXIJApATGH+huKX1t5raeX0aqcIpFAAEEEEAAAQQQCERgdW7g1SlJ/ZxXXwXCTZLgBbZ21DsO2H3FKcPBp05WRhZYAcy7etjiV0nKGf/lHu8AvEnRCgGrT2nfstuMW96yoRXZyYkAAggggAACCCAQToH7Drxk+o7Tp64X0bZwVkhVCDQv4IqdN6tc+GzzkYjwYgIsVHy+P2z2QEdtamr8U9oO8DkV4RFoqUDdtbO6lhe+39IiSI4AAggggAACCCAQKoE1ucVnO+J8N1RFUQwC3gtsTqVk7l635R/0PjQR/yLAAsvne6GaK75LRL/ncxrCIxAGgdXtG9vm7HHPqU+HoRhqQAABBBBAAAEEEGitwOOHXLXz6E5jd4rJrNZWQnYE/BdQlW+mh/Lv9z9TcjOwwPJx9n9+WGFZRA7zMQ2hEQiTwLmZcv7CMBVELQgggAACCCCAAAKtEViTLX7QUf1Ka7KTFYHABZ6e0j5t1oxbTuaxKj7Rs8DyCXY87Npc6Y2uyGU8+8pHZEKHSsDEbu8sF+aHqiiKQQABBBBAAAEEEGiJQDVXul1E5rYkOUkRaIGAmv0oXSm8vQWpE5GSBZZPY7YDfzGlNn1TWURn+5SCsAiEUcBUnNPT5dMGwlgcNSGAAAIIIIAAAggEIzCcHTxd1S7lj/nBeJMlNAJ/HB3dcvA+t5/xp9BUFKNCWGD5NMw12cHDHHVvE9F2n1IQFoGQCtiw6JSDM0OnbAppgZSFAAIIIIAAAggg4KNAtfuaHdRG7jORjI9pCI1AKAXqImd3lfM8B9uH6bDA8gF1PORwrrhURY/0KTxhEQitgIrU62594azlfctDWySFIYAAAggggAACCPgmsGbBwALHSS0TkZRvSQiMQGgFbLR9Y/sMPtzK+wGxwPLeVB7NFhe2qd7mQ2hCIhANAXOvylR63xCNYqkSAQQQQAABBBBAwEuB4VzxGhV9nZcxiYVApARUzsgM5cffQsuXhwIssDzE/Euoaq74GRH9uA+hCYlAZARGrT5nn0rfnZEpmEIRQAABBBBAAAEEmhaoZQdmm6buaDoQARCItsB1mXL+1dFuIXzVs8DyeCZLjl/SduiGJx7h/d4ewxIuegLqfiYz1PuJ6BVOxQgggAACCCCAAAKNCtS6S58yE34GbBSQc7ERcOt6yKwVPffGpqEQNMICy+MhDOcGz1SxH3gclnAIRFDAHsyUCwdEsHBKRgABBBBAAAEEEGhQoNZdetBM9mvwOMcQiI2AivwwXc6fGZuGQtAICyyPh1DNFX8josd6HJZwCERSoD5Wf03Xyr5fRrJ4ikYAAQQQQAABBBCYlEAte8VrTN1fTOoQFyMQX4FH0uWe/VTU4ttisJ2xwPLQ+74DfzFlx+mbHhPR6R6GJRQC0RUwuSFd6TmJb9rRHSGVI4AAAggggAACExEwMa1li9eJOidO5HquQSARAm22KHNrYfwTOfnyQIAFlgeIfwmxOld8b0r0mx6GJBQC0RYwWefUdzpg5sqTNka7EapHAAEEEEAAAQQQeDGBtfOv29Ft3/iAmO2FFAIIPCdgYn/oLBeOwsMbARZY3jiKzR7oqE1NDYvI7h6FJAwCcRAwkdRrMuU3XBeHZugBAQQQQAABBBBAYNsC1dzgq0Vs/O2D/I7JTYLA/xKw1Mjenbe9aTUozQvwzaV5w2cjrM4V56dEV3gUjjAIxElgKF3uWcTbCOM0UnpBAAEEEEAAAQT+JvDs2wdzg7eJSDcuCCDwDwJqp2WGClfi0rwAC6zmDZ+NMJxd/D5V5xsehSMMAvES0Po+maG+R+PVFN0ggAACCCCAAAIIjAtUuwf2Fks9ggYCCGxT4IpMOd+DTfMCLLCaN3w2Qi1XWmoiR3oUjjAIxEvAtdMyy/mrQ7yGSjcIIIAAAggggMBzAmsXDJ7qOsYrTLghENiGgJlsHbENM/dbfuaTADUnwAKrOb9nTz/QPbD3NHMeElHHg3CEQCB2Aq7IRbPK+XNi1xgNIYAAAggggAACCEg1V7pIRM6CAgEEti2gjvSml+WL+DQnwAKrOb9nT6/JFs9xVL/jQShCIBBPAZN16V12m6U3nTAWzwbpCgEEEEAAAQQQSKaAHb+kbe1TTwybyp7JFKBrBLYvoGI/SJcL79z+lVzxYgIssDy4P6rZ0oCo9HoQihAIxFag7rgndC3rvSm2DdIYAggggAACCCCQQIFad+kEM/mfBLZOywhMWMBEVnaW84dN+AAXblOABZYHN0Y1V7pfRA7wIBQhEIitgJp8MV3JfyS2DdIYAggggAACCCCQQIFabvEXTZx/TWDrtIzAhAVUZLTepulZt/asn/AhLnyeAAusJm+KtUcP7ulucWs8/6pJSI7HXsBE/qeznH9F7BulQQQQQAABBBBAIEEC1Vxp/NVXJySoZVpFoDEBR87JLMuPPy+OrwYFWGA1CPeXY9Xc4Lki9tUmw3AcgQQI6B9dTb07AY3SIgIIIIAAAgggkBgBx8bGnwU8IzEN0ygCjQqY3Jyp5F/W6HHOibDAauIuMDGt5Uq3iujCJsJwFAEEEEAAAQQQQAABBBBAAAEE4i3wePu0tgP2uPnUp+Pdpn/dscBqwvaJ7oFdNlvqAeUvDk0ochQBBBBAAAEEEEAAAQQQQACB2AtsVteZnV5+2sOx79SnBllgNQG7dv7Afm6bc6eITm0iDEcRQAABBBBAAAEEEEAAAQQQQCDmAnwye3MDZoHVhN/wgsVHq5P6nYjh2IQjRxFAAAEEEEAAAQQQQAABBBCIvYDKZzJD+U/Evk+fGmTx0gRsNVs6T1Q+3UQIjiKAAAIIIIAAAggggAACCCCAQAIETOyWznLhyAS06kuLLLCaYK3mSr8WkX9qIgRHEUAAAQQQQAABBBBAAAEEEEAgCQJmbnpqZiddevTmJLTrdY8ssBoUte5l7TV5ZLOYpBoMwTEEEEAAAQQQQAABBBBAAAEEEEiQgGu6YFalZ0WCWvasVRZYDVIOLxw4RN3U3Q0e5xgCCCCAAAIIIIAAAggggAACCCROQPOZcs9g4tr2oGEWWA0iDi8YPFEdu77B4xxDAAEEEEAAAQQQQAABBBBAAIHkCZybKecvTF7bzXfMAqtBw7XZ4jtc1f9q8DjHEEAAAQQQQAABBBBAAAEEEEAgaQKOXJhZlj83aW170S8LrAYVh7PFC1T1/AaPcwwBBBBAAAEEEEAAAQQQQAABBBImYGpXdQ4V3pCwtj1plwVWg4zVbOlHovLWBo9zDAEEEEAAAQQQQAABBBBAAAEEEiZgIis7y/nDEta2J+2ywGqQsZor/Y+InNDgcY4hgAACCCCAAAIIIIAAAggggEDSBMyeyFQKM5LWthf9ssBqULHaXVolJnMaPM4xBBBAAAEEEEAAAQQQQAABBBBInoBt3DBt2kH3n7w1ea031zELrAb9qrniYyK6R4PHOYYAAggggAACCCCAAAIIIIAAAgkUqLt2cNfywn0JbL2plllgNcC3rPui9oztvllEUg0c5wgCCCCAAAIIIIAAAggggAACCCRUwExO7Kzkf5XQ9htumwVWA3QPHXnZvlNGOh5q4ChHEEAAAQQQQAABBBBAAAEEEEAgwQLmuu/qXN77nwkmaKh1FlgNsK3JDhzlaOr3DRzlCAIIIIAAAggggAACCCCAAAIIJFjAFTtvVrnw2QQTNNQ6C6wG2GrZxa8xdX7RwFGOIIAAAggggAACCCCAAAIIIIBAggVU7N/T5cK/JpigodZZYDXANrxw8HR17bIGjnIEAQQQQAABBBBAAAEEEEAAAQSSLOC6388s7z0ryQSN9M4CqwG1aq50toh8t4GjHEEAAQQQQAABBBBAAAEEEEAAgQQLmNhAZ7nwxgQTNNQ6C6wG2Iazg/+mal9o4ChHEEAAAQQQQAABBBBAAAEEEEAg0QJ2XaZceHWiCRpongVWA2jD2eIFqnp+A0c5ggACCCCAAAIIIIAAAggggAACiRaw32TKheMSTdBA8yywGkBjgdUAGkcQQAABBBBAAAEEEEAAAQQQQEBU7ab0UOEEKCYnwAJrcl7PXj2cK/WryCcbOMoRBBBAAAEEEEAAAQQQQAABBBBIsICqLUkPFV6eYIKGWmeB1QDbcG5xv4rDAqsBO44ggAACCCCAAAIIIIAAAgggkGwBW5Ips8Ca7D3AAmuyYuOvwFpQ+qQ60t/AUY4ggAACCCCAAAIIIIAAAggggECCBVTsxnS58MoEEzTUOgusBtiqC0ofFUc+18BRjiCAAAIIIIAAAggggAACCCCAQJIF1H6RGSq8NskEjfTOAqsBtTXZ4v9zVP+jgaMcQQABBBBAAAEEEEAAAQQQQACBZAv8d6acf0uyCSbfPQusyZvJ8MLB09W1yxo4yhEEEEAAAQQQQAABBBBAAAEEEEiwgJl9q7NSeF+CCRpqnQVWA2zV3JUnidR/2cBRjiCAAAIIIIAAAggggAACCCCAQJIFTD6dqeTPTzJBI72zwGpAbW138QjX9A8NHOUIAggggAACCCCAAAIIIIAAAggkW+DcTDl/YbIJJt89C6zJm8na+QP7uW2pBxs4yhEEEEAAAQQQQAABBBBAAAEEEEiygCtnZJbnL00yQSO9s8BqQM16B1K1+50RUXUaOM4RBBBAAAEEEEAAAQQQQAABBBBIqIBr9aNnVfqWJrT9httmgdUgXTVbWicqezZ4nGMIIIAAAggggAACCCCAAAIIIJBAgVT71pl73fLmdQlsvamWWWA1yDecK65U0XkNHucYAggggAACCCCAAAIIIIAAAggkTsC2pMv5HVTUEtd6kw2zwGoQsJor3SAir2zwOMcQQAABBBBAAAEEEEAAAQQQQCBxAvZoplzYJ3Fte9AwC6wGEau50o9F5P80eJxjCCCAAAIIIIAAAggggAACCCCQMAET+UNnOX9Uwtr2pF0WWA0yDmeLF6jq+Q0e5xgCCCCAAAIIIIAAAggggAACCCRMwEwu7azkz0hY2560ywKrQcZabvBME/tBg8c5hgACCCCAAAIIIIAAAggggAACSRNQ+XRmKM+LYRqYOwusBtDGj6zJLn6Fo86vGjzOMQQQQAABBBBAAAEEEEAAAQQQSJiAmb2zs1LgxTANzJ0FVgNo40dWLygelHL03gaPcwwBBBBAAAEEEEAAAQQQQAABBBIm4Jr7ylmV3hsT1rYn7bLAapDxoX0vntqx6/QnVWVKgyE4hgACCCCAAAIIIIAAAggggAACCRJwxtr3n7ny9Q8lqGXPWmWB1QRlNVe6SUSOayIERxFAAAEEEEAAAQQQQAABBBBAIBEC9lS6XNhVRSwR7XrcJAusJkCr3cWPiOnnmwjBUQQQQAABBBBAAAEEEEAAAQQQSICAiQ10lgtvTECrvrTIAqsJ1jW5nx7pSPvvRQTHJhw5igACCCCAAAIIIIAAAggggEDcBayu7+hc0XNx3Pv0qz8WL03IVrOlfUTlLhGZ1kQYjiKAAAIIIIAAAggggAACCCCAQLwF6mr1+elK353xbtO/7lhgNWH7QPfALtOs7X4R272JMBxFAAEEEEAAAQQQQAABBBBAAIF4Czw9onLIvkP5Wrzb9K87FlhN2JqYrs0N3mwiRzURhqMIIIAAAggggAACCCCAAAIIIBBvgdV/2lI/cM6dfSPxbtO/7lhgNWk7vKD4HnX0W02G4TgCCRCwR11xLkxAo7SIAAIIIIAAAggkRkDN/ZCqdiamYRpFoHGBizLl/DmNH+ckC6wm74G7j7lq5+mbRp8UVafJUBxHINYCfOJGrMdLcwgggAACCCCQUIFqrjQoIqcltH3aRmDCAurK4enl+dsmfIALnyfAAsuDm6KaK40/yP1QD0IRAoHYCtRdO6treeH7sW2QxhBAAAEEEEAAgQQKVLOD7xe1ryewdVpGYBIC9vj3yqtm9ku/O4lDXPoPAiywPLglhnPFn6roGz0IRQgEYipgo6mRka69Vr15XUwbpC0EEEAAAQQQQCCRAtXugb3FUg+KSCqRADSNwEQETH6VqeRPnMilXPPCAiywPLg71mZL73RV/tODUIRAIK4Cj7v10ZfNWnH6vXFtkL4QQAABBBBAAIGkClRzpVtFZFFS+6dvBLYnYGqf7BwqfGp71/HvLy7AAsuDO6TafenuYlMeExE8PfAkRGwFNou5P2/foeMde9x86tOx7ZLGEEAAAQQQQACBhAnUsoP/ZmpfSFjbtIvAhAXqYod1lQsrJ3yAC7cpwMLFoxtjOFu6QVVe6VE4wiAQWwEVqbniXvjkFruQj5CN7ZhpDAEEEEAAAQQSJLA6O3BcSlM3JahlWkVgMgJ3pcs9c1TUJnOIa58vwALLo7tiOLf4TBXnBx6FIwwCsRdQsftVnLP32jL2O72zbyT2DdMgAggggAACCCAQQ4H7jrhk+g4j096mKt+IYXu0hIAXAh/PlPOf8yJQ0mOwwPLoDqgdVpxjKV3lUTjCIJAUATORpWM7bHndPr87409JaZo+EUAAAQQQQACBOAismTN4mDPF/aWIzoxDP/SAgB8CjtqRM4cKt/gRO2kxWWB5NPFl3Re1Z2zG/SK6t0chCYNAYgRUdIOJ/bQ+pf7RrqV9TySmcRpFAAEEEEAAAQQiKPDIYcU57Sn9soqcaHz6YAQnSMkBCmwS7dgjM3TKpgBzxjYVCywPR1vLFftM9HIPQxIKgWQJmKwxkf5NT0+75KD7T96arObpFgEEEEAAAQQQCLfA2vmDe7ope6+InCsqO4W7WqpDoPUCZvqRzkrPF1tfSTwqYIHl4RxNTGu5wXUisoeHYQmFQBIFVmuq/TUz991yty7uqycRgJ4RQAABBBBAAIGwCNx34C+mTNtl4+tTpv9tou1hqYs6EAizgIo889ty/SV9wu8zXs2JBZZXkn+OU82WrheVEz0OSzgEEidgIiOOyA1i9TPTlb7HEwdAwwgggAACCCCAQAgEaotKi9y6/aeazBVVJwQlUQICkRBQ0aXpcs/RkSg2IkWywPJ4ULWFpYK5stjjsIRDILECKvKUmH293u58Y9atPesTC0HjCCCAAAIIIIBAgALV3OBLRe0jYvLWANOSCoHYCKREztmrnL8oNg2FoBEWWD4MoZot3SMqB/sQmpAIJFZATaqu6bszI2PX6p19I4mFoHEEEEAAAQQQQMBHgSfn/WzXTe0jbxexz4rINB9TERqBOAvU0tN321tvOmEszk0G3RsLLB/Eq9niB0X1Kz6EJiQCCRcwV0QeTaX0FXvdln8w4Ri0jwACCCCAAAIIeCrwaHfxDe2mPzSRXTwNTDAEEiZgZp/qrBQ+mbC2fW+XBZYPxOu6rzigbu79PoQmJAIIPCtgW0R1YETkI/sO5WugIIAAAggggAACCDQuUFt4xeFm9S+q6bEmkmo8EicRQGBcwHF03sxlPavQ8FaABZa3nn+NNpwrXq6ifT6FJywCCDwn8IyKfWRsintZ19K+J0BBAAEEEEAAAQQQmLjAukWl/etj9mFRPWfip7gSAQReVMDkhkwl/yqUvBdggeW96bMR1y+6smtrvX6fiEzxKQVhEUDgLwJmj49JvdBVuet3Kv3jbzPkCwEEEEAAAQQQQOAFBO6YPdCx61R9t4p+yUTbgUIAAc8ExmysPrdzZd89nkUk0F8FWGD5dDMsOX5J26FPPXGzqRzuUwrCIoDA3wuMqsiyUWf0rL2Xnc7Ldbk7EEAAAQQQQACBbQjUuhf3mjifEdODRIzfB7lLEPBQwMRuz+i+3Tq0cNTDsIT6swDfsHy8FdbkSkc6Ir8VkTYf0xAaAQT+t4DJVhG7yNpGv9x525tWg4MAAggggAACCCAg8mi2uLBd9BOm9joRdTBBAAGvBcx1xT1xVrnvf7yOTLznBFhg+XwnDGdL16vKiT6nITwCCDxfYIto/Z1tm+XqPe/sewYgBBBAAAEEEEAgiQLV7mt2N3frJ1T1/Unsn54RCFDg15ly/vgA8yUuFQssn0e+Ore4JyVOyec0hEcAgW0LjL8u/kHX5JzOSv5XICGAAAIIIIAAAkkRMDGn1n3l+8TcT4jIjKT0TZ8ItErARE7vLOcvb1X+JORlgeXzlK37ovaazbhRRI/1ORXhEUDgBQVs/D3oP3fUPX/mUN/tQCGAAAIIIIAAAnEWGF64+FStOx8Tnscb5zHTW4gEzGTpk1vrx8+5s28kRGXFrhQWWAGMtHbYwOGWSv1eRFIBpCMFAgi82CLL9Asjjnxn36F8DSgEEEAAAQQQQCAuAiamtdwVh4rJBaJS4AHtcZksfYRdQEXqddNjZ1V6loa91qjXxwIrgAk++z+TbKksqgsCSEcKBBDYvsCIiRU6y4Vrtn8pVyCAAAIIIIAAAuEXqOaKXxXRD/Cc4/DPigpjJmB2R7qyar5KvxuzzkLXDgusgEby2KKBmfW6c4+JTg8oJWkQQGB7Aia3Wpt8vPM2no+1PSr+HQEEEEAAAQTCJ2DHL2lb+9T6d5nIh0V1v/BVSEUIxFtARZ4etbZD966cWo13p+HojgVWgHMYzpUuVpG3B5iSVAggsH2BMRP7sar8e2aocPf2L+cKBBBAAAEEEECg9QJrcgMvd8z5hKjyqWetHwcVJFXA7EeZSoHf8QOaPwusgKDH0zzysv/etW3TlAdV9CUBpiUVAghMQODZ96678omOkfo397yz75kJHOESBBBAAAEEEEAgUAET0Ue6SzM7XPnGc8+54gsBBFonYE+5bRsPmHXr29a3roZkZWaBFfC8h7PFd6jqfwWclnQIIDAxARORqpj9c6ZSKE3sCFchgAACCCCAAAL+C4w/V7faPfh5deVdorKb/xnJgAACLyZg4r6js9x7MUrBCbDACs762Uxr5/94x3rbDktVdF7AqUmHAAKTErBf1c39zKxK729UdHyxxRcCCCCAAAIIIBC4wB2zBzp2mZJ6o6PyMRE5NPACSIgAAtsSWOGMbTxm5sq3boQnOAEWWMFZ/zVT7cjL9rWRjjtEZIcWpCclAghMXKBuIt+RkZEvda560+qJH+NKBBBAAAEEEECgeYE12cHDUipfMbFXNB+NCAgg4JHAJqetPnfmrX0PeRSPMBMUYIE1QSgvLxt/73o1V/yBivKwNy9hiYWATwImtsU1659VKXyJV2P5hExYBBBAAAEEEPirwOOHXLXz6E6jP1XTE02kHRoEEAiRgNl/pSuFd6kI79IIeCwssAIG/0s6O2pgWm1r6rci0t2iEkiLAAKTEzAxudN13Atu45LEAAAgAElEQVRmDfUuntxRrkYAAQQQQAABBLYvMNA7kDr6/tRHVeRsVZm1/RNcgQACAQssE+04LjN0yqaA85JORFhgtfA2qC284nhx3ev5q0oLh0BqBBoRMLvKHP3U94duX94v/W4jITiDAAIIIIAAAgj8RWD8OVe77eC80lz9Cs+54r5AILQCY+q6J6aX994U2gpjXhgLrBYPuJorjT+M8bMtLoP0CCAweYHxdwN/Q7T9Y/wFZvJ4nEAAAQQQQACB5wQeWjQws2PMKarqMZgggEB4Bczcj3RWer8Y3grjXxkLrBbPeO3863a0tmdWmsj+LS6F9Agg0ICAilTN7CvpSv5CFeXVWA0YcgQBBBBAAIEkCjwy7793bW+f+k0Reb2I7JxEA3pGICoCKna/ju28YObKk/jUwRYOjQVWC/H/kvqhBZftO9XpWGoiM0NQDiUggMAkBcYf7G5myzRl/TOX5a/lQe+TBORyBBBAAAEEEiSwrPui9k6bcZaJ/KuI7p2g1mkVgYgK2FqnzT2aTx1s/fhYYLV+Bs9WsHZh8R2uq98TkVRISqIMBBBoSMCuFNMPpCs9j7LIagiQQwgggAACCMRS4NnFle6ZdV23qCJdsWySphCIn0DdFfm/s8r5H8avteh1xAIrJDPrl37nXdl5n1OVfwtJSZSBAAKNC2wysx88udX90Jw7+0YaD8NJBBBAAAEEEIiDwJrDB2c4Y/ZTETtORNvj0BM9IJAEAdfcz3dW7jhP+eCmUIybBVYoxvBcEX9acMVLNjv134voS0NUFqUggEDjAg+oyleH5Y/fXzh09mjjYTiJAAIIIIAAAlEUeHLez3bd1LblPFF9h4i8JIo9UDMCSRUwsdunqXvsbkN9TyXVIGx9s8AK2UQeP+a/dh7d/JLbRWSfkJVGOQgg0KCAifyhXfXD/zG08vf9/PWmQUWOIYAAAgggEB2BO2YPdLxkSluPqvtlEe2MTuVUigACzwnYo+3T2ufucfOpTyMSHgEWWOGZxV8rWZMdPCyltsxE2kJYHiUhgECjAmbXpg90T9HFffVGQ3AOAQQQQAABBMIt8Mii0v7tdbtVRGeEu1KqQwCBbQmo2OhIXbL7rCjcgVC4BFhghWsef62mmhs8Q8QuCWl5lIUAAo0LrDfT77tTxz7VtbRvc+NhOIkAAggggAACYRJYd8Sle7mjU79hYqeIyLQw1UYtCCAwcQFH5PSZ5fzlEz/BlUEJsMAKSnqSeUxE13YXP2Gm5/PJhJPE43IEIiFg97gi5z+1xb2SB71HYmAUiQACCCCAwDYFVs8Z2M3p0Hep6sdFdGeYvBNQkbrxKe3egRJpewLj75I4P13Of15F/j97dwIfV13uf/z7nJOlLbS0hUIzadmkgIWWJinwx40W8aJcoJCkUVxQRMTtKriDLBFFVESU61Y3LiBbmhQQRNwuiAtKm6QUiizFAs1SChRoaZtl5jz/1xS9V7gsSWaSmTPnk9frvu59Xc/v+T3P+zk2k2dmfsdf7WL+87EXYIA19uZD3rFFLeEbaoIrZfZ2ScGQF3IhAgjERsBcd0Vh5qTUisUPmoxflLHpHIkigAACCCRdwBfcVta7+ckjLAqucNNuSffIc/0Dkv9pi6VP3cHL7pRsWp7jEw6BFwiYFMnVMn2fzLs57qN4bw4GWMXbm+2Zbf/F+OzGy2V6Z5GnSnoIIDByga0mv7lv4+b37vXIyX0jD8NKBBBAAAEEEBgLgZ661v3ltlTS/uLc2jyT+30WhCdP32uwPTtIeKx26RvLZb9zWXmeNyIcAv8rYLqiauLUU+z2hWlYileAAVbx9uZ/Mnvo0J9N2mGw8r+k4IQYpEuKsRPwLXLrlmnf2KVeagm7Nrjp4jC95bvTV520pdTKox4EEEAAAQTiLvBEXVvVgOtsk94naULc6ymm/F1aZ4ouyFT6FS8+J7SntvUok93MQ66KqWOlk4uZWp997pn37//AKTxxsMjbygCryBv0z/TWzrtscmUw8b8lq4lJyqQZD4GngmBwwW6+zwM9tvYLFgUfkcRHtAvdO9ODUuaUp7fpLs7HKnQz2B8BBBBAAAHpqUNvmdQ3sLXRzL7DAe15viPcn3PTNePK+z6981/fvenlonfVthwReHCjzHbMcwaES7SAr6gsn/Dmnf969Mvee4nmKbLiGWAVWUNeKZ3s1wnXb9p4h0uHxShtUi1aAR9MR/b63Vc2LP9nihtmt+yYrrTLZUF90aadkMS2fw9f+msYZup3Xd60PiFlUyYCCCCAAAJFJ9BVs+yw0LzVpVTRJRfzhEz+l0qL3jqlffGmoZwF2lW77JhA/nNJ/B0b894XR/rRHx+YtHrhwtub+dpgcTTkVbPgv/ivSlRcF2SfchKOC34qt0XFlRnZxEnApK0yHVPV3nDbi/POPgGzZ37b6xT5F0325jjVVaK5Pivza7aUTfjcLN4ZKtEWUxYCCCCAQDEKPHpQ6wHloS6WdIQ4fymvLTLTakmfu3/iPb8a7vCgp+b6BrPoOp5OmNeWJC5YpGjZYFR2yl4rT3gmccXHuGAGWDFs3sa6lp363K6VgqN49yGGDSxwyiatjwI/unpFY+crpbKibkl5lXZ5r9w/Z7J9Cpw220tPBIHO1MCO105fdRTnY3FHIIAAAgggMEoCaw9umV6ZCT4m6VOSjRulbZIatts8WvLc5h2+PmvN0f0jReiqWfrmwIJWSZNHGoN1iRVwl/9ia3nfu2a9wldWE6tT5IUzwCryBr1cetufTrjpqV9I9haGWDFtYiHSdu/eoqhmVmfTE0Pd3ps96L3p+gvkfrokXsQNFW70rnvEomDhH2YNrmta2pQZvW2IjAACCCCAQLIEVs9uqZgyITjWIruWw8Lz3XsfdFmbWcUpqfZjt+Yjes+c1v1VZn+WaUo+4hGj9AWeP6LDb7l/0s4nLORpg7FsOAOsWLbt+aSzv2QnjwsuMNmnY1wGqY+VgPkDQRi9bfpdTWuHu6XL7bE5y/aqKLcLXd403PVcn3eBtEm/isKBD1cvP3Fd3qMTEAEEEEAAgYQJ9NTe8EZX+jsmm8Obw/luvv9BSp/2x47gwSbl9823dXUtc8Io/I1Mu+U7a+KVooBfUGVPfdHaTxssxeqSUBMDrJh3uWVxS/jGv4enu+urkspiXg7pj5aA2W/6g/RJe+XhMPB181qPDoPg85K/gRd4o9WwIcd9xt0v3SE97luT7znm6SGv4kIEEEAAAQQQ2C7QU7vste7ROWa2mNfSeb8p/ibXhVWd9VeZLPtwmlH52Vj38923+UCLyQ4dlQ0IGnsBkwZd+mzVcfdcas3No3Yvxh4qBgUwwIpBk4aSYk/t0npT8FOXdhrK9VyTDAGTpd2iq1Ltje/LZ8W+uCXsWhN+pMx0pktV+YxNrBEJPJ2RTlFl5taZdzZtG1EEFiGAAAIIIJAggUfn3DylvKz/ozKdx+Aqz413bTSzn3TbE1+YP4afdOmpXbpMCrIPugryXBHh4i3wtLveV93ZkH16JT8xF2CAFfMG/mv6PXWt+5vbfzNQKKGm5liKyf9j+mui79sonZX01KG3TBpI950l12ezXzPMMV2W5yaQkfyhoCw6eiRfE81ta1YjgAACCCAQH4HeuqWLIw+W2PMHgPP6JX+t88jVWpaxj01fVb8hf2GHFsnrlpSvz+xylgdqHtoKrip5AVdXxv2ImSsbHyr5WhNSIP9gl1iju+a2zbBy/465Zd994Ce5Ak9a5O+dvrLhlybz0WTIDq566pbVmOssSQ2juRexhySQlvzaTKTz+WU9JC8uQgABBBBIhoD11LW8XlHwJVlwuHjjLa9dN9fvzez8O16T/n0hHzKT/ZbA44+EjVHGfiA5TyjMa5djFsx0Q1mQ+fCueThCJWaVl3S6DLBKsL2u5qC37sBL5PZBnhpXgg1+9ZL+KMu8K9Xe9NirX5rfK3pqWhvc7FyTOAA1v7QjifaMy85OD267eo973sX5WCMRZA0CCCCAQEkIPDqnbe/yMn3aTB90KSyJooqlCNdaN7841dHwvdF+03Q4Ja+bd9WsMBh3jaS64azj2vgLmLRV8u8t6bj3c83ivKv4d/SFFTDAKrWO/ks93TVtR5rpl3yvv4Sb/MLSsp+0+mFVR/2HC/kColnNwSnzDvyPMNDXJatIjH6RFmrS5iiwhtSKE35byPuiSHlICwEEEECghAWyn8bpeTj8lLlfKDPORcprrz2S6Vs/bL/3M8U6JPBmD3p/vuz7kp3KJ+7y2vxiDpYe9Oite3Qu/l0xJ0luIxdggDVyu1is7Klr2d0U/NDdjopFwiQ5MgG3x2XRex+YdO/vFt7enB5ZkPyuyt578uB0SZ+QeNGYX91hR8s+KvhO88yHqzqb7hv2ahYggAACCCAQM4Gu2tamQPZFSftxzlX+mmdS5ObXlVv5F6etWPRA/iKPTqQVdUvKZ9gub4si/UTSLqOzC1GLQcCkmwZ94EO7d57YUwz5kMPoCDDAGh3XoovaXbP0c4GFZ7l8UtElR0I5CnhbkK74zPRVx63NMdBoLLfHD156WCZj50r2b7yAHA3iocc0KePy74ShXbrb8oa/D30lVyKAAAIIIFD8AtlzOdfNWzY/DPxckx1T/BnHK0OX/iKFX0l1rPyFxeyrWevmtc4KAn2T+yJe99yQss0+9TLQV6raGy4e0vVcFGsBBlixbt/wku+padtDgf9arn34RMzw7Irxapeedo9On9G5+IpizO/FOXUf3HqsZeyHknZjkFXwjm12jz5owbifp9qP3VrwbEgAAQQQQACBHAW69l+2s3bQOYH7x3mdkSPmi5a7a6MCnVPd3vC9/EYe+2i9NUtPcrNLJdtp7HdnxzwLZJ/A/aAsemshzv7Ncy2EG6IAA6whQpXKZQ/tc2nljpOqT4zkS4zzieLc1lsHbOv792x/T2+cinji9TdOHOwbPFmuizgfqwg6575WkT6curvxV0WQDSkggAACCCAwbIGWxS3hYQ8HnwxknzNp52EHYMErCbhM34xCu3DGXfVPlQrVkwfdVD0Q9v9E4oiV+PbU+yLZh5/ty1x9wH1NA/Gtg8yHK8AAa7hiJXJ9b03L7MjCLwfScTyNJUZNdV/rCs7qDZ5om99+WvZco1j+dB107b4WlH/WTO/lIQOFbqEPSnZzxjLnzWxvuqfQ2bA/AggggAACQxXorm091szOlutgPnU1VLVXv+75Iwf0c7l/JdXZuOLVV8TvCq9bUt7tO58QyL4uaY/4VZDYjNMuXacg86XqFU1FfwZbYrs0ioUzwBpF3GIPnT0noKdm2bFm+qqk1xZ7vsnOzzfJdVVP8NQn4jy4enEP19XdcGiZZ74l6RCXeDpQYW/y7LusX05HAz/g8MvCNoLdEUAAAQReXiD7+rX7oOtmWVD2DTM7Fqu8C/wtcp1b3VnfloSnF2efVNn7cHCxSSe7jLOC83475TXg3S4/p7qj8WZJ2aev85NAAQZYCWz6i0u+bcFtZfttevIUKfiupBCSIhNwX5HW4KKZnSf2Wgn+Y5396P8b19q/eRT+gkccF8O955s8CE6rXlF/bTFkQw4IIIAAAgj8UyD7muEND9s3pOBjfII7v/dF9lNXJvvw3yZNuWzh7QuL4onW+a3wlYaisg0H3rhrpmJwmWSvG6t92WdoAialM1H6A9Wz7Ge2tCkztFVcVaoCDLBKtbMjqOvRg9v2Lo/0AbnOkDRuBCFYkk8B0x/l4VmpjuP/kM+wxRqrt6ZlWkbhaYHpLEnjizXPpOTl8r+aheem2k/4dVJqpk4EEEAAgeIU8AW3lfVufuojcvuEpL2LM8u4ZuWRS98vC+2bPKFYeqym7U1lpnMkHRnXjpZQ3lsluySTKf/+zLuP7S6huiglBwEGWDnglerSjXU/371Pg1+S6wRJE0u1ziKtK3vmwHJ3fa96n8zVSXyX4ZHaa19b4WUXyuxoSeVF2qekpJU26Wdu/rVUe+P9SSmaOhFAAAEEikPAJeuua1sQRGqW6U3FkVXJZJH9JMsdHkVnV69c/OeSqSoPhWz/WuHa8uOV8c9K0XyZccxFHlyHHML1tExLPQy/XL38+HVDXseFiRBggJWINo+syK5DLt/Z0hN+agqy70BMGFkUVg1RIOPytRbaKanlDXcMcU1JX9ZT21JnCq/z599p5d+qQnd7+yfjKr6daj92a6FTYX8EEEAAgdIWyJ5z9dicX0wuL+v72T/e0Crtgse8Ot8QWfCxGe31S8d865ht2D1v2VvMoh/KbCZHrYx687ZIdn2Q3uFD01cdtWXUd2ODWArwR2Es2zZ2Sbuag56D51XLMydapLP5RFb+7U32hyiIPrH1mQn3zVpzdH/+d4hvxPv3+8nEiRN3OkYZXWZmlfGtJP6ZZw9ydfmjoezsXTvqry7F89ji3yUqQAABBOIvsHp2S8XkyvB8SaeaaWr8KyqqCgbc9eloXOaqmXc2bSyqzIo4mYf2uaVywk7bDrDIL5bZgiJONa6pPePShZWZiqt2vvuYniQ8PCCujSqGvBlgFUMXYpLDE3VtVWnZuzyK3iWzg/hUTE6N22Cm6zKuq6s7Gv7KMOCVLR8/8MbdMhWDn5PsND4NmNN9l5fF7vpNILugqrP+93kJSBAEEEAAgcQLZAdXUyvL3hGZn23SrMSD5BEgewi2m64ejDJf26Oz6b48hk5UqOwnA3trW98gBe+Sa7EYsI64/9mHBki6K5Jf5WXBtTPuqn9qxMFYmCgBBliJanf+iu2pW/YGeXSOyw42aUr+Ipd0pAHJ1rrrsmf605cccF/TQElXOwrFdR2ybN8wE10ht1rnfKxREB5OSI8k+5GH4QWcTzAcN65FAAEEEPhXgWY1Bx+YN3uuBeF3TeIJcPm9PbJDggcjt1NmdNbfmd/QyY62dsFl4yqfmXSGBXq/S3vyVMyh3A/mkj8p9xUe2gXVKxr+NJRVXIPAvwowwOJ+GLFA9uuFj82ZtVNYMf7tFkVnm1n1iIOV9EJPm9n3y6QLN2zLPMXgKrdmZw/W7HnIDpVZC/dcbpZ5Wr3FpPOrOhq+nqd4hEEAAQQQSIjA9q9mTdq6VLKjTKpISNljUqbJN0Xup6WCjW3WftrgmGyawE2y9/AOE7dNd9N55v5eDnx/6ZvA5Gs8svMqK7fdPPWv79rM1wQT+F+WPJXMACtPkEkPs/28gvHRgfKyN5vsJEkHJtzkKXfdIGV+Ho3THzlnIP93w6Nzbp5SVtb/7iDQBe48LTP/wsOOeK9LX0513LPU1BwNezULEEAAAQQSI7B2wW3jyp998tOB2cclm5aYwsem0D6TvjroZT/avXNRz9hsyS5ZgQfqrt5lB5UdGnh4ouTHSjYpyTIu/6vMrpIG/5SauNsqu31hOske1J4fAQZY+XEkyosEHq9ZdlDGvckDf6Ok/a3EX5yYNOjyh8xshaSW6c+O/61xIPuY/Peit6Zlmiv8hkyNnI81JuSvvIn7LR7q7OoVjZ1FkA0pIIAAAggUkUD2Dc9J43REqOBSyTjnKr+9Sbv8VjN9JtXeeH9+QxNtuAI9dTdNiGzg6DBSg8vnmmxfl8qGGydm12+Q9DfJf5MpV8vMvzY+FLP8STcGAgywYtCkuKe4/cDDg1rfotBOl+xwSRUmC7P///jWtv38n7Tc13hgPxj37LbLd17z7k3xrSf+mffOu37PKMz8wXz7V1ljfG/FvxeSPHK7oqI//bFd72t6riQqoggEEEAAgZwEug792YxgYPwymQ7OKRCLXyzgkp6RMm9JdTS1w1OcAs9/Oqvy1FD+gchthsnLJAuKM9shZ5X9RNU2uW6NMvrmjFUNfxnySi5EYIQC/JE3QjiWjUzAF9w2rmvTEzPMbY9AwdvcdKRJc2MxcHDv9iC4Q1H0WwW2ciDI9Oy5fPHjfId7ZPfCaKxaUbekvCoz9WgLgm9L2mM09iDmsAS6TbqU87GGZcbFCCCAQEkJbJjdsmO6MvyuzI9P+leq8t5Y19MyfT5Ib7lq+qqTtuQ9PgHzLrD9jf26a3aWl+3hZoea25sle5OkXfK+Wd4DesZkyzOm34aZ4HdhEHSlLehJtR+7Ne9bERCBlxFggMWtUXABr7tpQne07SBT8FqZaqRgT3k0w8xmjP0/5r7NZV2S1pn5Oo/0d4V+t7l3VrUvXsewquC3y5ASWHdYy9SwP/yUSx8xafKQFnHRKAp4p7s1p/bJ/MKWNmWfiMQPAggggECJC/TULZlg2uV9Hvl5Mtu1xMsd4/Jsqym6LJ2JLpx5d1P3GG/OdnkWyD6J84M1s2Z6WDFPUTDPpFmSzZBHu8tULdkYPuDA3BQ9nv17yN2zb0Q+Gkn3S9FKH6eVM+9s2pbn8gmHwLAEGGANi4uLx1rg4bqWnSojm28W7m+mvT2KZsm0ZyDbwaVyl0IzhXKFkoV6ia8luisyU/Yjrtk/nP/5vwfl3i3ZGs/+T+gPmzL3pFbc9xAHUI91l0dvv+wgK+gPLjfZWyRVjt5ORB6KgMlvzqT7Ply96l3dDIOHIsY1CCCAQPwEfMFtZRs2bZqd8cEbZLZX/Coo6owzMv2lPzPw7r1WnvhIUWdKcnkRaFncEh72cHBAEASzA/dZ7prl7q+RaVeTlWf/Bsr+LZQ9X8uf/7//z9cS/fk/kDImpf35v4f+8TeRP2uuv8vs4ezfQ8qk/9b/7LQVez2ysC8vyRMEgVEQYIA1CqiEHHUBW1G3pGy3iillm55VOG68wrKBCUF5hYdbBwdf8I/2DmHaM+Vl0eCAZXbcIcj0Rf3pvifWR/us2TjIoGrU+1QUG9y24LayWc88c2AQZK6XbM+iSCrZSWTPxLpaVnEGHzlP9o1A9QggUHoCXXPbZoRlutyl7FeiSv3A6jFuoD8lC47f8mzX8llrPt4/xpuzXZEJeLMH+tkvy3t3yoTl46LwuS1RmP1bqK8v+6b+C38mlPdFgwOTMjtOCDKD28LMblMrtg+weCpgkTWVdIYkwABrSExchAACcRfIviPc89xTJ5nbF+TaO+71xD1/l9bIdEl1e8P34l4L+SOAAAJJF1g77/rJlRad7ab3mzQl6R55rv9JM/tauC39Ax6MkmdZwiGAQOwEGGDFrmUkjAACuQhkv5Y6Pgq+amYnurRTLrFYm7uASe1udnrV3uk7OR8rd08iIIAAAmMpsO6wlvFBny0yC/5z7M8tHctKC7LXNpPfEobRx3Zd3rS+IBmwKQIIIFBkAgywiqwhpIMAAmMj8MR+N04c2GHwelP26S/8FFggezzDrT321KL57acNFjgXtkcAAQQQGIJA16FtM2zQ/2wKZrzUGaRDCMElLyvg93k4+Nbq5SeuAwkBBBBA4H8FGGBxNyCAQGIFVs9uqdip0t5oZt8x2f6JhSiewp8y+U+f3fLsl/Z/4JTNxZMWmSCAAAII/FOgp6ZtDzP/usuOlzSGT0cr/R6Y1OOy/5CV38o5kaXfbypEAIHhCzDAGr4ZKxBAoMQEsgdhrr9p2Rnu/nHJdi+x8mJYjj9g0rnTj7u31ZqboxgWQMoIIIBAyQk8OueqKWWVFadaFHxenHOV1/6a7En36McKKr/E4CqvtARDAIESE2CAVWINpRwEEBi5wOoFLTtO3mQ/koITTKoceSRW5kXAfXUUBfXVd69aw1ND8yJKEAQQQGDYAivqlpSnfOcjJF0nGWdHDlvwFRcMmnSnW0VDqv3YJ/MbmmgIIIBA6QkwwCq9nlIRAgjkKNB10LJ9g9AvlXRUjqFYnrvAVpfflKpMnWx3vm5b7uGIgAACCCAwVIGuQ5btG6Sjq0x2kEvlQ13Hda8u4NLd5v6Bqs6GdpP5q6/gCgQQQAABBljcAwgggMBLCGTPx5o6vmyRPGp22WyQCi7wpEsXjSvf9oOd//ruTQXPhgQQQACBEhboPviamUGm4vMuP1UyBlf57LWry+Rf8aDycr4umE9YYiGAQBIEGGAlocvUiAACIxZwua2vXXaeSx+RNG3EgViYHwHTg2WRTl290z1/Xnh7czo/QYmCAAIIIJAVeOrQWyYN9G+r91CXyjURlbwKZB9OcnXVpvGfsDVH9+c1MsEQQACBhAgwwEpIoykTAQRyE+g6ZNnOPuiXhqZ35haJ1bkKmJSRaVUUhIuqlx/PI8ZzBWU9AgggIKl3/tIFngmulWk3QPIt4H8u9/LFu3Qe18vXBfNtSzwEEEiSAAOsJHWbWhFAIGeBnoNa3qCy8Fy53pJzMALkKvCsK7pq85ZNn9//gVOy72zzgwACCCAwTIHeg1oP8FAXmexIzrkaJt6rXe6+0gI7e3p7/S0Mrl4Ni/8cAQQQeHUBBlivbsQVCCCAwAsEfMFtZT2bnn6PFJ1lsn3gKayAyZ+NFJyxtXxr2yzOxypsM9gdAQRiI/DkQTdVD5T1f0yRPiuzIDaJxyBRk3pkviRdEV00884mHkASg56RIgIIxEOAAVY8+kSWCCBQpAJdNUu/EljwKUkVRZpigtLyxyzU0dOXN9zHO90JajulIoDAsASyb8J0b37yhMCDyyWNH9ZiLn5FAZPSLl1XNWnq++z2hZzTyP2CAAII5FmAAVaeQQmHAAKJE7B181r3CQI7z7T9fCz+XS3sLTDg8juiSB+ZubLxocKmwu4IIIBAcQl01Sx9c2jBN12aW1yZlUA27rd7qE+mVjTcbbKoBCqiBAQQQKDoBPhDq+haQkIIIBBXga66ln8PPPy8pDfEtYYSyvsZefSdcYF/Y2p707MlVBelIIAAAsMW6Kld9lo3P9tcTZLKhh2ABa8kcG/k+vqMzoYrYUIAAQQQGF0BBlij60t0BBBImIA3e9B987JTg8ibJZuesPKLsNyoTxl/Z2aCbuUckiJsDykhgMCoCjw656opYcW4jwWuL/IJ4bxTPx1J36+2PZqtff5g3qMTEAEEEEDg/wgwwOKmQAABBEZBYO286ydXWuZzMjoxB80AACAASURBVMt+IoufQgq4RzK7z0J/R9XyxtWFTIW9EUAAgbES6KlpbZDZdyTtxvAqz+qmK6SKT6Xaj30yz5EJhwACCCDwCgIMsLg9EEAAgVEU6J5/Y41l0mdJXs9TnkYRemihByW/NhPpS5yPNTQwrkIAgfgJ9NYsO9wVnS+zN8Uv+2LP2P9gkZ87feXqO0zNnHNV7O0iPwQQKDkBBlgl11IKQgCBYhToqmv790D6mlwHFGN+ScrJ5JsyZudPUObHnI+VpM5TKwKlLfDI3Ja9KsqCz0t2iqSwtKsd4+rM15oHX6rqqL9sjHdmOwQQQACBfxFggMXtgAACCIyRgMutd/4N71YU/UhS5RhtyzYvKxANRgrfOqOj/r9BQgABBOIs0DNv6VkKgi/zVcH8dtGkKHJdlNpp6tl2+8J0fqMTDQEEEEBguAIMsIYrxvUIIIBAjgI9dS27y4PTJTsjx1Asz1HApLS7/zFUcPpunfV35xiO5QgggMCYCbhk3fPbGoLIvij5axle5ZvefybTBan2xvvzHZl4CCCAAAIjE2CANTI3ViGAAAI5C3Qf1FpjoX1F0lv4ukfOnDkFMClj8kv7Q/vOHssb/p5TMBYjgAACoyiQHVytP7htvmd0vqS3juJWyQxtusss/OL0FYt+aTJPJgJVI4AAAsUpwACrOPtCVgggkCCBdfNajw7NLjOzadmvGSao9CIs1bdmPxmXqcxcOfPOpm1FmCApIYBAggW6Drl8Z0vveH4gfcilIMEUo1H6M5J/NtXRmP2aPz8IIIAAAkUowB9KRdgUUkIAgeQJPFzXstN4D98h6ZuSJiRPoHgqzp554uaPyvXhVEfjr4onMzJBAIEkC/TUtH5etv2r57sm2SH/tXvGFXwzTOsb01fVb8h/fCIigAACCORLgAFWviSJgwACCORBYMOhrbPSafusXNmnSPFvdB5McwiRkexGD6IvV69o7MwhDksRQACBEQk0qzk4tWb2MWbhOZLmjygIi15BwJfJdWGqs3EFTAgggAACxS/AH0fF3yMyRACBBAp01Vx7UKjyH7qpjvOxCn8DuNRcHmaW7Lq8aX3hsyEDBBAodYHs18m75rXtUxbYN1w6rtTrHeP6suda3R/IPze9o/GmMd6b7RBAAAEEchBggJUDHksRQACB0RTwBbeVrd+88Sj36HopKB/NvYg9FAF/1gP7VGpF/U852HcoXlyDAAIjEXjobbdUTnh868WSnWpSxUhisOblBQLptN36Mv9l9zUN4IQAAgggEC8BBljx6hfZIoBAAgUeqmmZtoPC02T6nKQdE0hQNCVnz8eStNzl53E+VtG0hUQQKBmBdfNaPxEGdrqkPUumqOIoZMBMSzzSxanOhkeLIyWyQAABBBAYrgADrOGKcT0CCCBQIIEn5t+432CU/qrkx0nG06cK1IfsttlBVsb9qoyir+7R2XRfAVNhawQQiLmAL24Jux/W4YHCiyTVxrycYkvf5f5797IvVK88/s/Flhz5IIAAAggMT4AB1vC8uBoBBBAouMCGea2z0oH9WtIeHPRe8HZI7mdWbZ5wia05ur8IsiEFBBCIiYBL9uR+P9lxYIedrjbZMTFJOz5pujZEgd4/o73hF/FJmkwRQAABBF5JgAEW9wcCCCAQQ4H797tx4qQdBhdJtkTShBiWUFopm691D76UOu6Ey63Zsl8z5AcBBBB4WYGeupsmuA82m/xUSZOhyquAK/BPySuvTLUf+2ReIxMMAQQQQKCgAgywCsrP5ggggEBuAtnzscZb8IXA7P1yTcwtGqtzFHCXbgs8c35VZ9Pvc4zF8iIQWHdAy1QfX5Yq80zKZFVRFEyX+VSTT4mkqaFsiktTzFUh80qXVcgVunx8Nn2TbZN5xqQBufW7acCkpzPypwNpo8ueltvGIIjWu7w3bWHPpP6K7sn3HPN0EZRPCqMg4PKgu6b13abgC2badxS2SHLI7KdgWwYH1bzHPQ1/TzIEtSOAAAKlKsAAq1Q7S10IIJAogXXzWmeFoV0m1/+TFCaq+OIs9soorbNmrGrolpR9ZDs/RSqwenZLxZTx4yeFwcCktKvKo+jwQHa4ZIcU8JMxz7j8Lovsdi+Pfl+mYH0mqtj09LZtmw7gyWlFeie9clrbz7l6SHPCILjcZXNjWUTxJh1J0f0e6dTqlYs556p4+0RmCCCAQM4CDLByJiQAAgggUBwCvuC2sp7NG+ea63pJuxdHVonOYrNM30q1N5ybaIUiLL5lcUv4pod1eMaDd5nZW6Ttn17MfmqqsgjTzabU79I2cz2nIPqLPLi6yva42drnDxZpvqT1LwIr6paUp3zna2V2tFzjwMmfgLtvdI9Oqh7Qb4zhbv5giYQAAggUqQADrCJtDGkhgAACIxV4dM5VU8orKk+S25f+8Yf5SEOxLg8CLr/HTRc/NPHeqxbe3pzOQ0hCDFNg/dxlu6YrMm8No+DISJpr2v7Vre1f84vvj2+TBQ/Io3szsj+M84Gbp3We2BPfekov8w2zW3bMjA/PiCI/3cymll6FhavIpIwUfbnMgiXT2ht6C5cJOyOAAAIIjKUAA6yx1GYvBBBAYAwF1s67fnJlkP6OFCyStOMYbs1WLy1wq2f8rOq7GzsBGl2BtQsuG1e5afIBsszrI7f6UHqDl/5XayO52mW6Wgr+0D/pmdV73X5y3+hKE/2lBLKfhl3/3JNviSK7xGT7oZRXgX6X/2bQ7IN7MrjKKyzBEEAAgTgIMMCKQ5fIEQEEEMhBoHfe9Xu6ZX4ts1k5hGFpngRMurZv46aT93qE4UKeSLeHcbk98Pqf7zhp2+DHJTVLVpbP+DGMFcmiSwYHBi7Y/Z53PWOcxTYmLeya2zbDyqLfmgIGV3kWd/dnFOqI6hW8CZBnWsIhgAACsRFggBWbVpEoAgggMHIBn91SsX5CcKRn9B2Z7TXySKzMk0C3TN+tOvaer1lzc5SnmIkM80RdW9VAZB+S+fEm31cyzhh6wZ3gfZI9INctXjbw/erlJ65L5I0yykWv3fOycRVTd/xeoKDepZ1GebtEhTdpQ8ajz5RltrVNX3XSlkQVT7EIIIAAAi8QYIDFDYEAAggkSOCpQ382aWBw/CddfoZkkxJUerGW2u6u81M7Tb3Fbl/I+VhD7NL6ub/aIV22aaFZcKK5jpc0YYhLE35ZdpilW+S6elsQ/fY17U3PJhwk5/Lv3+/GiTuNT7/HA31FDK5y9nxRgH6TflTmZRdO61zE+W751iUeAgggEEMBBlgxbBopI4AAArkKrJ7dUjGlMrjezd5sxfvktVzLjM9691/64OBp1ffy6ZiXa1r2K4KPzbl6cnlZ5dtldqGkyfFpcFFm+kxkdqb3pVtmrF78tMm8KLMs0qR8cUvY/Uj5HMtES03ap0jTjGtaaZe3mw0ck2p/55NxLYK8EUAAAQTyL8AAK/+mREQAAQRiIZD9A6z34fJ58swVMpsdi6RLO8nN5r7Ug8r/SLUfu7W0Sx1edX8/8OrdKisrLjC34yTtIonXL8MjfPm5oLRRZr9OR+Gnd+dTLkNS7T74mpmWKb/KZP/PpfIhLeKiIQmY+xNmwTt260v/0e5rGhjSIi5CAAEEEEiMAC8AE9NqCkUAAQReWsDrVpT3RI+8x8y+IGlvnAou8Hc3XZxqzywxNWUKnk0BE+iqWXZQYNGnzWyRuyYWMJUkbL1Z0g1S5tupjqb2JBQ83BqfeP2NEwe2DZ5jslP5BOBw9V71+ifcoq+bxn2PAf6rWnEBAgggkFgBBliJbT2FI4AAAi8U2DC7Zcf0uPBLkk6RGBYU/P4wX2kZ++D0yVM7k3Y+VtdB1+4bBGVnyOxDBe9DEhNw/cTDzEXVK5oeSGL5L665p+6mCZH3HxPILuO8tXzfEd7n0o1hOvj49FX1G/IdnXgIIIAAAqUlwACrtPpJNQgggEBOAtlzhh6fe+WETNkOPzfpiJyCsTgfAplI/uvK8eVvn/anRdlPyJT0z8a6lp22eXBlIHsrX80qeKvTMv/FNkXvTfJh74/Oadu7vFy36vlzrnjdnNfb0u8Ny8uP3PWvx23gDLa8whIMAQQQKFkBfhGXbGspDAEEEBi5wG0Lmsv223zAEebBRS7NHXkkVuZJ4El5dPmmrZu+uP8Dp5TcIOv5+23OuXJlv5o1PU9mhMmPwAY3XdarJ8+Z337aYH5CFn+UtfOu2XNcWHGRuy+SjHOu8tuyXpOfnq6Mbpp5Z9O2/IYmGgIIIIBAKQswwCrl7lIbAgggkKNA9qD39Q/ZGR4E/yFp9xzDsTxHAZPWRNLZqUlT20rha4XrDmsZbwN2TODBRZL2yJGH5aMr0G1mZ/RNnHLTXrcv7BvdrQoX/dE5V00pr6g8zdw+79JOhcukFHe2J838J90JG4aWYiepCQEEECiUAAOsQsmzLwIIIBAjgeygIewPvi3ZeyVVxCj1Ek3V/ya3t1V13rPO1BzFscieupt28aj/RjN7XRzzT2zOrrvCwf7jdrv3nY+XksGKuiXlVZlpC8z8JpkqS6m2QtdisrQp+u/ByujEmXc2bSx0PuyPAAIIIBBfAQZY8e0dmSOAAAJjKuBqDnrmz55lUXCpZP82ppuz2UsJbHXp51F/5qMzV8fnj8LtgwJNO9Pcz+BJbvG8sU16NpL/6Jm+6AsH3Nc0EM8q/jfrnrrW/c2Dn7r8EElh3Ospsvw73fSB1N6Zu21psp+qWmR9IR0EEEAglgIMsGLZNpJGAAEECifQsrglfN3frd48PMfkcwqXCTs/L+BPuHRRn0U/LPbDtntq2t5kpvNdOpzuxV/Apb+Yws+mOo7/Qxyrefzgtr0HM9FnA9mpkgVxrKFYc3b3LgV+YVThl3HOVbF2ibwQQACB+AkwwIpfz8gYAQQQKAqB7BMLe+a1nmdB8FFJuxRFUolOwh/zKPhAavKU24rtfKy1C24bV7n56Q/Ko29wIHap3aQ+KNenFTz141T7aVvjUN1Dh/5s0oT0+CaLdIlMO8Yh5/jkaJsC+TW7ddzzkbh+vTk+1mSKAAIIJE+AAVbyek7FCCCAQF4Feuqu3sWjyq+a6f08Zj6vtCMJlnb536JM5dtm3n1s90gC5HvNE3VtVQORfhmYzc0OPfMdn3jFIeDudw8G2962Z/t7eosjo5fOoqt22RGBR9fKLDt0537Ma7P8Dln0nqr2xetM5nkNTTAEEEAAAQT4xc09gAACCCCQD4Ht52PNm3OYAp1v0hH5iEmMHARczynwKy2KzqvqbHoih0gjXrr9nqib8365N5usesSBWBgngfVu0Tmp9tU/LbZP3/Qe1HqAh/Y1SW/lnKt831LeGUpn7tpx72+Kre/5rpR4CCCAAAKFFeCdp8L6szsCCCBQUgLZocX6ugPfE7nONtk+JVVcHItx32iBPlk2rnzZtD8t2jxWJTzx+hsnDm4dPEtmn2FYMFbqxbKPRy5dPBCFX9lr5QnPFDqrrrltM4Jy/6jcPl/oXEpvf+816ZLptue3rH3+YOnVR0UIIIAAAsUmwACr2DpCPggggECJCPTUtn5Z0pkcjlwEDXX1eqBjUu0NnSaN6ld7Nsxu2XFwXHiHSTVFUDkpFEjA5R1heuubpq86aUshUnj+qalzmyzyn0oaX4gcSnjPyNyurOqsf18J10hpCCCAAAJFKMAAqwibQkoIIIBAqQism9c6qyywM13+XgZZBe9qv0x3BGHmtOl3Na0djWy6513zOgsqrpU0czTiEzNmAqauyLV4RkfDX8Yy8+6D244MMvZNlx/IcRn5lY+k2yzwT6VWNKzknKv82hINAQQQQODVBRhgvboRVyCAAAII5CCQPbi7u+aGI0yZ883sdTmEYmleBDz7iZhvmUffztf5WNufSFl7/ftM/hMGBnlpUikF8Yz0oRkd9T8a7YHHozUts8sUnG3S22UWlBJiEdRyr3t0Qaqz8brR7mMR1EoKCCCAAAJFKsAAq0gbQ1oIIIBAKQp01bS9JwjsIrl2FU+kK2yLTZtNOrFv4tTf7XX7wr6RJuOLW8Keh+0cU3DeSGOwLgkCfkHVa6LzbGlTJt/Vbqxr2ak/Cj7hZl/Md2zi6Rk3vyS1d3TBaPQOXwQQQAABBIYjwABrOFpciwACCCCQs8Cjc66aUl4+/lOSn8WndXLmzDVA9jys1VGZfXDGXfV3DjfYQ/vcUjlh0pYWU/DvHNY+XL3EXZ+RolurNu3QYGuO7s9H9dlP/vXWLTvRXReZlMpHTGL8r4BFuixIl525672LNoz22Xm4I4AAAgggMBQBBlhDUeIaBBBAAIG8C6yrbZ0byM4yqZHhR955hxnQ+yRbmlHm/JkdTWuGsrjrkGU7B4PRFTJ7G4PIoYhxjbZ/7DK6Re4n5/r11d66toUe6TyZ3sT9l9d7y+W6w2TnTe+szz6MYVQf+pDXzAmGAAIIIFDyAgywSr7FFIgAAggUt0BP7bK3yqKL5JY9cJmfggp4n0vn7jA47seT7znm6ZdLZd1hLVPD/vAqSW8taLpsHksB9+g3Xh6eOOOu+qeGWYA9Mrdlz/Ky7DlXdjKDq2Hqvdrl7mtddkF1Z0P2LDt+EEAAAQQQKDoBBlhF1xISQgABBJInkD1Hqfuh4N1BYD+UVJE8geKpOHtAsyvaHCg4YXpH/X+/OLPVs1sqJo8r6zT57OLJmkxiKHB/VV/mILuvaWCouXfVtJ0dms51qXyoa7huSAIZk748vS/zleH0Y0iRuQgBBBBAAIE8CjDAyiMmoRBAAAEEchPoPviGmRZFp8uj0yWeIpabZs6rXfLbPfKzq1cu/nM22vb+pDO/lOmAnKMTAAHTau8P31Z97/HrXg7D5UFP7bLFJj9XMoam+b9rrhz0zFd372z6G18XzD8uERFAAAEE8ivAACu/nkRDAAEEEMiDQPdBrTUW2NdkWiipLA8hCTFygX5zfUeu6zzUJXK9fuShWInACwVc+kuFqX5ae0Pvi216D2o5xMvC8+Q6Grf8CZgUuatdFp6T6jj+V/mLTCQEEEAAAQRGV4AB1uj6Eh0BBBBAIAeBntrWo+R2uUy75RCGpQggUMwCZndteXbcm2b94+mEz8y5ecqWiv6LzHVKMacdz9xsk6RPpzrqfxTP/MkaAQQQQCDJAgywktx9akcAAQRiILB23vWTx4WZE93tYknjY5AyKSKAwHAFzDsryyYs6E/3fUTuZ0jadbghuP6VBHxQCr4epHXp9FX1G7BCAAEEEEAgjgIMsOLYNXJGAAEEEijw+ME3751J958pU/bpY2ECCSgZgVIXyD6VcOdSL3Ls6/Mb0pF9ZfeVDcvHfm92RAABBBBAIH8CDLDyZ0kkBBBAAIExEFhX2zo3lF1h0gHO+VhjIM4WCCAQQ4FIpjUepT9a3fn238Ywf1JGAAEEEEDg/wgwwOKmQAABBBCInYDXLSlfr13+zd2vkWxi7AogYQQQQGDUBDwj2UerJk293G5f2Ddq2xAYAQQQQACBMRZggDXG4GyHAAIIIJA/gTVzl+06oSzzAVNwpks75i8ykRBAAIF4CbjUb/Lvye3bqc6GR+OVPdkigAACCCDw6gIMsF7diCsQQAABBIpc4PGD2/bOZPwiyY4TXyss8m6RHgII5FnATbot43b2jM76O/Mcm3AIIIAAAggUjQADrKJpBYkggAACCOQq0D2/ZT/L2O9lQfYJZvyOyxWU9QggUMQC5nJ/WoEtSrXX/7GIEyU1BBBAAAEE8iLAi/u8MBIEAQQQQKBYBNbP/dUO6fC5epO+baYpxZIXeSCAAAL5EnD5gJud5RWZy2be2bQxX3GJgwACCCCAQDELMMAq5u6QGwIIIIDAiAXWv27ZrtG26AsK7GS5OOh9xJIsRACBYhFweZ9JS+V2DudcFUtXyAMBBBBAYKwEGGCNlTT7IIAAAggURKCnpm0PSVfI9DrOxypIC9gUAQRyF3CX35txvX/3zsYVuYcjAgIIIIAAAvETYIAVv56RMQIIIIDAMAVW1C0pr87sMs8Dv1GyqmEu53IEEECgkALPhhY1bZ343B173X5yXyETYW8EEEAAAQQKKcAAq5D67I0AAgggMKYCPXU3TZD6T5Xb2ZJ2GdPN2QwBBBAYloBvk9k3LMr8Z1Vn0xPDWsrFCCCAAAIIlKAAA6wSbColIYAAAgi8ssCjc66aUlE+7vsyHe2cj8XtggACxSRg6jPX7Zm0Tp2xqqGrmFIjFwQQQAABBAopwACrkPrsjQACCCBQUIHuA6+ZaRUVN0k6qKCJsDkCCCAgyaSeTJj59+rli+82mYOCAAIIIIAAAv8rwACLuwEBBBBAINECvs8tld07PXdk4MF3Jcse+M4PAgggMKYCLj1lij5R1uc37npf03NjujmbIYAAAgggEBMBBlgxaRRpIoAAAgiMrsC6w1rGB/32OVPwUc7HGl1roiOAwP8IbHX5ZWaVzan2Y5/EBQEEEEAAAQReXoABFncHAggggAAC/yKwYXbLjunKcJmbDjepAhwEEEBgFATSkq/a4tFbZ3FA+yjwEhIBBBBAoBQFGGCVYlepCQEEEEAgJ4FmNQen1s2ZZ64fSDo4p2AsRgABBP5VwPVIYHZKlz3xh/ntpw2CgwACCCCAAAJDE2CANTQnrkIAAQQQSKDA2j0vGzd+ysR3RmbnSNozgQSUjAACeRPwJ8zsa2XPlf1w2gOLNuctLIEQQAABBBBIiAADrIQ0mjIRQAABBEYu4LNbKnrHhV9z6X0mTR55JFYigEDyBLzPZDekKzMfnXln08bk1U/FCCCAAAII5EeAAVZ+HImCAAIIIFDiAi639TVLd5GCFjdbUOLlUh4CCORDwP2+cpW/ZZfOzvWm5igfIYmBAAIIIIBAUgUYYCW189SNAAIIIDAigewgq7eu9S2Kgi/LOB9rRIgsQqDEBUx62KQvPNWXuf6A+5oGSrxcykMAAQQQQGBMBBhgjQkzmyCAAAIIlJpA9muFPePt44qCT5hpRqnVRz0IIDASAXvSIv+pRVvOn77qpC0jicAaBBBAAAEEEHhpAQZY3BkIIIAAAgjkIOCLW8Leh8PvSjpFUlkOoViKAALxFchI9uvy8eHbp/2JA9rj20YyRwABBBAoZgEGWMXcHXJDAAEEEIiFgMuD9TU37u9B5ltyvSUWSZMkAgjkS6DTTR94cOI9qxbe3pzOV1DiIIAAAggggMALBRhgcUcggAACCCCQR4GuuqWLA9lZcpuXx7CEQgCB4hP4e6To6w9NWv0TBlfF1xwyQgABBBAoPQEGWKXXUypCAAEEECiwwIq6JeUpn/ZZuX9SpqkFToftEUAgjwIm2+Tu12zZPP4Ts9Yc3Z/H0IRCAAEEEEAAgVcQYIDF7YEAAggggMAoCfTUXb1L5JVfDqTTRmkLwiKAwBgKuHTruHKduvNfG7rGcFu2QgABBBBAAAFJDLC4DRBAAAEEEBhFgWY1Bx+qm3dw5JkvSjpqFLciNAIIjJ5Ah3lw9v07Tf7NwtsXcs7V6DkTGQEEEEAAgZcVYIDFzYEAAggggMAYCXTVLD3JFHzBTLN4E2mM0NkGgdwEut2ib6XaV3/T1BzlForVCCCAAAIIIJCLAAOsXPRYiwACCCCAwDAFfHFL2PNweLZJ5zHEGiYelyMwhgIm/6/p9tQHrf20wTHclq0QQAABBBBA4GUEGGBxayCAAAIIIFAAgQ21LfsMKjjTZCczyCpAA9gSgZcUMJf8V1EUnDlj5QkrQUIAAQQQQACB4hFggFU8vSATBBBAAIGECbjcuua3Hh5Gdr4UvEFyfi8n7B6g3KISuNeD4CupvQZbbGlTpqgyIxkEEEAAAQQQ4BB37gEEEEAAAQSKQaB3Xut7PbRvym0Kg6xi6Ag5JEhgcyT/WnVHw1dM2U9g8YMAAggggAACxSjAO73F2BVyQgABBBBIpMC6w1qmhn3h6TKdJSlMJAJFIzCWAqYr0lHZmTM7F/WaxPBqLO3ZCwEEEEAAgWEKMMAaJhiXI4AAAgggMNoC6+pa5oRReI7MGyQLRns/4iOQMIHsd3Vvc8ucl2pv+mPCaqdcBBBAAAEEYivAACu2rSNxBBBAAIFSF+iqXXaEKfqWyQ7koPdS7zb1jZHAIy47P9Wx6nJTczRGe7INAggggAACCORBgAFWHhAJgQACCCCAwGgJeN2K8vW29kSPgstHaw/iIlD6AuaK/AtVz43/pq05ur/066VCBBBAAAEESk+AAVbp9ZSKEEAAAQRKUOCxmmtSZar4pMw/Lll5CZZISQiMkoDfJgUfTXXU3y/OuRolY8IigAACCCAw+gIMsEbfmB0QQAABBBDIm0D3/NYaRf4NU3A4B73njZVAJSxgrp9XdTYsKuESKQ0BBBBAAIFECDDASkSbKRIBBBBAoNQEemra3iTz66RgNyl7JjU/CCDwUgIuravuaNgdHQQQQAABBBCItwAveOPdP7JHAAEEEEiwwKNzrppSUTHuRLn+0yWeVpjge4HSX1EgykS+/8yVjQ/hhAACCCCAAALxFWCAFd/ekTkCCCCAAALbBXpqli6VBY1wIIDAywosSXU0fAgfBBBAAAEEEIivAAOs+PaOzBFAAAEEENDaBZeNq3x20jMyVcKBAAIvJ+B9/Rs3T9nrkZP7MEIAAQQQQACBeAowwIpn38gaAQQQQACB7QI9tcteK/m94iuE3BEIvJJAJPMDUu2N2ScR8oMAAggggAACMRRggBXDppEyAggggAAC/xTorW1tctl1iCCAwCsLmGtxVWdDK04IIIAAAgggEE8BBljx7BtZI4AAAgggsF2gu3bZT0z+fjgQQOCVBVz2o+qO+g/ihAACCCCAAALxFGCAFc++kTUCCCCAAALbBXpr23pcqoIDAQReRcDVlepsmIkTAggggAACCMRTgAFWPPtG1ggggAACCGjdvNZZYWAPQoEAAkMTSNvgPru3v+PhoV3NVQgggAACCCBQfcYZjAAAHG9JREFUTAIMsIqpG+SCAAIIIIDAMAR6a5ad5OaXD2MJlyKQcAF/T6qj8WcJR6B8BBBAAAEEYinAACuWbSNpBBBAAAEEsl8fbP1Pl30MCwQQGJqAmf6zqr3h40O7mqsQQAABBBBAoJgEGGAVUzfIBQEEEEAAgWEIdNe23WrSUcNYwqUIJFzAf5nqaDw64QiUjwACCCCAQCwFGGDFsm0kjQACCCCAgNRT1/aAXPtigQACQxa4P9XR8NohX82FCCCAAAIIIFA0AgywiqYVJIIAAggggMDQBbxuSXlPtMtmM1UOfRVXIpB0Ae/rsacmzW8/bTDpEtSPAAIIIIBA3AQYYMWtY+SLAAIIIICApO6Dl77OMsGfwEAAgeEJZMz/38z2xr8ObxVXI4AAAggggEChBRhgFboD7I8AAggggMAIBLpq2s4OTF8awVKWIJBogSjSWTNWNlyYaASKRwABBBBAIIYCDLBi2DRSRgABBBBAoKeu9Qa5LUICAQSGK+DLUh2NDcNdxfUIIIAAAgggUFgBBliF9Wd3BBBAAAEEhi3gcuupaXvAzGYNezELEEi4gLs/mOps2N9knnAKykcAAQQQQCBWAgywYtUukkUAAQQQQEBad1jL+KA/eMhk1XgggMAwBVxdmXGZfWfe2bRtmCu5HAEEEEAAAQQKKMAAq4D4bI0AAggggMBIBNYd0DI1rCx7QPJdRrKeNQgkXODJwcHKffe455inE+5A+QgggAACCMRKgAFWrNpFsggggAACCEiP1dyYKrP0A5J2xAMBBIYt8Fy5ad9p7Q29w17JAgQQQAABBBAomAADrILRszECCCCAAAIjE1g/t2WvqCy8X1LFyCKwCoFECwxYFOxXtfKERxKtQPEIIIAAAgjETIABVswaRroIIIAAAgh0z23Zz8rCv0ni9zi3AwLDFDApymTstTPurn9wmEu5HAEEEEAAAQQKKMAL3wLiszUCCCCAAAIjEeipXfpGKbhjJGtZgwACkofR66uXL/4zFggggAACCCAQHwEGWPHpFZkigAACCCCwXaC7Ztk7zPwaOBBAYGQCUcbfPuPuxpaRrWYVAggggAACCBRCgAFWIdTZEwEEEEAAgRwEumtbP2Oyr+cQgqUIJFogMv/UjPbGbyYageIRQAABBBCImQADrJg1jHQRQAABBBDoqmn7RmD6FBIIIDAyAZdfVN3R+NmRrWYVAggggAACCBRCgAFWIdTZEwEEEEAAgRwEempavyezD+cQgqUIJFrAZd+t7qj/WKIRKB4BBBBAAIGYCTDAilnDSBcBBBBAAIHe2rafunQyEgggMDIBd/9pdWfjKSNbzSoEEEAAAQQQKIQAA6xCqLMnAggggAACOQh017Zda9LbcwjBUgQSLeBm11S3178z0QgUjwACCCCAQMwEGGDFrGGkiwACCCCAQHdN241mOg4JBBAYmYC731jd2Xj8yFazCgEEEEAAAQQKIcAAqxDq7IkAAggggEAOAj21rb+S7N9yCMFSBBIu4L9OdTQelXAEykcAAQQQQCBWAgywYtUukkUAAQQQQEDqqW27WdK/Y4EAAiMTiKRfzOhoOGZkq1mFAAIIIIAAAoUQYIBVCHX2RAABBBBAIAeBnrq2pXI15hCCpQgkW8C1NNXZ0JRsBKpHAAEEEEAgXgIMsOLVL7JFAAEEEEBAPTVtV8j0HigQQGCEAm6Xpzrr3zfC1SxDAAEEEEAAgQIIMMAqADpbIoAAAgggkItAV23bkkD6YC4xWItAogXcf5DqbPxwog0oHgEEEEAAgZgJMMCKWcNIFwEEEEAAgZ7aZd+S/BNIIIDASAXsklRH/SdHupp1CCCAAAIIIDD2Agywxt6cHRFAAAEEEMhJoLu27TyTmnMKwmIEEiwQmc6Z0d7w5QQTUDoCCCCAAAKxE2CAFbuWkTACCCCAQNIFumtaTjELf5x0B+pHYKQCZva+qvb6y0e6nnUIIIAAAgggMPYCDLDG3pwdEUAAAQQQyEmgp7b1KMluzSkIixFIsEDk0ZEzOhf/LsEElI4AAggggEDsBBhgxa5lJIwAAgggkHSBdXUtc0IPVyXdgfoRGJmAuXlwYFXn8feNbD2rEEAAAQQQQKAQAgywCqHOnggggAACCOQg8PjBbXtnMnpAUlkOYViKQCIFTBoMQu2/2/KGvycSgKIRQAABBBCIqQADrJg2jrQRQAABBJIr0H3wDTMtk8kOsMYnV4HKERixwNYorf1mrGroGnEEFiKAAAIIIIDAmAswwBpzcjZEAAEEEEAgN4HempZpbmUPSD4lt0isRiB5Ai49bVaxb6r92CeTVz0VI4AAAgggEF8BBljx7R2ZI4AAAggkVOD+/X4ycdIOOz0o2fSEElA2ArkI9AbpHWdNX3XUllyCsBYBBBBAAAEExlaAAdbYerMbAggggAACOQv4gtvKejdtfEjSnjkHIwACSRMwra3aOzPLljZlklY69SKAAAIIIBBnAQZYce4euSOAAAIIJFagu7btDya9IbEAFI7ACAVM/ruqjsYjR7icZQgggAACCCBQIAEGWAWCZ1sEEEAAAQRyEeitabvUTf+RSwzWIpBEAZd/o7qj8TNJrJ2aEUAAAQQQiLMAA6w4d4/cEUAAAQQSK9BV09YYmJYmFoDCERihQKTo2Bkdi28e4XKWIYAAAggggECBBBhgFQiebRFAAAEEEMhFYN1hLVPD/jD7FDV+l+cCydqECXhUPr588rQ/LdqcsMIpFwEEEEAAgdgL8KI39i2kAAQQQACBpAr01Lb1SKpKav3UjcBwBVxaV93RsPtw13E9AggggAACCBRegAFW4XtABggggAACCIxIoKem7Y8yvX5Ei1mEQDIFfp/qaFiQzNKpGgEEEEAAgXgLMMCKd//IHgEEEEAgwQI9ta1XSvbuBBNQOgLDEnD5f1V3NJ48rEVcjAACCCCAAAJFIcAAqyjaQBIIIIAAAggMX6C7bumnzYOLhr+SFQgkU8A9+nh15+L/TGb1VI0AAggggEC8BRhgxbt/ZI8AAgggkGCB7nltr7dAf0wwAaUjMCyBtPvBu3c2rhjWIi5GAAEEEEAAgaIQYIBVFG0gCQQQQAABBIYvsHp2S8WUccFzkpUPfzUrEEicwNaq12Qm2dKmTOIqp2AEEEAAAQRKQIABVgk0kRIQQAABBJIr0FPb+ivJ/i25AlSOwNAEXH5DdUfjCUO7mqsQQAABBBBAoNgEGGAVW0fIBwEEEEAAgWEI9NS2nS7pkmEs4VIEkipwWqqj4YdJLZ66EUAAAQQQiLsAA6y4d5D8EUAAAQQSLbBubuuhYZndKYnf6Ym+Eyj+VQTcTfOr2xs6kEIAAQQQQACBeArwYjeefSNrBBBAAAEEtgv01rRMcwt7JYWQIIDASwuYlO6Lgml7rTzhGYwQQAABBBBAIJ4CDLDi2TeyRgABBBBA4H8Eempa75LZwZAggMBLC7j776o7G4/EBwEEEEAAAQTiK8AAK769I3MEEEAAAQS2C/TUtDbIrBUOBBB4aYHIoyNndC7+HT4IIIAAAgggEF8BBljx7R2ZI4AAAgggsF3AF7eEvQ+HT0uaCAkCCLxIwH3jDzvvndas5ggbBBBAAAEEEIivAAOs+PaOzBFAAAEEEPgfgd7atjtd+n+QIIDA/xG4I9XRcDguCCCAAAIIIBBvAQZY8e4f2SOAAAIIILBdoLt2abMpOA8OBBB4sYB9MtVRfwkuCCCAAAIIIBBvAQZY8e4f2SOAAAIIILBd4JG6K6sqfEIPHAgg8C8C7lH/TuHOe93O0we5LxBAAAEEEIi7AAOsuHeQ/BFAAAEEEPiHQE9t639LthAQBBB4XsDdb6zubDweDwQQQAABBBCIvwADrPj3kAoQQAABBBDYLtBT0/ohmX0fDgQQ+IdAoJNSKxquxAMBBBBAAAEE4i/AACv+PaQCBBBAAAEEtgusq23ZJ1T4oCR+v3NPICBlyr1s92mdi/hqLXcDAggggAACJSDAC9wSaCIlIIAAAgggkBVwufXULrvRpGMRQSDpAi5dVt3R8P6kO1A/AggggAACpSLAAKtUOkkdCCCAAAIIbP8UVuvcMtkKl8oBQSCxAqa+jGfmzOxoWpNYAwpHAAEEEECgxAQYYJVYQykHAQQQQCDZAusOaxkf9of3Sto72RJUn3CBv23Z1F0za83H+xPuQPkIIIAAAgiUjAADrJJpJYUggAACCCDwvEBXbdsFgXQWHggkVSCSzpjR0fCtpNZP3QgggAACCJSiAAOsUuwqNSGAAAIIJFrg/v1unDhph3T2q1O7JhqC4pMq8MiWTeP3n7XmaD59ldQ7gLoRQAABBEpSgAFWSbaVohBAAAEEki7QU9v6Lck+kXQH6k+egJm+VNXecG7yKqdiBBBAAAEESluAAVZp95fqEEAAAQQSKpA9zD2UrZTE7/qE3gPJLNuj/mjwNXutPPGRZNZP1QgggAACCJSuAC9qS7e3VIYAAgggkGwB665tvdZkTclmoPokCbj8u9UdjR9LUs3UigACCCCAQFIEGGAlpdPUiQACCCCQOIGug1vmBZnwLknliSuegpMo0J+JfM7MlY0PJbF4akYAAQQQQKDUBRhglXqHqQ8BBBBAILECLYtbwjesCf8s0yGJRaDwJAn8oqqj/liTeZKKplYEEEAAAQSSIsAAKymdpk4EEEAAgUQKrJ97xa6ZcIfHzFSZSACKToiAbwrSW1PTV520JSEFUyYCCCCAAAKJE2CAlbiWUzACCCCAQNIEemraWmRanLS6qTdBAq4fpzobTk1QxZSKAAIIIIBA4gQYYCWu5RSMAAIIIJA0ge75N9Yok76TT2ElrfOJqXfzYKh5eyxv+HtiKqZQBBBAAAEEEijAACuBTadkBBBAAIHkCXTXtl5ksk8nr3IqLnUBc326qrPh4lKvk/oQQAABBBBIugADrKTfAdSPAAIIIJAIga65bTOCMn9EsjARBVNkQgR8S1QW7DHjrvqnElIwZSKAAAIIIJBYAQZYiW09hSOAAAIIJE2gp3bZqZL/QFKQtNqpt/QETErLdHxVe8MvSq86KkIAAQQQQACBFwswwOKeQAABBBBAICECK+qWlKd855WSzU5IyZRZygKuu6r2ybzOljZlSrlMakMAAQQQQACB5wUYYHEnIIAAAgggkCCBnpq2N8nsdsl5DZCgvpdaqSYfVKiaquWNq0utNupBAAEEEEAAgZcW4MUrdwYCCCCAAAIJE+ita/2+u30oYWVTbkkJ+AWpjsazS6okikEAAQQQQACBVxRggMUNggACCCCAQMIEHqu5JlUWVNwj19SElU65JSHgj42zaO7U9qZnS6IcikAAAQQQQACBIQkwwBoSExchgAACCCBQWgK9ddctdA9/KxkHupdWa0u6GpMGM2HmkBnLm1aWdKEUhwACCCCAAAL/R4ABFjcFAggggAACCRRYPbulYvK4sNWkYxNYPiXHVSDSD6tmZT7Cwe1xbSB5I4AAAgggMHIBBlgjt2MlAggggAACsRZYP/eKHbxswkqX7RPrQkg+KQIdf3xN5pAmnjqYlH5TJwIIIIAAAi8QYIDFDYEAAggggECCBbprW4811w0yvkqY4NsgDqWn5WWHpToXrYhDsuSIAAIIIIAAAvkXYICVf1MiIoAAAgggEBsBl1tPbeu5pqA5NkmTaOIEIvePzOhs/H7iCqdgBBBAAAEEEPgfAQZY3AwIIIAAAggkXGDtvOsnVwbRHyQdmHAKyi9CATf9JqrILJp5Z9O2IkyPlBBAAAEEEEBgjAQYYI0RNNsggAACCCBQzALrDmsZX9YfrnEpVcx5kluyBNz0YKq9fn+TebIqp1oEEEAAAQQQeLEAAyzuCQQQQAABBBDYLtBVs/TNgQW/kcTrA+6Jggu4fCDIqLbq7sbVBU+GBBBAAAEEEECg4AK8QC14C0gAAQQQQACB4hHorl36WVPwteLJiEySKhCZvW9Ge/3lSa2fuhFAAAEEEEDghQIMsLgjEEAAAQQQQOD/t3d/sVXXZxzHP8/vnHK6ARbQyGkBxzrMlvG3f9ji4gWLmmzEymjhZBdqvPHCxP2LiUuWXXTJsuh2Y5zZhTeQZbDSApFs02zLJkTnFCmwMdkcBERsa91U6KjQP7/fszQxi1GWYHv+/M739+4VF/09z/N5Pb+L5kl7+J+AdxxpGPKzfZGirfwmFi9GTQTcE0V6onmw59v86WBNNkBTBBBAAAEEUinAASuVa2EoBBBAAAEEaidwatXThflN44PyaHXtpqBzVgXM/WBxVXK7DZTirBqQGwEEEEAAAQQ+KsABi7cCAQQQQAABBD4i8GrH7hsW+Lw/mmwtPAhUUeBQ/kp8540nS5eq2JNWCCCAAAIIIFAHAhyw6mBJjIgAAggggEAtBEbb966LzX4n19Ja9KdnxgRM/5zMxV9Zebh0NmPJiYsAAggggAAC1yDAAesakPgWBBBAAAEEsiow2rZ/fWL+vEsLsmpA7soLuPRufkqdS0/0nKl8NzoggAACCCCAQD0KcMCqx60xMwIIIIAAAtUTsNH2vWtjtz/JOGJVjz07nUz612XXxtZjPeeyk5qkCCCAAAIIIPBxBThgfVwxvh8BBBBAAIEMCgx1DmyxxHZJNj+D8YlcOYG3LRf3NL9cOlS5FlRGAAEEEEAAgRAEOGCFsEUyIIAAAgggUAWB4faBbsn6JGuoQjtahC9wyUx3NQ/2PBt+VBIigAACCCCAwFwFOGDNVZDnEUAAAQQQyIiASza6bt8Xk7wOSipkJDYxKyNwKVbctuJo6XRlylMVAQQQQAABBEIT4IAV2kbJgwACCCCAQAUFZo5YIx0Dd8ijPZIWVbAVpQMVMGlYUby1+UjpcKARiYUAAggggAACFRDggFUBVEoigAACCCAQusBQ277bJfWbaXHoWclXVoHzsfn2FYPbXiprVYohgAACCCCAQPACHLCCXzEBEUAAAQQQqIzA0Lr+zyoXvWBmSyrTgaohCbg0nJ/Mty/925bRkHKRBQEEEEAAAQSqI8ABqzrOdEEAAQQQQCBIgfPr+5dFudxvTFofZEBClUfA/GCSi7YtP9z9dnkKUgUBBBBAAAEEsibAAStrGycvAggggAACZRZ4a2N/MY6jJ13WVebSlAtBwPTzRsXfXDJYuhhCHDIggAACCCCAQG0EOGDVxp2uCCCAAAIIBCVwdtOOxsLYgt2m6E6XGoIKR5hZCbg0EZmeLLbG37GBUjyrIjyEAAIIIIAAAgi8L8ABi1cBAQQQQAABBMoi4HIbadt/t+Q7ZRaVpShF6lPANWFKtjYf2/5MfQZgagQQQAABBBBImwAHrLRthHkQQAABBBCoc4GhDQNfssh+KdlNdR6F8WcjYHolieO7lx8vHZ/N4zyDAAIIIIAAAghcTYADFu8FAggggAACCJRd4Pwt/UtyE/ldJr/DpVzZG1AwdQImTbknTylqvK9lsOu91A3IQAgggAACCCBQ1wIcsOp6fQyPAAIIIIBAugVG2vY9JLNHXJ5P96RMN0eB6STR/cuP9+ycYx0eRwABBBBAAAEErirAAYsXAwEEEEAAAQQqKjDUubfNEtsvaWVFG1G8NgLuf1Gkr7cMbvtHbQagKwIIIIAAAghkQYADVha2TEYEEEAAAQRqLOBffbow/Nbln5j7/ZI11ngc2pdH4D9yPda85USv9fYm5SlJFQQQQAABBBBA4OoCHLB4MxBAAAEEEECgagKvb+jbmI8a9kpaIYmfQ6omX9ZGibufVi65a9mR0qtlrUwxBBBAAAEEEEDg/wjwgyOvBgIIIIAAAghUVWC441efNE0+4PJH5cYHvFdVf87NJiR9a3zsEztvPr155t98IYAAAggggAACVRHggFUVZpoggAACCCCAwIcFhtv2dkr2sEw9kiKEUi0Qy/0XivQIn3WV6j0xHAIIIIAAAsEKcMAKdrUEQwABBBBAIP0CLrfRzv1difuP5LY6/RNnbkKXdCz25Psrjm1/JnPpCYwAAggggAACqRHggJWaVTAIAggggAAC2RVw9UbDG9Y8YJE9kV2FNCZPepqPvvKUiQ9pT+N2mAkBBBBAAIEsCXDAytK2yYoAAggggEDKBV7r2NdccN3j8u9J1pTycYMcz1yjifkPF1qh77rBrn8HGZJQCCCAAAIIIFB3Ahyw6m5lDIwAAggggED4AqNrDiyN5019V7J7JV0ffuIUJHS9YdIOj+Y93sLhKgULYQQEEEAAAQQQ+KAAByzeBwQQQAABBBBIrcDMnxa+2ba2180elHxxaget38HcXe9Gpp8Wj3b/wGQzn3nFFwIIIIAAAgggkDoBDlipWwkDIYAAAggggMCHBS6s/fXi8cYrt1qsxyRrRWjuAi6dMkseLOTnv3j9S5vH5l6RCggggAACCCCAQOUEOGBVzpbKCCCAAAIIIFBmgbObdjQWxhZslqJuyb8m2fwytwi7nPslmR0wT3YVm274vR388nTYgUmHAAIIIIAAAqEIcMAKZZPkQAABBBBAIGMC73T0N13x3MMuL5lspaR8xgiuNe6kpDNyDUTx+KPFv947fq0P8n0IIIAAAggggEBaBDhgpWUTzIEAAggggAACsxI4terxQtPi4uKpOHpI0jdMVphVofAees/lP4s8+XExar1gg51T4UUkEQIIIIAAAghkRYADVlY2TU4EEEAAAQQyIPDmut/On8yPtTco1yV5t0ufyUDsD0T0kzLbH8fJHxqSyy/z21bZ2j5pEUAAAQQQCFmAA1bI2yUbAggggAACGRZwuY207/mclNvqim4z+eclKwZFYnpD7ic98T9blNvTcrT770HlIwwCCCCAAAIIIPC+AAcsXgUEEEAAAQQQyIzA2Y39xcJ0dJ8U3SPzmf/NsEFSrh4ATDadKJmW67zMdlujdrS80HOuHmZnRgQQQAABBBBAYK4CHLDmKsjzCCCAAAIIIFB3Aq7eaKSjY0mkuDnx6RaX3WKyL0h+q6SF6Qjk45IdS1zPmfRinLMzUaSRZYe3vmMyT8eMTIEAAggggAACCFRHgANWdZzpggACCCCAAAJ1IPDspt786gtrPj0h3ZyLfIUU3WTSzIGrRa4bJV8kqUnmTZJFs4rknkh2waSLifyimY2aNOzyYclel3LncuanD7VOvVYaKMWz6sFDCCCAAAIIIIBAYAIcsAJbKHEQQAABBBBAoPIC3uvR+QN9xbw1NieWXOduhbzFC91z8zzyxpkJzHXZlExNuY01eHLFp3VpclFu+FO3nRi13t6k8lPSAQEEEEAAAQQQCEeAA1Y4uyQJAggggAACCCCAAAIIIIAAAgggEKQAB6wg10ooBBBAAAEEEEAAAQQQQAABBBBAIBwBDljh7JIkCCCAAAIIIIAAAggggAACCCCAQJACHLCCXCuhEEAAAQQQQAABBBBAAAEEEEAAgXAEOGCFs0uSIIAAAggggAACCCCAAAIIIIAAAkEKcMAKcq2EQgABBBBAAAEEEEAAAQQQQAABBMIR4IAVzi5JggACCCCAAAIIIIAAAggggAACCAQpwAEryLUSCgEEEEAAAQQQQAABBBBAAAEEEAhHgANWOLskCQIIIIAAAggggAACCCCAAAIIIBCkAAesINdKKAQQQAABBBBAAAEEEEAAAQQQQCAcAQ5Y4eySJAgggAACCCCAAAIIIIAAAggggECQAhywglwroRBAAAEEEEAAAQQQQAABBBBAAIFwBP4LDahaUNYkNHsAAAAASUVORK5CYII=;" parent="jZVaUwOg5UY3L9NAnvdq-71" vertex="1">
          <mxGeometry x="180" y="174.25" width="19.25" height="19.25" as="geometry" />
        </mxCell>
        <mxCell id="-JkOilVpYJbZjcMI7v-V-89" style="edgeStyle=orthogonalEdgeStyle;rounded=0;orthogonalLoop=1;jettySize=auto;html=1;" parent="jZVaUwOg5UY3L9NAnvdq-71" source="-JkOilVpYJbZjcMI7v-V-24" target="-JkOilVpYJbZjcMI7v-V-23" edge="1">
          <mxGeometry relative="1" as="geometry" />
        </mxCell>
        <mxCell id="-JkOilVpYJbZjcMI7v-V-61" value="" style="sketch=0;points=[[0,0,0],[0.25,0,0],[0.5,0,0],[0.75,0,0],[1,0,0],[0,1,0],[0.25,1,0],[0.5,1,0],[0.75,1,0],[1,1,0],[0,0.25,0],[0,0.5,0],[0,0.75,0],[1,0.25,0],[1,0.5,0],[1,0.75,0]];outlineConnect=0;fontColor=#232F3E;fillColor=#E7157B;strokeColor=#ffffff;dashed=0;verticalLabelPosition=bottom;verticalAlign=top;align=center;html=1;fontSize=12;fontStyle=0;aspect=fixed;shape=mxgraph.aws4.resourceIcon;resIcon=mxgraph.aws4.appsync;" parent="jZVaUwOg5UY3L9NAnvdq-71" vertex="1">
          <mxGeometry x="220.63" y="174.25" width="47.5" height="47.5" as="geometry" />
        </mxCell>
        <mxCell id="-JkOilVpYJbZjcMI7v-V-119" style="edgeStyle=orthogonalEdgeStyle;rounded=0;orthogonalLoop=1;jettySize=auto;html=1;" parent="jZVaUwOg5UY3L9NAnvdq-71" source="-JkOilVpYJbZjcMI7v-V-72" target="-JkOilVpYJbZjcMI7v-V-117" edge="1">
          <mxGeometry relative="1" as="geometry" />
        </mxCell>
        <mxCell id="-JkOilVpYJbZjcMI7v-V-120" value="ML Deployment" style="edgeLabel;html=1;align=center;verticalAlign=middle;resizable=0;points=[];" parent="-JkOilVpYJbZjcMI7v-V-119" vertex="1" connectable="0">
          <mxGeometry x="-0.1484" y="-2" relative="1" as="geometry">
            <mxPoint as="offset" />
          </mxGeometry>
        </mxCell>
        <mxCell id="-JkOilVpYJbZjcMI7v-V-72" value="&lt;font style=&quot;font-size: 12px;&quot;&gt;AppSync&lt;/font&gt;" style="text;strokeColor=none;align=center;fillColor=none;html=1;verticalAlign=middle;whiteSpace=wrap;rounded=0;" parent="jZVaUwOg5UY3L9NAnvdq-71" vertex="1">
          <mxGeometry x="220" y="226" width="48.13" height="17.5" as="geometry" />
        </mxCell>
        <mxCell id="-JkOilVpYJbZjcMI7v-V-82" value="" style="group" parent="jZVaUwOg5UY3L9NAnvdq-71" vertex="1" connectable="0">
          <mxGeometry x="107.66" y="296" width="81.87" height="80" as="geometry" />
        </mxCell>
        <mxCell id="-JkOilVpYJbZjcMI7v-V-80" value="" style="sketch=0;points=[[0,0,0],[0.25,0,0],[0.5,0,0],[0.75,0,0],[1,0,0],[0,1,0],[0.25,1,0],[0.5,1,0],[0.75,1,0],[1,1,0],[0,0.25,0],[0,0.5,0],[0,0.75,0],[1,0.25,0],[1,0.5,0],[1,0.75,0]];outlineConnect=0;fontColor=#232F3E;fillColor=#7AA116;strokeColor=#ffffff;dashed=0;verticalLabelPosition=bottom;verticalAlign=top;align=center;html=1;fontSize=12;fontStyle=0;aspect=fixed;shape=mxgraph.aws4.resourceIcon;resIcon=mxgraph.aws4.s3;" parent="-JkOilVpYJbZjcMI7v-V-82" vertex="1">
          <mxGeometry x="17.189999999999998" width="47.5" height="47.5" as="geometry" />
        </mxCell>
        <mxCell id="-JkOilVpYJbZjcMI7v-V-81" value="Web Static Assets" style="text;strokeColor=none;align=center;fillColor=none;html=1;verticalAlign=middle;whiteSpace=wrap;rounded=0;" parent="-JkOilVpYJbZjcMI7v-V-82" vertex="1">
          <mxGeometry y="62.5" width="81.87" height="17.5" as="geometry" />
        </mxCell>
        <mxCell id="-JkOilVpYJbZjcMI7v-V-83" value="" style="group" parent="jZVaUwOg5UY3L9NAnvdq-71" vertex="1" connectable="0">
          <mxGeometry x="30.75" y="296" width="49.25" height="80" as="geometry" />
        </mxCell>
        <mxCell id="-JkOilVpYJbZjcMI7v-V-78" value="" style="sketch=0;points=[[0,0,0],[0.25,0,0],[0.5,0,0],[0.75,0,0],[1,0,0],[0,1,0],[0.25,1,0],[0.5,1,0],[0.75,1,0],[1,1,0],[0,0.25,0],[0,0.5,0],[0,0.75,0],[1,0.25,0],[1,0.5,0],[1,0.75,0]];outlineConnect=0;fontColor=#232F3E;fillColor=#8C4FFF;strokeColor=#ffffff;dashed=0;verticalLabelPosition=bottom;verticalAlign=top;align=center;html=1;fontSize=12;fontStyle=0;aspect=fixed;shape=mxgraph.aws4.resourceIcon;resIcon=mxgraph.aws4.cloudfront;" parent="-JkOilVpYJbZjcMI7v-V-83" vertex="1">
          <mxGeometry width="49.25" height="49.25" as="geometry" />
        </mxCell>
        <mxCell id="-JkOilVpYJbZjcMI7v-V-79" value="&lt;font style=&quot;font-size: 12px;&quot;&gt;CloudFront&lt;/font&gt;" style="text;strokeColor=none;align=center;fillColor=none;html=1;verticalAlign=middle;whiteSpace=wrap;rounded=0;" parent="-JkOilVpYJbZjcMI7v-V-83" vertex="1">
          <mxGeometry x="0.5600000000000023" y="62.5" width="48.13" height="17.5" as="geometry" />
        </mxCell>
        <mxCell id="-JkOilVpYJbZjcMI7v-V-87" style="edgeStyle=orthogonalEdgeStyle;rounded=0;orthogonalLoop=1;jettySize=auto;html=1;" parent="jZVaUwOg5UY3L9NAnvdq-71" source="-JkOilVpYJbZjcMI7v-V-78" target="-JkOilVpYJbZjcMI7v-V-80" edge="1">
          <mxGeometry relative="1" as="geometry" />
        </mxCell>
        <mxCell id="jZVaUwOg5UY3L9NAnvdq-109" style="edgeStyle=elbowEdgeStyle;rounded=0;orthogonalLoop=1;jettySize=auto;html=1;endArrow=open;endFill=0;strokeColor=#545B64;strokeWidth=2;fontSize=14;entryX=0;entryY=0.5;entryDx=0;entryDy=0;entryPerimeter=0;exitX=1.046;exitY=0.55;exitDx=0;exitDy=0;exitPerimeter=0;" parent="jZVaUwOg5UY3L9NAnvdq-71" source="-JkOilVpYJbZjcMI7v-V-75" target="-JkOilVpYJbZjcMI7v-V-55" edge="1">
          <mxGeometry relative="1" as="geometry">
            <mxPoint x="-86.33000000000015" y="198" as="sourcePoint" />
            <Array as="points" />
            <mxPoint x="39.039999999999964" y="198.096" as="targetPoint" />
          </mxGeometry>
        </mxCell>
        <mxCell id="jZVaUwOg5UY3L9NAnvdq-176" value="" style="group" parent="jZVaUwOg5UY3L9NAnvdq-71" vertex="1" connectable="0">
          <mxGeometry x="-46.99999999999994" y="185" width="21" height="26" as="geometry" />
        </mxCell>
        <mxCell id="jZVaUwOg5UY3L9NAnvdq-177" value="" style="rounded=0;whiteSpace=wrap;html=1;labelBackgroundColor=#ffffff;fontSize=14;align=center;strokeColor=none;" parent="jZVaUwOg5UY3L9NAnvdq-176" vertex="1">
          <mxGeometry width="21" height="26" as="geometry" />
        </mxCell>
        <mxCell id="jZVaUwOg5UY3L9NAnvdq-178" value="" style="outlineConnect=0;fontColor=#232F3E;gradientColor=none;fillColor=#B3B3B3;strokeColor=none;dashed=0;verticalLabelPosition=bottom;verticalAlign=top;align=center;html=1;fontSize=12;fontStyle=0;aspect=fixed;pointerEvents=1;shape=mxgraph.aws4.encrypted_data;labelBackgroundColor=#ffffff;" parent="jZVaUwOg5UY3L9NAnvdq-176" vertex="1">
          <mxGeometry width="21" height="26" as="geometry" />
        </mxCell>
        <mxCell id="-JkOilVpYJbZjcMI7v-V-84" value="" style="group" parent="jZVaUwOg5UY3L9NAnvdq-71" vertex="1" connectable="0">
          <mxGeometry x="-140" y="174.5" width="90" height="77" as="geometry" />
        </mxCell>
        <mxCell id="-JkOilVpYJbZjcMI7v-V-75" value="" style="sketch=0;aspect=fixed;pointerEvents=1;shadow=0;dashed=0;html=1;strokeColor=none;labelPosition=center;verticalLabelPosition=bottom;verticalAlign=top;align=center;shape=mxgraph.mscae.enterprise.website_generic;fillColor=#7D7D7D;" parent="-JkOilVpYJbZjcMI7v-V-84" vertex="1">
          <mxGeometry x="20" width="50" height="44" as="geometry" />
        </mxCell>
        <mxCell id="-JkOilVpYJbZjcMI7v-V-77" value="Website" style="text;strokeColor=none;align=center;fillColor=none;html=1;verticalAlign=middle;whiteSpace=wrap;rounded=0;" parent="-JkOilVpYJbZjcMI7v-V-84" vertex="1">
          <mxGeometry y="47" width="90" height="30" as="geometry" />
        </mxCell>
        <mxCell id="-JkOilVpYJbZjcMI7v-V-90" value="" style="edgeStyle=orthogonalEdgeStyle;rounded=0;orthogonalLoop=1;jettySize=auto;html=1;endArrow=none;endFill=0;" parent="jZVaUwOg5UY3L9NAnvdq-71" source="-JkOilVpYJbZjcMI7v-V-61" target="-JkOilVpYJbZjcMI7v-V-24" edge="1">
          <mxGeometry relative="1" as="geometry">
            <mxPoint x="568" y="345.5" as="sourcePoint" />
            <mxPoint x="740" y="316.5" as="targetPoint" />
          </mxGeometry>
        </mxCell>
        <mxCell id="-JkOilVpYJbZjcMI7v-V-24" value="Query" style="text;strokeColor=none;align=center;fillColor=none;html=1;verticalAlign=middle;whiteSpace=wrap;rounded=0;" parent="jZVaUwOg5UY3L9NAnvdq-71" vertex="1">
          <mxGeometry x="329.56" y="182.99" width="60" height="30" as="geometry" />
        </mxCell>
        <mxCell id="-JkOilVpYJbZjcMI7v-V-112" style="edgeStyle=orthogonalEdgeStyle;rounded=0;orthogonalLoop=1;jettySize=auto;html=1;entryX=0.5;entryY=1;entryDx=0;entryDy=0;entryPerimeter=0;" parent="jZVaUwOg5UY3L9NAnvdq-71" source="-JkOilVpYJbZjcMI7v-V-109" target="-JkOilVpYJbZjcMI7v-V-98" edge="1">
          <mxGeometry relative="1" as="geometry" />
        </mxCell>
        <mxCell id="-JkOilVpYJbZjcMI7v-V-113" value="Data Transformation and Preparation" style="edgeLabel;html=1;align=center;verticalAlign=middle;resizable=0;points=[];" parent="-JkOilVpYJbZjcMI7v-V-112" vertex="1" connectable="0">
          <mxGeometry x="0.2306" y="-2" relative="1" as="geometry">
            <mxPoint x="-2" y="2" as="offset" />
          </mxGeometry>
        </mxCell>
        <mxCell id="GnkWkmZTFyKenyAE_Ewf-13" style="edgeStyle=orthogonalEdgeStyle;rounded=0;orthogonalLoop=1;jettySize=auto;html=1;entryX=0;entryY=0.5;entryDx=0;entryDy=0;entryPerimeter=0;" edge="1" parent="jZVaUwOg5UY3L9NAnvdq-71" source="-JkOilVpYJbZjcMI7v-V-117" target="GnkWkmZTFyKenyAE_Ewf-12">
          <mxGeometry relative="1" as="geometry" />
        </mxCell>
        <mxCell id="-JkOilVpYJbZjcMI7v-V-117" value="" style="sketch=0;points=[[0,0,0],[0.25,0,0],[0.5,0,0],[0.75,0,0],[1,0,0],[0,1,0],[0.25,1,0],[0.5,1,0],[0.75,1,0],[1,1,0],[0,0.25,0],[0,0.5,0],[0,0.75,0],[1,0.25,0],[1,0.5,0],[1,0.75,0]];outlineConnect=0;fontColor=#232F3E;fillColor=#01A88D;strokeColor=#ffffff;dashed=0;verticalLabelPosition=bottom;verticalAlign=top;align=center;html=1;fontSize=12;fontStyle=0;aspect=fixed;shape=mxgraph.aws4.resourceIcon;resIcon=mxgraph.aws4.sagemaker;" parent="jZVaUwOg5UY3L9NAnvdq-71" vertex="1">
          <mxGeometry x="220.63" y="389.5" width="47.5" height="47.5" as="geometry" />
        </mxCell>
        <mxCell id="-JkOilVpYJbZjcMI7v-V-118" value="&lt;font style=&quot;font-size: 12px;&quot;&gt;Trained Machine Learning Model&lt;/font&gt;" style="text;strokeColor=none;align=center;fillColor=none;html=1;verticalAlign=middle;whiteSpace=wrap;rounded=0;" parent="jZVaUwOg5UY3L9NAnvdq-71" vertex="1">
          <mxGeometry x="189.53" y="453.37" width="109.69" height="17.5" as="geometry" />
        </mxCell>
        <mxCell id="-JkOilVpYJbZjcMI7v-V-121" style="edgeStyle=orthogonalEdgeStyle;rounded=0;orthogonalLoop=1;jettySize=auto;html=1;entryX=0;entryY=0.75;entryDx=0;entryDy=0;entryPerimeter=0;" parent="jZVaUwOg5UY3L9NAnvdq-71" source="-JkOilVpYJbZjcMI7v-V-77" target="-JkOilVpYJbZjcMI7v-V-78" edge="1">
          <mxGeometry relative="1" as="geometry">
            <Array as="points">
              <mxPoint x="-95" y="332" />
              <mxPoint x="-10" y="332" />
            </Array>
          </mxGeometry>
        </mxCell>
        <mxCell id="-JkOilVpYJbZjcMI7v-V-122" value="HTTP/s Requests" style="edgeLabel;html=1;align=center;verticalAlign=middle;resizable=0;points=[];" parent="-JkOilVpYJbZjcMI7v-V-121" vertex="1" connectable="0">
          <mxGeometry x="0.1354" y="2" relative="1" as="geometry">
            <mxPoint as="offset" />
          </mxGeometry>
        </mxCell>
        <mxCell id="-JkOilVpYJbZjcMI7v-V-23" value="" style="sketch=0;points=[[0,0,0],[0.25,0,0],[0.5,0,0],[0.75,0,0],[1,0,0],[0,1,0],[0.25,1,0],[0.5,1,0],[0.75,1,0],[1,1,0],[0,0.25,0],[0,0.5,0],[0,0.75,0],[1,0.25,0],[1,0.5,0],[1,0.75,0]];outlineConnect=0;fontColor=#232F3E;fillColor=#ED7100;strokeColor=#ffffff;dashed=0;verticalLabelPosition=bottom;verticalAlign=top;align=center;html=1;fontSize=12;fontStyle=0;aspect=fixed;shape=mxgraph.aws4.resourceIcon;resIcon=mxgraph.aws4.lambda;" parent="jZVaUwOg5UY3L9NAnvdq-71" vertex="1">
          <mxGeometry x="484.93" y="173.37" width="49.25" height="49.25" as="geometry" />
        </mxCell>
        <mxCell id="-JkOilVpYJbZjcMI7v-V-98" value="" style="sketch=0;points=[[0,0,0],[0.25,0,0],[0.5,0,0],[0.75,0,0],[1,0,0],[0,1,0],[0.25,1,0],[0.5,1,0],[0.75,1,0],[1,1,0],[0,0.25,0],[0,0.5,0],[0,0.75,0],[1,0.25,0],[1,0.5,0],[1,0.75,0]];outlineConnect=0;fontColor=#232F3E;fillColor=#ED7100;strokeColor=#ffffff;dashed=0;verticalLabelPosition=bottom;verticalAlign=top;align=center;html=1;fontSize=12;fontStyle=0;aspect=fixed;shape=mxgraph.aws4.resourceIcon;resIcon=mxgraph.aws4.lambda;" parent="jZVaUwOg5UY3L9NAnvdq-71" vertex="1">
          <mxGeometry x="484.93000000000023" y="272.5" width="49.25" height="49.25" as="geometry" />
        </mxCell>
        <mxCell id="GnkWkmZTFyKenyAE_Ewf-2" value="" style="group" vertex="1" connectable="0" parent="jZVaUwOg5UY3L9NAnvdq-71">
          <mxGeometry x="649.56" y="412.5" width="81.87" height="80" as="geometry" />
        </mxCell>
        <mxCell id="GnkWkmZTFyKenyAE_Ewf-3" value="" style="sketch=0;points=[[0,0,0],[0.25,0,0],[0.5,0,0],[0.75,0,0],[1,0,0],[0,1,0],[0.25,1,0],[0.5,1,0],[0.75,1,0],[1,1,0],[0,0.25,0],[0,0.5,0],[0,0.75,0],[1,0.25,0],[1,0.5,0],[1,0.75,0]];outlineConnect=0;fontColor=#232F3E;fillColor=#7AA116;strokeColor=#ffffff;dashed=0;verticalLabelPosition=bottom;verticalAlign=top;align=center;html=1;fontSize=12;fontStyle=0;aspect=fixed;shape=mxgraph.aws4.resourceIcon;resIcon=mxgraph.aws4.s3;" vertex="1" parent="GnkWkmZTFyKenyAE_Ewf-2">
          <mxGeometry x="17.189999999999998" width="47.5" height="47.5" as="geometry" />
        </mxCell>
        <mxCell id="GnkWkmZTFyKenyAE_Ewf-4" value="Data Scaped Versioning" style="text;strokeColor=none;align=center;fillColor=none;html=1;verticalAlign=middle;whiteSpace=wrap;rounded=0;" vertex="1" parent="GnkWkmZTFyKenyAE_Ewf-2">
          <mxGeometry y="62.5" width="81.87" height="17.5" as="geometry" />
        </mxCell>
        <mxCell id="GnkWkmZTFyKenyAE_Ewf-5" style="edgeStyle=orthogonalEdgeStyle;rounded=0;orthogonalLoop=1;jettySize=auto;html=1;" edge="1" parent="jZVaUwOg5UY3L9NAnvdq-71" source="-JkOilVpYJbZjcMI7v-V-109" target="GnkWkmZTFyKenyAE_Ewf-3">
          <mxGeometry relative="1" as="geometry" />
        </mxCell>
        <mxCell id="-JkOilVpYJbZjcMI7v-V-110" value="" style="group" parent="jZVaUwOg5UY3L9NAnvdq-71" vertex="1" connectable="0">
          <mxGeometry x="479.56" y="412.5" width="60" height="79.25" as="geometry" />
        </mxCell>
        <mxCell id="-JkOilVpYJbZjcMI7v-V-109" value="" style="sketch=0;points=[[0,0,0],[0.25,0,0],[0.5,0,0],[0.75,0,0],[1,0,0],[0,1,0],[0.25,1,0],[0.5,1,0],[0.75,1,0],[1,1,0],[0,0.25,0],[0,0.5,0],[0,0.75,0],[1,0.25,0],[1,0.5,0],[1,0.75,0]];outlineConnect=0;fontColor=#232F3E;fillColor=#ED7100;strokeColor=#ffffff;dashed=0;verticalLabelPosition=bottom;verticalAlign=top;align=center;html=1;fontSize=12;fontStyle=0;aspect=fixed;shape=mxgraph.aws4.resourceIcon;resIcon=mxgraph.aws4.lambda;" parent="-JkOilVpYJbZjcMI7v-V-110" vertex="1">
          <mxGeometry x="5.3700000000000045" width="49.25" height="49.25" as="geometry" />
        </mxCell>
        <mxCell id="-JkOilVpYJbZjcMI7v-V-102" value="Web Scrape" style="text;strokeColor=none;align=center;fillColor=none;html=1;verticalAlign=middle;whiteSpace=wrap;rounded=0;" parent="-JkOilVpYJbZjcMI7v-V-110" vertex="1">
          <mxGeometry y="49.25" width="60" height="30" as="geometry" />
        </mxCell>
        <mxCell id="GnkWkmZTFyKenyAE_Ewf-10" value="Lambda Function" style="edgeLabel;html=1;align=center;verticalAlign=middle;resizable=0;points=[];" vertex="1" connectable="0" parent="jZVaUwOg5UY3L9NAnvdq-71">
          <mxGeometry x="509.55883387129285" y="235.99978004214188" as="geometry" />
        </mxCell>
        <mxCell id="GnkWkmZTFyKenyAE_Ewf-15" value="" style="group" vertex="1" connectable="0" parent="jZVaUwOg5UY3L9NAnvdq-71">
          <mxGeometry x="319.56" y="389.5" width="109.69" height="81.37" as="geometry" />
        </mxCell>
        <mxCell id="GnkWkmZTFyKenyAE_Ewf-12" value="" style="sketch=0;points=[[0,0,0],[0.25,0,0],[0.5,0,0],[0.75,0,0],[1,0,0],[0,1,0],[0.25,1,0],[0.5,1,0],[0.75,1,0],[1,1,0],[0,0.25,0],[0,0.5,0],[0,0.75,0],[1,0.25,0],[1,0.5,0],[1,0.75,0]];outlineConnect=0;fontColor=#232F3E;fillColor=#7AA116;strokeColor=#ffffff;dashed=0;verticalLabelPosition=bottom;verticalAlign=top;align=center;html=1;fontSize=12;fontStyle=0;aspect=fixed;shape=mxgraph.aws4.resourceIcon;resIcon=mxgraph.aws4.s3;" vertex="1" parent="GnkWkmZTFyKenyAE_Ewf-15">
          <mxGeometry x="31.099999999999966" width="47.5" height="47.5" as="geometry" />
        </mxCell>
        <mxCell id="GnkWkmZTFyKenyAE_Ewf-14" value="&lt;font style=&quot;font-size: 12px;&quot;&gt;Trained Data&lt;/font&gt;" style="text;strokeColor=none;align=center;fillColor=none;html=1;verticalAlign=middle;whiteSpace=wrap;rounded=0;" vertex="1" parent="GnkWkmZTFyKenyAE_Ewf-15">
          <mxGeometry y="63.870000000000005" width="109.69" height="17.5" as="geometry" />
        </mxCell>
        <mxCell id="-QjtrjUzRDEMRZ5MF8oH-47" value="MeshFarms System Design" style="text;html=1;resizable=0;points=[];autosize=1;align=left;verticalAlign=top;spacingTop=-4;fontSize=30;fontStyle=1;labelBackgroundColor=none;" parent="1" vertex="1">
          <mxGeometry x="36.5" y="26.5" width="410" height="40" as="geometry" />
        </mxCell>
        <mxCell id="-QjtrjUzRDEMRZ5MF8oH-48" value="DICT Startup Competition" style="text;html=1;resizable=0;points=[];autosize=1;align=left;verticalAlign=top;spacingTop=-4;fontSize=16;labelBackgroundColor=none;" parent="1" vertex="1">
          <mxGeometry x="36.5" y="71.5" width="210" height="30" as="geometry" />
        </mxCell>
        <mxCell id="SCVMTBWpLvtzJIhz15lM-1" value="" style="line;strokeWidth=2;html=1;fontSize=14;labelBackgroundColor=none;" parent="1" vertex="1">
          <mxGeometry x="32.5" y="101.5" width="927.5" height="10" as="geometry" />
        </mxCell>
        <mxCell id="-JkOilVpYJbZjcMI7v-V-111" style="edgeStyle=orthogonalEdgeStyle;rounded=0;orthogonalLoop=1;jettySize=auto;html=1;entryX=0.5;entryY=1;entryDx=0;entryDy=0;exitX=0.5;exitY=0;exitDx=0;exitDy=0;" parent="1" source="GnkWkmZTFyKenyAE_Ewf-11" target="-JkOilVpYJbZjcMI7v-V-102" edge="1">
          <mxGeometry relative="1" as="geometry">
            <mxPoint x="710" y="730" as="sourcePoint" />
          </mxGeometry>
        </mxCell>
        <mxCell id="-JkOilVpYJbZjcMI7v-V-114" value="" style="shape=image;verticalLabelPosition=bottom;labelBackgroundColor=default;verticalAlign=top;aspect=fixed;imageAspect=0;image=data:image/svg+xml,PHN2ZyB4bWxucz0iaHR0cDovL3d3dy53My5vcmcvMjAwMC9zdmciIHZpZXdCb3g9IjAgMCA2OTQuMTkgMTg0LjE2IiB2ZXJzaW9uPSIxLjEiIGhlaWdodD0iMTg0LjE2IiB3aWR0aD0iNjk0LjE5Ij4mI3hhOzxkZWZzPiYjeGE7PGNsaXBQYXRoIGlkPSJjbGlwLXBhdGgiPiYjeGE7PHBhdGggZmlsbD0ibm9uZSIgZD0ibTEzOC4wNSAzNy41NzctNTguNzgtMzMuOTJhMTIuMyAxMi4zIDAgMCAwLTEyLjMzIDBsLTU4Ljc5IDMzLjkyYTEyLjM3IDEyLjM3IDAgMCAwLTYuMTUgMTAuNjl2NjcuODlhMTIuMzMgMTIuMzMgMCAwIDAgNi4xNSAxMC42NmwyOS40MSAxN3YzNC42NmEzLjcgMy43IDAgMCAwIDUuNTUgMy4xOWw5NS01NC44MmExMi4zIDEyLjMgMCAwIDAgNi4xNS0xMC42NnYtNjcuOTNhMTIuNCAxMi40IDAgMCAwLTYuMjEtMTAuNjh6Ii8+JiN4YTs8L2NsaXBQYXRoPiYjeGE7PC9kZWZzPiYjeGE7PGcgY2xpcC1wYXRoPSJ1cmwoI2NsaXAtcGF0aCkiPiYjeGE7PHBhdGggZmlsbD0iI2VmNmMwMCIgZD0ibTE0NC4yIDQxLjE1Ny03MS4wOCA0MS4wNS03MS4xMi00MS4wNXY4Mi4xbDM1LjU2IDIwLjUxdjQxLjA2bDEwNi42NC02MS41N3oiLz4mI3hhOzxnIGZpbGw9IiNmZjk4MDAiPiYjeGE7PHBhdGggZD0ibTczLjEyIDgyLjIwNy03MS4xMi00MS4wNSA3MS4xMi00MS4wNSA3MS4wOCA0MS4wNXoiLz4mI3hhOzxwYXRoIGQ9Im03MS44NiA4MC45NTctNjkuNDEtNDAuMDctMC40NSAwLjI3IDcxLjEyIDQxLjA1IDcxLjA4LTQxLjA1LTEuNjctMC45OXoiLz4mI3hhOzxwYXRoIGQ9Im03My4xMiA4Mi43MTd2LTAuNTFsLTcwLjY3LTQwLjgxLTAuNDUgMC4yN3oiLz4mI3hhOzwvZz4mI3hhOzwvZz4mI3hhOzxwYXRoIGZpbGw9IiM3NTc1NzUiIGQ9Im02NzQuMzMgMTIzLjA5aC0xMC42bC0xMy43Ni00Mi40MS0xMy42NSA0Mi40MWgtMTAuNDlsLTE3LjgyLTU1LjI2aDEwLjgzbDEyLjI5IDQxLjczaDAuMTFsMTMuNjUtNDEuNzNoMTAuN2wxMy42NSA0MS43M2gwLjExbDEyLjI0LTQxLjczaDEwLjZ6bS0xMTYuNjMtNDguNjZxOC04LjQgMjAuNDEtOC40dDIwLjQxIDguNCA4IDIxcTAgMTIuNi04IDIxdC0yMC40MSA4LjQtMjAuNDEtOC40LTgtMjFxMC0xMi42IDgtMjF6bTcuNzMgMzUuNTNhMTcuNDUgMTcuNDUgMCAwIDAgMjUuMzggMHE1LjM1LTUuNDcgNS4zNi0xNC40OSAwLjAxLTkuMDItNS4zNi0xNC40OWExNy40NSAxNy40NSAwIDAgMC0yNS4zOCAwcS01LjM2IDUuNDctNS4zNiAxNC40OSAwIDkuMDIgNS4zNSAxNC40OXptLTIzLjY1IDEzLjEzaC0xMC4zN3YtODAuNzNoMTAuMzh6bS0yNi41LTgxLjQzYTIxIDIxIDAgMCAxIDguMzEgMS40NmwtMy42MSA4LjkxYTEwLjY1IDEwLjY1IDAgMCAwLTQuNzQtMC45IDkuMzYgOS4zNiAwIDAgMC02LjY1IDIuNDNxLTIuNiAyLjQzLTIuNTkgN3Y3aDE0LjQ0djkuNDdoLTE0LjQxdjQ1LjgzaC0xMC4zOHYtNDUuNzloLTEwLjM3di05LjQ3aDEwLjM4di03LjMzcTAtOC40NiA1LjQxLTEzLjUzdDE0LjIxLTUuMDh6bS02Ni4zMyAxMDcuMzdxLTkuODEgMC0xNi00LjkxYTI4LjgxIDI4LjgxIDAgMCAxLTguOTEtMTEuMjJsOS40Ny0zLjk1YTE1LjU0IDE1LjU0IDAgMCAwIDUuODEgNy41NiAxNi4wOCAxNi4wOCAwIDAgMCA5LjY0IDNxOC41NyAwIDEzLjQ4LTUuMTN0NC45MS0xMy45M3YtNS4zaC0wLjQ1YTIxLjE0IDIxLjE0IDAgMCAxLTcuNjcgNi43NyAyMi45NCAyMi45NCAwIDAgMS0xMS4xNyAyLjcxcS0xMC43MiAwLTE4LjUtOC40NnQtNy43OC0yMXEwLTEyLjUyIDcuNzgtMjF0MTguNS04LjQ2YTIzIDIzIDAgMCAxIDExLjE3IDIuNzEgMjEuMTQgMjEuMTQgMCAwIDEgNy42NyA2Ljc3aDAuNDV2LTcuNjdoOS45MnY1Mi40NHEwIDE0LjIxLTguMjMgMjEuNmEyOSAyOSAwIDAgMS0yMC4wOSA3LjQ3em0wLjc5LTMzLjgzYTE2LjU0IDE2LjU0IDAgMCAwIDEyLjQ2LTUuNDFxNS4xMy01LjQxIDUuMTMtMTQuNTUgMC05LjE0LTUuMTMtMTQuNTVhMTYuOTMgMTYuOTMgMCAwIDAtMjQuODcgMC4wNnEtNS4xOSA1LjQ3LTUuMTkgMTQuNDkgMCA5LjAyIDUuMTkgMTQuNDlhMTYuNSAxNi41IDAgMCAwIDEyLjQxIDUuNDZ6bS04NC4xNS00MS4wMXE4LTguNCAyMC40MS04LjR0MjAuNDEgOC40IDggMjFxMCAxMi42LTggMjF0LTIwLjQxIDguNC0yMC40MS04LjMzcS04LTguNC04LTIxIDAtMTIuNiA4LTIxLjA3em03LjczIDM1LjUzYTE3LjQ1IDE3LjQ1IDAgMCAwIDI1LjM4IDBxNS4zNS01LjQ3IDUuMzYtMTQuNDkgMC4wMS05LjAyLTUuMzYtMTQuNDlhMTcuNDUgMTcuNDUgMCAwIDAtMjUuMzggMHEtNS4zNiA1LjQ3LTUuMzYgMTQuNDkgMCA5LjAyIDUuMzggMTQuNDl6bS0yNC42MiAxMy4xNGgtMTAuMzd2LTgwLjc1aDEwLjM4em0tNDcuNjQgMS44YTIxLjgyIDIxLjgyIDAgMCAxLTE0LjcyLTUuMDggMTYuOCAxNi44IDAgMCAxLTUuOTItMTMuNDIgMTYuNTkgMTYuNTkgMCAwIDEgNy0xNC4xNXE3LTUuMTMgMTcuMjUtNS4xMyA5LjE0IDAgMTUgMy4zOHYtMS41OGExMi4zNSAxMi4zNSAwIDAgMC00LjE3LTkuNzYgMTUgMTUgMCAwIDAtMTAuMjYtMy42NyAxNS45IDE1LjkgMCAwIDAtOC4xOCAyLjE0IDExIDExIDAgMCAwLTUgNS44NmwtOS40Ny00LjA0cTEuOTItNSA3LjU2LTkuMTl0MTQuODktNC4yM3ExMC42IDAgMTcuNTkgNi4ydDcgMTcuNDh2MzMuMzloLTkuOTJ2LTcuNjdoLTAuNDVxLTYuMjQgOS40Ny0xOC4yIDkuNDd6bTEuNjktOS40N2ExNi45IDE2LjkgMCAwIDAgMTEuNjgtNC44MyAxNC44OCAxNC44OCAwIDAgMCA1LjI0LTExLjMzcS00LjQtMy42MS0xMy4yLTMuNjEtNy41NiAwLTExLjM5IDMuMjdhOS44MiA5LjgyIDAgMCAwLTMuODMgNy42NyA3LjM4IDcuMzggMCAwIDAgMy41IDYuNDMgMTMuOTQgMTMuOTQgMCAwIDAgOC4wMSAyLjR6bS0zMi4xNi02MS40NmE3LjM1IDcuMzUgMCAxIDEgMi4xNC01LjE5IDcuMDcgNy4wNyAwIDAgMS0yLjE0IDUuMTl6bTAgNjkuMTNoLTEwLjM1di01NS4yNmgxMC4zNXptLTg0LjM4IDB2LTgwLjc1aDI0LjdxMTguNjEgMCAyOS43NyAxMS4yMnQxMS4xNyAyOS4xNXEwIDE3LjkzLTExLjE3IDI5LjE1dC0yOS43NyAxMS4yM3ptMTAuMzgtOS45MmgxNC4zMnExNCAwIDIyLjE2LTggOC4xNi04IDguMTgtMjIuNDQgMC0xNC4zMi04LjE4LTIyLjM5dC0yMi4xNi04LjA2aC0xNC4zMnoiLz4mI3hhOzwvc3ZnPg==;" parent="1" vertex="1">
          <mxGeometry x="30" y="209.5" width="150.87" height="40" as="geometry" />
        </mxCell>
        <mxCell id="-JkOilVpYJbZjcMI7v-V-115" style="edgeStyle=orthogonalEdgeStyle;rounded=0;orthogonalLoop=1;jettySize=auto;html=1;" parent="1" source="-JkOilVpYJbZjcMI7v-V-75" target="-JkOilVpYJbZjcMI7v-V-114" edge="1">
          <mxGeometry relative="1" as="geometry" />
        </mxCell>
        <mxCell id="-JkOilVpYJbZjcMI7v-V-116" value="Chatbot" style="edgeLabel;html=1;align=center;verticalAlign=middle;resizable=0;points=[];" parent="-JkOilVpYJbZjcMI7v-V-115" vertex="1" connectable="0">
          <mxGeometry x="-0.0187" relative="1" as="geometry">
            <mxPoint as="offset" />
          </mxGeometry>
        </mxCell>
        <mxCell id="GnkWkmZTFyKenyAE_Ewf-6" value="&lt;b&gt;&lt;font style=&quot;font-size: 14px;&quot;&gt;Supabase&lt;/font&gt;&lt;/b&gt;" style="rounded=0;whiteSpace=wrap;html=1;" vertex="1" parent="1">
          <mxGeometry x="1030" y="315.49" width="120" height="60" as="geometry" />
        </mxCell>
        <mxCell id="-JkOilVpYJbZjcMI7v-V-93" style="edgeStyle=orthogonalEdgeStyle;rounded=0;orthogonalLoop=1;jettySize=auto;html=1;exitX=1;exitY=0.5;exitDx=0;exitDy=0;exitPerimeter=0;entryX=0;entryY=0.5;entryDx=0;entryDy=0;" parent="1" source="-JkOilVpYJbZjcMI7v-V-23" target="GnkWkmZTFyKenyAE_Ewf-6" edge="1">
          <mxGeometry relative="1" as="geometry">
            <Array as="points" />
            <mxPoint x="1100" y="345" as="targetPoint" />
          </mxGeometry>
        </mxCell>
        <mxCell id="-JkOilVpYJbZjcMI7v-V-94" value="&lt;font style=&quot;font-size: 12px;&quot;&gt;Read&lt;/font&gt;" style="edgeLabel;html=1;align=center;verticalAlign=middle;resizable=0;points=[];" parent="-JkOilVpYJbZjcMI7v-V-93" vertex="1" connectable="0">
          <mxGeometry x="-0.5906" relative="1" as="geometry">
            <mxPoint x="55" as="offset" />
          </mxGeometry>
        </mxCell>
        <mxCell id="GnkWkmZTFyKenyAE_Ewf-7" style="edgeStyle=orthogonalEdgeStyle;rounded=0;orthogonalLoop=1;jettySize=auto;html=1;entryX=0.5;entryY=1;entryDx=0;entryDy=0;" edge="1" parent="1" source="-JkOilVpYJbZjcMI7v-V-98" target="GnkWkmZTFyKenyAE_Ewf-6">
          <mxGeometry relative="1" as="geometry" />
        </mxCell>
        <mxCell id="GnkWkmZTFyKenyAE_Ewf-8" value="&lt;font style=&quot;font-size: 12px;&quot;&gt;Write&lt;/font&gt;" style="edgeLabel;html=1;align=center;verticalAlign=middle;resizable=0;points=[];" vertex="1" connectable="0" parent="GnkWkmZTFyKenyAE_Ewf-7">
          <mxGeometry x="-0.3482" y="-2" relative="1" as="geometry">
            <mxPoint y="-3" as="offset" />
          </mxGeometry>
        </mxCell>
        <mxCell id="GnkWkmZTFyKenyAE_Ewf-11" value="&lt;b&gt;&lt;font style=&quot;font-size: 14px;&quot;&gt;Facebook, Agri Websites&lt;/font&gt;&lt;/b&gt;" style="rounded=0;whiteSpace=wrap;html=1;" vertex="1" parent="1">
          <mxGeometry x="650" y="730" width="120" height="60" as="geometry" />
        </mxCell>
      </root>
    </mxGraphModel>
  </diagram>
</mxfile>
